<svg width="24" height="24" viewBox="0 0 24 24" fill="none" xmlns="http://www.w3.org/2000/svg">
<path d="M12.9075 5.43149L12.7107 4.81201L12.9075 5.43149ZM4.08958 19.5507L3.89274 20.1702L4.08958 19.5507ZM12.9075 21.7752L12.7107 21.1558L12.7107 21.1558L12.9075 21.7752ZM11.0906 21.7752L11.2874 21.1558L11.0906 21.7752ZM19.9085 19.5507L19.7116 18.9313L12.7107 21.1558L12.9075 21.7752L13.1043 22.3947L20.1053 20.1702L19.9085 19.5507ZM11.0906 21.7752L11.2874 21.1558L4.28641 18.9313L4.08958 19.5507L3.89274 20.1702L10.8937 22.3947L11.0906 21.7752ZM1.99805 16.6916H2.64805V6.64345H1.99805H1.34805V16.6916H1.99805ZM5.90652 3.78431L5.70968 4.40379L10.8937 6.05097L11.0906 5.43149L11.2874 4.81201L6.10335 3.16483L5.90652 3.78431ZM12.9075 5.43149L13.1043 6.05097L18.2884 4.40379L18.0915 3.78431L17.8947 3.16483L12.7107 4.81201L12.9075 5.43149ZM22 6.64345H21.35V16.6916H22H22.65V6.64345H22ZM18.0915 3.78431L18.2884 4.40379C19.8038 3.92227 21.35 5.05335 21.35 6.64345H22H22.65C22.65 4.17372 20.2485 2.41694 17.8947 3.16483L18.0915 3.78431ZM11.0906 5.43149L10.8937 6.05097C11.6129 6.27948 12.3852 6.27948 13.1043 6.05097L12.9075 5.43149L12.7107 4.81201C12.2476 4.95913 11.7504 4.95913 11.2874 4.81201L11.0906 5.43149ZM1.99805 6.64345H2.64805C2.64805 5.05335 4.19424 3.92227 5.70968 4.40379L5.90652 3.78431L6.10335 3.16483C3.74959 2.41693 1.34805 4.17372 1.34805 6.64345H1.99805ZM4.08958 19.5507L4.28641 18.9313C3.31076 18.6213 2.64805 17.7153 2.64805 16.6916H1.99805H1.34805C1.34805 18.2816 2.37737 19.6887 3.89274 20.1702L4.08958 19.5507ZM12.9075 21.7752L12.7107 21.1558C12.2476 21.3029 11.7504 21.3029 11.2874 21.1558L11.0906 21.7752L10.8937 22.3947C11.6129 22.6232 12.3852 22.6232 13.1043 22.3947L12.9075 21.7752ZM19.9085 19.5507L20.1053 20.1702C21.6207 19.6887 22.65 18.2816 22.65 16.6916H22H21.35C21.35 17.7153 20.6873 18.6213 19.7116 18.9313L19.9085 19.5507Z" fill="#1A1A1A"/>
<path d="M12 12V21" stroke="#1A1A1A" stroke-width="1.3" stroke-linecap="round" stroke-linejoin="round"/>
<path d="M19 8L15 9.5" stroke="#1A1A1A" stroke-width="1.3" stroke-linecap="round" stroke-linejoin="round"/>
</svg>

