<svg width="56" height="56" viewBox="0 0 56 56" fill="none" xmlns="http://www.w3.org/2000/svg">
<g opacity="0.5">
<path d="M7.04492 23.3061C7.04492 15.5995 7.04492 11.7462 9.57187 9.35239C11.5758 7.45343 14.5486 7.06101 19.7477 6.97949H36.2531C41.4535 7.06101 44.4243 7.45343 46.4283 9.35239C48.9552 11.7462 48.9552 15.5995 48.9552 23.3061V34.9867C48.9552 42.6908 48.9552 46.5441 46.4283 48.9404C43.9013 51.3342 39.8336 51.3342 31.698 51.3342H24.3021C16.1666 51.3342 12.0988 51.3342 9.57187 48.9379C7.04492 46.5466 7.04492 42.6908 7.04492 34.9842V23.3061Z" fill="#00A2BD"/>
<path d="M15.1665 23.2647L17.3961 25.3229C17.8563 25.7476 18.5696 25.7333 19.0124 25.2905L24.3264 19.9766" stroke="#ADE4F0" stroke-width="3.03333" stroke-linecap="round"/>
<path d="M15.1665 34.5284L17.3961 36.5865C17.8563 37.0113 18.5696 36.997 19.0124 36.5542L24.3264 31.2402" stroke="#ADE4F0" stroke-width="3.03333" stroke-linecap="round"/>
<path d="M20.593 6.34819C20.9122 5.65745 21.0718 5.31125 21.3777 5.02996C21.7579 4.69526 22.2754 4.40463 22.896 4.17715C23.5166 3.94967 24.2263 3.79049 24.9785 3.71006C25.6535 3.63184 26.4382 3.63184 28.0009 3.63184C29.5636 3.63184 30.3483 3.63184 31.0232 3.71006C31.7755 3.79049 32.4852 3.94967 33.1058 4.17715C33.7264 4.40463 34.2438 4.69526 34.6241 5.02996C34.93 5.31291 35.0896 5.65745 35.4088 6.34819L35.6848 6.94738C36.25 8.17074 36.5326 8.78325 36.107 9.25429C35.817 9.56692 35.3454 9.82852 34.7538 10.0049C33.8195 10.2896 32.4297 10.2896 29.6567 10.2896H26.3451C23.5721 10.2896 22.1823 10.2896 21.248 10.0066C20.6559 9.82975 20.1842 9.56754 19.8947 9.25429C19.4691 8.78325 19.7518 8.17241 20.317 6.94738L20.593 6.34819Z" fill="#ADE4F0"/>
<path d="M29.6543 23.333H41.321" stroke="#ADE4F0" stroke-width="3.03333" stroke-linecap="round"/>
<path d="M29.6543 35H41.321" stroke="#ADE4F0" stroke-width="3.03333" stroke-linecap="round"/>
</g>
</svg>
