<svg width="24" height="24" viewBox="0 0 24 24" fill="none" xmlns="http://www.w3.org/2000/svg">
<path d="M12 5.50142C13.9864 3.75814 16.5784 2.86562 19.217 3.01642C20.341 3.07642 20.903 3.10642 21.451 3.68442C22 4.26342 22 4.97642 22 6.40442V11.5014" stroke="#00A2BD" stroke-width="2" stroke-linecap="round" stroke-linejoin="round"/>
<path d="M5.33203 2.35157C7.94871 2.34838 10.4785 3.29494 12.4297 5.01368C12.5695 5.13697 12.6503 5.31457 12.6504 5.50098V21.001C12.6504 21.256 12.5007 21.4874 12.2686 21.5928C12.0361 21.6981 11.7631 21.6576 11.5713 21.4893C9.8467 19.9765 7.62899 19.1455 5.33496 19.1514H5.33301C4.56131 19.1514 3.95042 19.1512 3.49121 19.1221C3.07299 19.0955 2.64548 19.0398 2.31934 18.8418V18.8438C2.05342 18.6897 1.8325 18.4694 1.67481 18.2061L1.67383 18.207C1.67078 18.2022 1.66805 18.1962 1.66504 18.1914C1.66294 18.1879 1.66026 18.1842 1.65821 18.1807L1.65918 18.1797C1.47109 17.8714 1.40848 17.5067 1.37988 17.1436C1.34981 16.7612 1.34961 16.2687 1.34961 15.6641V6.4043C1.34961 5.71089 1.34812 5.11485 1.42676 4.62305C1.51102 4.09653 1.69272 3.64178 2.07715 3.23634C2.83078 2.44065 3.67312 2.42451 4.74707 2.36817C4.94078 2.35753 5.13596 2.35159 5.33203 2.35157Z" fill="#00A2BD"/>
<path d="M18.5547 14.1455C18.8153 13.9515 19.1847 13.9515 19.4453 14.1455C19.8623 14.456 20.495 14.8906 21 15.0782C21.3882 15.2223 21.9087 15.2858 22.3213 15.3135C22.6935 15.3386 23 15.6306 23 15.9912V16.6807C23 18.4913 22.1248 20.1984 20.6338 21.2949L20.2109 21.6055C19.4954 22.1315 18.5046 22.1315 17.7891 21.6055L17.3662 21.2949C15.8752 20.1984 15 18.4913 15 16.6807V15.9912C15 15.6306 15.3065 15.3386 15.6787 15.3135C16.0913 15.2858 16.6118 15.2223 17 15.0782C17.505 14.8906 18.1377 14.456 18.5547 14.1455Z" fill="#00A2BD"/>
</svg>
