<svg width="24" height="24" viewBox="0 0 24 24" fill="none" xmlns="http://www.w3.org/2000/svg">
<path d="M22 11.5014V6.40442C22 4.97642 22 4.26342 21.451 3.68442C20.903 3.10642 20.341 3.07642 19.217 3.01642C16.5784 2.86562 13.9864 3.75814 12 5.50142C10.169 3.88842 7.793 2.99842 5.333 3.00142C5.14833 3.00142 4.965 3.00642 4.783 3.01642C3.659 3.07542 3.097 3.10542 2.549 3.68442C2 4.26342 2 4.97642 2 6.40442V15.6644C2 16.8964 2 17.5114 2.221 17.8564C2.32259 18.0328 2.46882 18.1794 2.645 18.2814C2.99 18.5014 3.771 18.5014 5.333 18.5014C7.78563 18.495 10.1563 19.384 12 21.0014V9" stroke="#1A1A1A" stroke-width="1.3" stroke-linecap="round" stroke-linejoin="round"/>
<path d="M19 14.6504C19.0251 14.6504 19.0445 14.658 19.0566 14.667C19.4715 14.9759 20.1713 15.4638 20.7734 15.6875C21.2545 15.8662 21.8539 15.9335 22.2773 15.9619C22.3077 15.9639 22.3318 15.9776 22.3447 15.9902C22.3468 15.9923 22.3486 15.9938 22.3496 15.9951V16.6807C22.3496 18.2791 21.5769 19.7943 20.248 20.7715L19.8262 21.082C19.3397 21.4397 18.6603 21.4397 18.1738 21.082L17.752 20.7715C16.4231 19.7943 15.6504 18.2791 15.6504 16.6807V15.9951C15.6514 15.9938 15.6532 15.9923 15.6553 15.9902C15.6682 15.9776 15.6923 15.9639 15.7227 15.9619C16.1461 15.9335 16.7455 15.8662 17.2266 15.6875C17.8287 15.4638 18.5285 14.9759 18.9434 14.667C18.9555 14.658 18.9749 14.6504 19 14.6504Z" stroke="#1A1A1A" stroke-width="1.3"/>
</svg>
