<svg width="24" height="24" viewBox="0 0 24 24" fill="none" xmlns="http://www.w3.org/2000/svg">
<path d="M4.83118 19C3.5275 19 2.34231 18.717 1.46122 18.2554C1.1848 18.1106 1.00003 17.8231 1 17.5003C1 15.5676 2.71517 14.0001 4.83118 14C5.63618 14 6.38326 14.2268 7 14.6143" stroke="#1A1A1A" stroke-width="1.3" stroke-linecap="round" stroke-linejoin="round"/>
<path d="M19.4325 19C20.7362 19 21.9214 18.717 22.8025 18.2554C23.0789 18.1106 23.2636 17.8231 23.2637 17.5003C23.2637 15.5676 21.5485 14.0001 19.4325 14C18.6275 14 17.8804 14.2268 17.2637 14.6143" stroke="#1A1A1A" stroke-width="1.3" stroke-linecap="round" stroke-linejoin="round"/>
<circle cx="12" cy="6" r="3.35" stroke="#1A1A1A" stroke-width="1.3" stroke-linecap="round" stroke-linejoin="round"/>
<circle cx="5" cy="9" r="2.35" stroke="#1A1A1A" stroke-width="1.3" stroke-linecap="round" stroke-linejoin="round"/>
<circle cx="19" cy="9" r="2.35" stroke="#1A1A1A" stroke-width="1.3" stroke-linecap="round" stroke-linejoin="round"/>
<path d="M12 13V12.35H12L12 13ZM19.001 19.3008L19.651 19.3008V19.3008H19.001ZM12 22.001L12 22.651H12V22.001ZM5 19.3008H4.35V19.3008L5 19.3008ZM5.86242 20.6707L5.56567 21.2491L5.86242 20.6707ZM18.1384 20.6694L17.8415 20.0912L18.1384 20.6694ZM12 13V13.65C15.5733 13.65 18.351 16.2431 18.351 19.3008H19.001H19.651C19.651 15.3997 16.159 12.35 12 12.35V13ZM18.1384 20.6694L17.8415 20.0912C16.3402 20.862 14.2873 21.351 12 21.351V22.001V22.651C14.4582 22.651 16.721 22.1279 18.4353 21.2477L18.1384 20.6694ZM12 22.001L12 21.351C9.71315 21.351 7.66041 20.8628 6.15917 20.0924L5.86242 20.6707L5.56567 21.2491C7.27994 22.1287 9.54252 22.651 12 22.651L12 22.001ZM5 19.3008H5.65C5.65 16.2431 8.42695 13.6501 12 13.65L12 13L12 12.35C7.84101 12.3501 4.35 15.3998 4.35 19.3008H5ZM5.86242 20.6707L6.15917 20.0924C5.83984 19.9286 5.65002 19.6202 5.65 19.3008L5 19.3008L4.35 19.3008C4.35004 20.1466 4.84831 20.8809 5.56567 21.2491L5.86242 20.6707ZM19.001 19.3008L18.351 19.3008C18.351 19.6188 18.1612 19.9271 17.8415 20.0912L18.1384 20.6694L18.4353 21.2477C19.1512 20.8801 19.6509 20.1468 19.651 19.3008L19.001 19.3008Z" fill="#1A1A1A"/>
</svg>

