<svg width="24" height="24" viewBox="0 0 24 24" fill="none" xmlns="http://www.w3.org/2000/svg">
<path d="M8 3L8 7" stroke="#00A2BD" stroke-width="2" stroke-linecap="round"/>
<path d="M17 5C19.2091 5 21 6.79086 21 9V17C21 19.2091 19.2091 21 17 21H7C4.79086 21 3 19.2091 3 17V9C3 6.79086 4.79086 5 7 5H17ZM7 11.3496C6.64101 11.3496 6.34961 11.641 6.34961 12C6.34961 12.359 6.64101 12.6504 7 12.6504H17C17.359 12.6504 17.6504 12.359 17.6504 12C17.6504 11.641 17.359 11.3496 17 11.3496H7Z" fill="#00A2BD"/>
<path d="M16 3L16 7" stroke="#00A2BD" stroke-width="2" stroke-linecap="round"/>
</svg>
