<svg width="60" height="60" viewBox="0 0 60 60" fill="none" xmlns="http://www.w3.org/2000/svg">
<rect x="2.58063" y="2.58063" width="54.8387" height="54.8387" rx="27.4194" fill="#FF807B"/>
<path d="M17.9268 36.3225C17.0556 36.3225 16.2679 36.1692 15.5638 35.8624C14.8716 35.5556 14.3227 35.1138 13.9169 34.537C13.768 34.3254 13.6456 34.0996 13.5497 33.8599C13.2643 33.146 13.9198 32.4938 14.6886 32.4938C15.413 32.4938 15.9461 33.1352 16.4366 33.6683C16.461 33.6947 16.4863 33.7205 16.5126 33.7455C16.8467 34.0523 17.3002 34.2057 17.8731 34.2057C18.4579 34.2057 18.9173 34.0646 19.2515 33.7823C19.5856 33.4878 19.7527 33.1074 19.7527 32.6411C19.7527 32.2606 19.6394 31.9477 19.4126 31.7023C19.1859 31.4569 18.8994 31.2666 18.5533 31.1317C18.2192 30.9844 17.7537 30.8249 17.157 30.6531C16.3455 30.4076 15.6832 30.1683 15.17 29.9352C14.6687 29.6897 14.2331 29.3277 13.8632 28.8491C13.5052 28.3583 13.3261 27.7079 13.3261 26.898C13.3261 26.1371 13.5111 25.4745 13.8811 24.91C14.251 24.3455 14.7702 23.916 15.4385 23.6214C16.1068 23.3146 16.8706 23.1613 17.7299 23.1613C19.0188 23.1613 20.063 23.4865 20.8626 24.1368C21.3041 24.484 21.6378 24.9074 21.8638 25.407C22.1901 26.1282 21.5314 26.8243 20.7398 26.8243H20.7066C20.001 26.8243 19.4403 26.1842 18.8935 25.7383C18.5593 25.4438 18.1118 25.2965 17.5509 25.2965C17.0616 25.2965 16.6677 25.4254 16.3694 25.6831C16.083 25.9408 15.9397 26.3151 15.9397 26.8059C15.9397 27.1495 16.0472 27.4379 16.262 27.6711C16.4887 27.892 16.7632 28.076 17.0854 28.2233C17.4196 28.3583 17.885 28.5178 18.4817 28.7019C19.2933 28.9473 19.9556 29.1927 20.4688 29.4382C20.982 29.6836 21.4235 30.0518 21.7935 30.5426C22.1634 31.0335 22.3484 31.6777 22.3484 32.4754C22.3484 33.1626 22.1754 33.8007 21.8293 34.3898C21.4832 34.9788 20.976 35.4513 20.3077 35.8071C19.6394 36.1507 18.8457 36.3225 17.9268 36.3225Z" fill="white"/>
<path d="M29.7618 36.3225C28.5923 36.3225 27.5182 36.0403 26.5396 35.4758C25.561 34.9113 24.7852 34.1321 24.2124 33.1381C23.6396 32.1318 23.3531 30.9967 23.3531 29.7327C23.3531 28.481 23.6396 27.3581 24.2124 26.3641C24.7852 25.3579 25.561 24.5725 26.5396 24.008C27.5182 23.4435 28.5923 23.1613 29.7618 23.1613C30.9433 23.1613 32.0174 23.4435 32.9841 24.008C33.9627 24.5725 34.7324 25.3579 35.2933 26.3641C35.8662 27.3581 36.1526 28.481 36.1526 29.7327C36.1526 30.9967 35.8662 32.1318 35.2933 33.1381C34.7324 34.1321 33.9627 34.9113 32.9841 35.4758C32.0055 36.0403 30.9314 36.3225 29.7618 36.3225ZM29.7618 34.0216C30.5137 34.0216 31.176 33.8498 31.7489 33.5062C32.3217 33.1503 32.7692 32.6472 33.0915 31.9968C33.4137 31.3464 33.5748 30.5917 33.5748 29.7327C33.5748 28.8737 33.4137 28.1251 33.0915 27.487C32.7692 26.8366 32.3217 26.3396 31.7489 25.996C31.176 25.6524 30.5137 25.4806 29.7618 25.4806C29.01 25.4806 28.3416 25.6524 27.7569 25.996C27.184 26.3396 26.7365 26.8366 26.4143 27.487C26.092 28.1251 25.9309 28.8737 25.9309 29.7327C25.9309 30.5917 26.092 31.3464 26.4143 31.9968C26.7365 32.6472 27.184 33.1503 27.7569 33.5062C28.3416 33.8498 29.01 34.0216 29.7618 34.0216Z" fill="white"/>
<path d="M41.7719 36.3225C40.9007 36.3225 40.1131 36.1692 39.409 35.8624C38.7168 35.5556 38.1678 35.1138 37.762 34.537C37.6131 34.3254 37.4907 34.0996 37.3949 33.8599C37.1094 33.146 37.765 32.4938 38.5338 32.4938C39.2582 32.4938 39.7913 33.1352 40.2818 33.6683C40.3061 33.6947 40.3315 33.7205 40.3577 33.7455C40.6919 34.0523 41.1454 34.2057 41.7182 34.2057C42.303 34.2057 42.7625 34.0646 43.0966 33.7823C43.4308 33.4878 43.5979 33.1074 43.5979 32.6411C43.5979 32.2606 43.4845 31.9477 43.2578 31.7023C43.031 31.4569 42.7446 31.2666 42.3985 31.1317C42.0643 30.9844 41.5989 30.8249 41.0022 30.6531C40.1907 30.4076 39.5283 30.1683 39.0151 29.9352C38.5139 29.6897 38.0783 29.3277 37.7083 28.8491C37.3503 28.3583 37.1713 27.7079 37.1713 26.898C37.1713 26.1371 37.3563 25.4745 37.7262 24.91C38.0962 24.3455 38.6153 23.916 39.2837 23.6214C39.952 23.3146 40.7158 23.1613 41.575 23.1613C42.8639 23.1613 43.9082 23.4865 44.7078 24.1368C45.1492 24.484 45.483 24.9074 45.709 25.407C46.0353 26.1282 45.3766 26.8243 44.585 26.8243H44.5518C43.8462 26.8243 43.2854 26.1842 42.7386 25.7383C42.4045 25.4438 41.9569 25.2965 41.396 25.2965C40.9067 25.2965 40.5129 25.4254 40.2145 25.6831C39.9281 25.9408 39.7849 26.3151 39.7849 26.8059C39.7849 27.1495 39.8923 27.4379 40.1071 27.6711C40.3339 27.892 40.6084 28.076 40.9306 28.2233C41.2647 28.3583 41.7302 28.5178 42.3269 28.7019C43.1384 28.9473 43.8008 29.1927 44.3139 29.4382C44.8271 29.6836 45.2687 30.0518 45.6386 30.5426C46.0086 31.0335 46.1936 31.6777 46.1936 32.4754C46.1936 33.1626 46.0205 33.8007 45.6744 34.3898C45.3283 34.9788 44.8211 35.4513 44.1528 35.8071C43.4845 36.1507 42.6909 36.3225 41.7719 36.3225Z" fill="white"/>
</svg>
