<svg width="24" height="24" viewBox="0 0 24 24" fill="none" xmlns="http://www.w3.org/2000/svg">
<path d="M19.7327 13.8105C21.0939 14.8275 22.3104 17.3881 22.3104 18.9659C22.3104 19.4574 21.9518 19.8559 21.5095 19.8559H21.0216M15.8662 9.64194C16.7467 9.13257 17.3392 8.18052 17.3392 7.09011C17.3392 5.99969 16.7467 5.04765 15.8662 4.53828M2.48983 19.8559H16.5996C17.0419 19.8559 17.4005 19.4574 17.4005 18.9659C17.4005 15.8763 14.8193 13.3717 9.54469 13.3717C4.27005 13.3717 1.68884 15.8763 1.68884 18.9659C1.68884 19.4574 2.04746 19.8559 2.48983 19.8559ZM12.4906 7.09011C12.4906 8.71711 11.1717 10.0361 9.54469 10.0361C7.91769 10.0361 6.59875 8.71711 6.59875 7.09011C6.59875 5.46311 7.91769 4.14417 9.54469 4.14417C11.1717 4.14417 12.4906 5.46311 12.4906 7.09011Z" stroke="#1A1A1A" stroke-width="1.3" stroke-linecap="round"/>
</svg>
