<svg width="24" height="24" viewBox="0 0 24 24" fill="none" xmlns="http://www.w3.org/2000/svg">
<path d="M19.7331 13.8106C21.0943 14.8276 22.3108 17.3882 22.3108 18.9659C22.3108 19.4575 21.9522 19.8559 21.5098 19.8559H21.022M15.8666 9.64199C16.7471 9.13262 17.3396 8.18058 17.3396 7.09016C17.3396 5.99974 16.7471 5.0477 15.8666 4.53833" stroke="#00A2BD" stroke-width="2" stroke-linecap="round"/>
<path d="M9.54492 12.7217C12.2776 12.7217 14.3976 13.3704 15.8496 14.4971C17.3158 15.6349 18.0507 17.2244 18.0508 18.9658C18.0506 19.75 17.4643 20.5056 16.6006 20.5059H2.49023C1.6264 20.5057 1.03925 19.75 1.03906 18.9658C1.03919 17.2244 1.77504 15.6349 3.24121 14.4971C4.69315 13.3705 6.81249 12.7217 9.54492 12.7217Z" fill="#00A2BD"/>
<path d="M9.5459 3.49414C11.5317 3.49433 13.1416 5.10495 13.1416 7.09082C13.1412 9.07636 11.5315 10.6863 9.5459 10.6865C7.56015 10.6865 5.9496 9.07648 5.94922 7.09082C5.94922 5.10484 7.55991 3.49414 9.5459 3.49414Z" fill="#00A2BD"/>
</svg>
