<svg width="68" height="68" viewBox="0 0 68 68" fill="none" xmlns="http://www.w3.org/2000/svg">
<rect width="68" height="68" rx="34" fill="white"/>
<rect x="6.58105" y="6.58063" width="54.8387" height="54.8387" rx="27.4194" fill="#FF807B"/>
<path d="M21.9265 40.3227C21.0553 40.3227 20.2676 40.1693 19.5635 39.8625C18.8713 39.5557 18.3223 39.1139 17.9166 38.5372C17.7677 38.3255 17.6453 38.0998 17.5494 37.86C17.264 37.1462 17.9195 36.4939 18.6883 36.4939C19.4127 36.4939 19.9458 37.1353 20.4363 37.6684C20.4607 37.6949 20.486 37.7206 20.5123 37.7456C20.8464 38.0524 21.2999 38.2058 21.8728 38.2058C22.4576 38.2058 22.917 38.0647 23.2512 37.7824C23.5853 37.4879 23.7524 37.1075 23.7524 36.6412C23.7524 36.2608 23.639 35.9478 23.4123 35.7024C23.1855 35.457 22.8991 35.2668 22.553 35.1318C22.2189 34.9845 21.7534 34.825 21.1567 34.6532C20.3452 34.4078 19.6829 34.1685 19.1697 33.9353C18.6684 33.6899 18.2328 33.3279 17.8629 32.8493C17.5049 32.3584 17.3258 31.708 17.3258 30.8981C17.3258 30.1372 17.5108 29.4746 17.8808 28.9101C18.2507 28.3456 18.7699 27.9161 19.4382 27.6216C20.1065 27.3148 20.8703 27.1614 21.7296 27.1614C23.0185 27.1614 24.0627 27.4866 24.8623 28.137C25.3038 28.4841 25.6375 28.9075 25.8635 29.4071C26.1898 30.1284 25.5311 30.8244 24.7395 30.8244H24.7063C24.0007 30.8244 23.44 30.1844 22.8932 29.7384C22.559 29.4439 22.1115 29.2966 21.5506 29.2966C21.0613 29.2966 20.6674 29.4255 20.3691 29.6832C20.0826 29.9409 19.9394 30.3152 19.9394 30.806C19.9394 31.1496 20.0468 31.438 20.2617 31.6712C20.4884 31.8921 20.7629 32.0762 21.0851 32.2234C21.4193 32.3584 21.8847 32.5179 22.4814 32.702C23.293 32.9474 23.9553 33.1929 24.4685 33.4383C24.9816 33.6837 25.4232 34.0519 25.7932 34.5427C26.1631 35.0336 26.3481 35.6779 26.3481 36.4755C26.3481 37.1627 26.1751 37.8009 25.829 38.3899C25.4829 38.9789 24.9757 39.4514 24.3074 39.8073C23.639 40.1509 22.8454 40.3227 21.9265 40.3227Z" fill="white"/>
<path d="M33.7615 40.3227C32.592 40.3227 31.5179 40.0404 30.5393 39.4759C29.5607 38.9114 28.7849 38.1322 28.2121 37.1382C27.6393 36.1319 27.3528 34.9968 27.3528 33.7328C27.3528 32.4811 27.6393 31.3583 28.2121 30.3643C28.7849 29.358 29.5607 28.5726 30.5393 28.0081C31.5179 27.4436 32.592 27.1614 33.7615 27.1614C34.943 27.1614 36.0171 27.4436 36.9838 28.0081C37.9624 28.5726 38.7321 29.358 39.293 30.3643C39.8659 31.3583 40.1523 32.4811 40.1523 33.7328C40.1523 34.9968 39.8659 36.1319 39.293 37.1382C38.7321 38.1322 37.9624 38.9114 36.9838 39.4759C36.0051 40.0404 34.9311 40.3227 33.7615 40.3227ZM33.7615 38.0217C34.5134 38.0217 35.1757 37.8499 35.7486 37.5063C36.3214 37.1505 36.7689 36.6473 37.0912 35.9969C37.4134 35.3465 37.5745 34.5918 37.5745 33.7328C37.5745 32.8738 37.4134 32.1252 37.0912 31.4871C36.7689 30.8367 36.3214 30.3397 35.7486 29.9961C35.1757 29.6525 34.5134 29.4807 33.7615 29.4807C33.0097 29.4807 32.3413 29.6525 31.7566 29.9961C31.1837 30.3397 30.7362 30.8367 30.414 31.4871C30.0917 32.1252 29.9306 32.8738 29.9306 33.7328C29.9306 34.5918 30.0917 35.3465 30.414 35.9969C30.7362 36.6473 31.1837 37.1505 31.7566 37.5063C32.3413 37.8499 33.0097 38.0217 33.7615 38.0217Z" fill="white"/>
<path d="M45.7716 40.3227C44.9004 40.3227 44.1128 40.1693 43.4087 39.8625C42.7165 39.5557 42.1675 39.1139 41.7617 38.5372C41.6128 38.3255 41.4904 38.0998 41.3946 37.86C41.1091 37.1462 41.7647 36.4939 42.5335 36.4939C43.2579 36.4939 43.7909 37.1353 44.2815 37.6684C44.3058 37.6949 44.3312 37.7206 44.3574 37.7456C44.6916 38.0524 45.1451 38.2058 45.7179 38.2058C46.3027 38.2058 46.7622 38.0647 47.0963 37.7824C47.4305 37.4879 47.5976 37.1075 47.5976 36.6412C47.5976 36.2608 47.4842 35.9478 47.2574 35.7024C47.0307 35.457 46.7443 35.2668 46.3982 35.1318C46.064 34.9845 45.5986 34.825 45.0019 34.6532C44.1903 34.4078 43.528 34.1685 43.0148 33.9353C42.5136 33.6899 42.078 33.3279 41.708 32.8493C41.35 32.3584 41.171 31.708 41.171 30.8981C41.171 30.1372 41.356 29.4746 41.7259 28.9101C42.0959 28.3456 42.615 27.9161 43.2833 27.6216C43.9517 27.3148 44.7155 27.1614 45.5747 27.1614C46.8636 27.1614 47.9079 27.4866 48.7075 28.137C49.1489 28.4841 49.4827 28.9075 49.7087 29.4071C50.035 30.1284 49.3763 30.8244 48.5847 30.8244H48.5515C47.8459 30.8244 47.2851 30.1844 46.7383 29.7384C46.4041 29.4439 45.9566 29.2966 45.3957 29.2966C44.9064 29.2966 44.5126 29.4255 44.2142 29.6832C43.9278 29.9409 43.7846 30.3152 43.7846 30.806C43.7846 31.1496 43.892 31.438 44.1068 31.6712C44.3336 31.8921 44.608 32.0762 44.9303 32.2234C45.2644 32.3584 45.7299 32.5179 46.3266 32.702C47.1381 32.9474 47.8005 33.1929 48.3136 33.4383C48.8268 33.6837 49.2684 34.0519 49.6383 34.5427C50.0083 35.0336 50.1933 35.6779 50.1933 36.4755C50.1933 37.1627 50.0202 37.8009 49.6741 38.3899C49.328 38.9789 48.8208 39.4514 48.1525 39.8073C47.4842 40.1509 46.6906 40.3227 45.7716 40.3227Z" fill="white"/>
</svg>
