<svg width="18" height="18" viewBox="0 0 18 18" fill="none" xmlns="http://www.w3.org/2000/svg">
<rect width="18" height="18" rx="5" fill="#00A2BD"/>
<g clip-path="url(#clip0_440_4382)">
<path d="M7.98539 11.2622C8.13181 11.2707 8.28203 11.3218 8.39596 11.4587C8.50235 11.5867 8.55558 11.7644 8.57581 11.9788C8.64299 12.694 8.25894 13.432 7.58785 13.5636C6.92408 13.6934 6.2156 13.1758 6.07214 12.4381C6.03668 12.2556 6.03825 12.0908 6.09208 11.9474C6.14781 11.7991 6.25041 11.697 6.37 11.6268C6.48457 11.5596 6.61835 11.5194 6.74801 11.4893C6.87673 11.4593 7.02482 11.4345 7.16182 11.4083C7.30168 11.3815 7.42683 11.3465 7.56954 11.3135C7.70116 11.283 7.84777 11.2543 7.98539 11.2622Z" fill="white"/>
<path d="M10.0146 9.3872C10.1522 9.37923 10.2988 9.40758 10.4305 9.43807C10.5733 9.47115 10.6986 9.50648 10.8386 9.53328C10.9755 9.55949 11.1233 9.5843 11.252 9.61425C11.3817 9.64447 11.5158 9.68447 11.6304 9.75179C11.75 9.82201 11.8522 9.92414 11.9079 10.0724C11.9618 10.2158 11.9633 10.3806 11.9279 10.5631C11.7889 11.2778 11.1196 11.7859 10.4744 11.6988L10.4121 11.6886C9.74095 11.5571 9.3574 10.8193 9.4246 10.1042C9.44482 9.88984 9.4977 9.71171 9.60404 9.58374C9.71796 9.44678 9.86814 9.39572 10.0146 9.3872Z" fill="white"/>
<path d="M6.37569 6.29394C6.61856 6.27473 6.84087 6.36815 7.02999 6.51489C7.21814 6.6609 7.38511 6.86761 7.52763 7.10286C7.7772 7.51487 7.96918 8.04208 8.07328 8.56608L8.11235 8.78987C8.20092 9.37921 8.17155 9.87584 7.97196 10.2502C7.76471 10.6388 7.39601 10.8569 6.90344 10.9298C6.35095 11.0115 5.92503 10.8666 5.62333 10.5119C5.33725 10.1754 5.18546 9.67484 5.09802 9.09301C4.9783 8.29583 5.05546 7.6269 5.28153 7.13948C5.50915 6.64899 5.89581 6.33213 6.37569 6.29394Z" fill="white"/>
<path d="M11.6231 4.41853C12.1042 4.45348 12.4914 4.77138 12.7189 5.26245C12.9449 5.75047 13.0218 6.42074 12.902 7.21801C12.8145 7.79974 12.6627 8.30046 12.3767 8.63688C12.0939 8.96937 11.7018 9.11708 11.1987 9.06697L11.0966 9.05436C10.604 8.98151 10.2357 8.76344 10.0284 8.37483C9.82887 8.00046 9.7991 7.50419 9.88765 6.91487C9.9772 6.31991 10.1861 5.69984 10.4707 5.22949C10.613 4.99447 10.7796 4.7877 10.968 4.64152C11.1574 4.49458 11.3798 4.40091 11.6231 4.41853Z" fill="white"/>
</g>
<defs>
<clipPath id="clip0_440_4382">
<rect width="10" height="10" fill="white" transform="translate(4 4)"/>
</clipPath>
</defs>
</svg>
