<svg width="18" height="18" viewBox="0 0 18 18" fill="none" xmlns="http://www.w3.org/2000/svg">
<rect width="18" height="18" rx="5" fill="#00A2BD"/>
<path d="M6.64062 6.29294L6.13086 7.74997H11.8691L11.3594 6.29294C11.2715 6.04294 11.0352 5.87497 10.7695 5.87497H7.23047C6.96484 5.87497 6.72852 6.04294 6.64062 6.29294ZM4.77344 7.84372L5.46094 5.88083C5.72461 5.12888 6.43359 4.62497 7.23047 4.62497H10.7695C11.5664 4.62497 12.2754 5.12888 12.5391 5.88083L13.2266 7.84372C13.6797 8.03122 14 8.47849 14 8.99997V12.75C14 13.0957 13.7207 13.375 13.375 13.375H12.75C12.4043 13.375 12.125 13.0957 12.125 12.75V11.8125H5.875V12.75C5.875 13.0957 5.5957 13.375 5.25 13.375H4.625C4.2793 13.375 4 13.0957 4 12.75V8.99997C4 8.47849 4.32031 8.03122 4.77344 7.84372ZM6.5 9.62497C6.5 9.45921 6.43415 9.30024 6.31694 9.18303C6.19973 9.06582 6.04076 8.99997 5.875 8.99997C5.70924 8.99997 5.55027 9.06582 5.43306 9.18303C5.31585 9.30024 5.25 9.45921 5.25 9.62497C5.25 9.79073 5.31585 9.9497 5.43306 10.0669C5.55027 10.1841 5.70924 10.25 5.875 10.25C6.04076 10.25 6.19973 10.1841 6.31694 10.0669C6.43415 9.9497 6.5 9.79073 6.5 9.62497ZM12.125 10.25C12.2908 10.25 12.4497 10.1841 12.5669 10.0669C12.6842 9.9497 12.75 9.79073 12.75 9.62497C12.75 9.45921 12.6842 9.30024 12.5669 9.18303C12.4497 9.06582 12.2908 8.99997 12.125 8.99997C11.9592 8.99997 11.8003 9.06582 11.6831 9.18303C11.5658 9.30024 11.5 9.45921 11.5 9.62497C11.5 9.79073 11.5658 9.9497 11.6831 10.0669C11.8003 10.1841 11.9592 10.25 12.125 10.25Z" fill="white"/>
</svg>
