<svg width="24" height="24" viewBox="0 0 24 24" fill="none" xmlns="http://www.w3.org/2000/svg">
<path d="M12.9075 5.43162L12.7107 4.81214L12.9075 5.43162ZM4.08958 19.5509L3.89274 20.1703L4.08958 19.5509ZM12.9075 21.7754L12.7107 21.1559L12.9075 21.7754ZM11.0906 21.7754L11.2874 21.1559L11.0906 21.7754ZM19.9085 19.5509L19.7116 18.9314L12.7107 21.1559L12.9075 21.7754L13.1043 22.3948L20.1053 20.1703L19.9085 19.5509ZM11.0906 21.7754L11.2874 21.1559L4.28641 18.9314L4.08958 19.5509L3.89274 20.1703L10.8937 22.3948L11.0906 21.7754ZM1.99805 16.6917H2.64805V6.64357H1.99805H1.34805V16.6917H1.99805ZM5.90652 3.78443L5.70968 4.40391L10.8937 6.0511L11.0906 5.43162L11.2874 4.81214L6.10335 3.16495L5.90652 3.78443ZM12.9075 5.43162L13.1043 6.0511L18.2884 4.40391L18.0915 3.78443L17.8947 3.16495L12.7107 4.81214L12.9075 5.43162ZM22 6.64357H21.35V16.6917H22H22.65V6.64357H22ZM18.0915 3.78443L18.2884 4.40391C19.8038 3.92239 21.35 5.05347 21.35 6.64357H22H22.65C22.65 4.17384 20.2485 2.41706 17.8947 3.16495L18.0915 3.78443ZM11.0906 5.43162L10.8937 6.0511C11.6129 6.2796 12.3852 6.2796 13.1043 6.0511L12.9075 5.43162L12.7107 4.81214C12.2476 4.95926 11.7504 4.95926 11.2874 4.81214L11.0906 5.43162ZM1.99805 6.64357H2.64805C2.64805 5.05347 4.19424 3.92239 5.70968 4.40391L5.90652 3.78443L6.10335 3.16495C3.74959 2.41706 1.34805 4.17384 1.34805 6.64357H1.99805ZM4.08958 19.5509L4.28641 18.9314C3.31076 18.6214 2.64805 17.7154 2.64805 16.6917H1.99805H1.34805C1.34805 18.2818 2.37737 19.6888 3.89274 20.1703L4.08958 19.5509ZM12.9075 21.7754L12.7107 21.1559C12.2476 21.303 11.7504 21.303 11.2874 21.1559L11.0906 21.7754L10.8937 22.3948C11.6129 22.6234 12.3852 22.6234 13.1043 22.3948L12.9075 21.7754ZM19.9085 19.5509L20.1053 20.1703C21.6207 19.6888 22.65 18.2818 22.65 16.6917H22H21.35C21.35 17.7154 20.6873 18.6214 19.7116 18.9314L19.9085 19.5509Z" fill="#1A1A1A"/>
<path d="M12 12V21" stroke="#1A1A1A" stroke-width="1.3" stroke-linecap="round" stroke-linejoin="round"/>
<path d="M19 8L15 9.5" stroke="#1A1A1A" stroke-width="1.3" stroke-linecap="round" stroke-linejoin="round"/>
</svg>
