<svg width="24" height="24" viewBox="0 0 24 24" fill="none" xmlns="http://www.w3.org/2000/svg">
<path d="M12 2C13.9778 2 15.9112 2.58649 17.5557 3.68531C19.2002 4.78412 20.4819 6.34591 21.2388 8.17317C21.9957 10.0004 22.1937 12.0111 21.8079 13.9509C21.422 15.8907 20.4696 17.6726 19.0711 19.0711C17.6725 20.4696 15.8907 21.422 13.9509 21.8079C12.0111 22.1937 10.0004 21.9957 8.17315 21.2388C6.34589 20.4819 4.78411 19.2002 3.68529 17.5557C2.58648 15.9112 2 13.9778 2 12" stroke="#1A1A1A" stroke-width="1.3" stroke-linecap="round" stroke-linejoin="round"/>
<path d="M2 12C2 9.34784 3.05357 6.8043 4.92893 4.92893C6.8043 3.05357 9.34784 2 12 2" stroke="#1A1A1A" stroke-width="1.3" stroke-linecap="round" stroke-linejoin="round" stroke-dasharray="1 3"/>
<path d="M12 8V10C12 11.6569 13.3431 13 15 13H17" stroke="#1A1A1A" stroke-width="1.3" stroke-linecap="round" stroke-linejoin="round"/>
</svg>
