<svg width="24" height="24" viewBox="0 0 24 24" fill="none" xmlns="http://www.w3.org/2000/svg">
<path d="M12 2.65039C16.069 2.65039 19.3496 5.89436 19.3496 9.875C19.3496 10.4747 19.1643 11.2256 18.8135 12.0918C18.4658 12.9503 17.9732 13.8814 17.3984 14.8281C16.2489 16.7215 14.8017 18.6314 13.625 20.0859C12.7743 21.1375 11.2257 21.1375 10.375 20.0859C9.19828 18.6314 7.7511 16.7215 6.60156 14.8281C6.02679 13.8814 5.53423 12.9503 5.18652 12.0918C4.83571 11.2256 4.65039 10.4747 4.65039 9.875C4.65039 5.89436 7.93102 2.65039 12 2.65039Z" stroke="#1A1A1A" stroke-width="1.3" stroke-linecap="round" stroke-linejoin="round"/>
<circle cx="12" cy="10" r="2.35" stroke="#1A1A1A" stroke-width="1.3" stroke-linecap="round" stroke-linejoin="round"/>
</svg>
