<svg width="24" height="24" viewBox="0 0 24 24" fill="none" xmlns="http://www.w3.org/2000/svg">
<path d="M5 14C7.2094 14 9.00098 15.5678 9.00098 17.501C9.00094 17.8239 8.807 18.1113 8.51835 18.2562C7.59859 18.7177 6.36171 19.001 5.00098 19.001C3.63951 19.001 2.40158 18.7181 1.48152 18.2562C1.19292 18.1114 1.00003 17.8239 1 17.501C1 15.5679 2.79074 14.0001 5 14Z" fill="#00A2BD"/>
<path d="M19 14C21.2094 14 23.001 15.5678 23.001 17.501C23.0009 17.8239 22.807 18.1113 22.5184 18.2562C21.5986 18.7177 20.3617 19.001 19.001 19.001C17.6395 19.001 16.4016 18.7181 15.4815 18.2562C15.1929 18.1114 15 17.8239 15 17.501C15 15.5679 16.7907 14.0001 19 14Z" fill="#00A2BD"/>
<circle cx="12" cy="6" r="4" fill="#00A2BD"/>
<circle cx="5" cy="9" r="3" fill="#00A2BD"/>
<circle cx="19" cy="9" r="3" fill="#00A2BD"/>
<path d="M12 13C15.8661 13 19.001 15.8214 19.001 19.3008C19.0009 19.8828 18.6562 20.4036 18.1384 20.6694C16.5306 21.495 14.3728 22.001 12 22.001C9.62784 22.001 7.47017 21.4957 5.86242 20.6707C5.34407 20.4048 5.00003 19.8834 5 19.3008C5 15.8214 8.13398 13.0001 12 13Z" fill="#00A2BD"/>
<path d="M12 13V12.35H12L12 13ZM19.001 19.3008L19.651 19.3008V19.3008H19.001ZM12 22.001L12 22.651H12V22.001ZM5 19.3008H4.35V19.3008L5 19.3008ZM5.86242 20.6707L5.56567 21.2491L5.86242 20.6707ZM18.1384 20.6694L17.8415 20.0912L18.1384 20.6694ZM12 13V13.65C15.5733 13.65 18.351 16.2431 18.351 19.3008H19.001H19.651C19.651 15.3997 16.159 12.35 12 12.35V13ZM18.1384 20.6694L17.8415 20.0912C16.3402 20.862 14.2873 21.351 12 21.351V22.001V22.651C14.4582 22.651 16.721 22.1279 18.4353 21.2477L18.1384 20.6694ZM12 22.001L12 21.351C9.71315 21.351 7.66041 20.8628 6.15917 20.0924L5.86242 20.6707L5.56567 21.2491C7.27994 22.1287 9.54252 22.651 12 22.651L12 22.001ZM5 19.3008H5.65C5.65 16.2431 8.42695 13.6501 12 13.65L12 13L12 12.35C7.84101 12.3501 4.35 15.3998 4.35 19.3008H5ZM5.86242 20.6707L6.15917 20.0924C5.83984 19.9286 5.65002 19.6202 5.65 19.3008L5 19.3008L4.35 19.3008C4.35004 20.1466 4.84831 20.8809 5.56567 21.2491L5.86242 20.6707ZM19.001 19.3008L18.351 19.3008C18.351 19.6188 18.1612 19.9271 17.8415 20.0912L18.1384 20.6694L18.4353 21.2477C19.1512 20.8801 19.6509 20.1468 19.651 19.3008L19.001 19.3008Z" fill="white"/>
</svg>
