<svg width="1439" height="7955" viewBox="0 0 1439 7955" fill="none" xmlns="http://www.w3.org/2000/svg">
<path d="M40 40H1399V7915H40V40Z" fill="#FAFAFA"/>
<path d="M40 40V20H20V40H40ZM1399 40H1419V20H1399V40ZM1399 7915V7935H1419V7915H1399ZM40 7915H20V7935H40V7915ZM40 40V60H1399V40V20H40V40ZM1399 40H1379V7915H1399H1419V40H1399ZM1399 7915V7895H40V7915V7935H1399V7915ZM40 7915H60V40H40H20V7915H40Z" fill="#00F7FF"/>
<rect x="125.5" y="357.5" width="1167" height="434" rx="4.5" fill="white"/>
<rect x="125.5" y="357.5" width="1167" height="434" rx="4.5" stroke="#8A38F5" stroke-dasharray="10 5"/>
<mask id="path-4-inside-1_67_7" fill="white">
<path d="M168 397C168 390.373 173.373 385 180 385H468C474.627 385 480 390.373 480 397V421C480 427.627 474.627 433 468 433H180C173.373 433 168 427.627 168 421V397Z"/>
</mask>
<path d="M168 397C168 390.373 173.373 385 180 385H468C474.627 385 480 390.373 480 397V421C480 427.627 474.627 433 468 433H180C173.373 433 168 427.627 168 421V397Z" fill="white"/>
<path d="M180 385V386H468V385V384H180V385ZM480 397H479V421H480H481V397H480ZM468 433V432H180V433V434H468V433ZM168 421H169V397H168H167V421H168ZM180 433V432C173.925 432 169 427.075 169 421H168H167C167 428.18 172.82 434 180 434V433ZM480 421H479C479 427.075 474.075 432 468 432V433V434C475.18 434 481 428.18 481 421H480ZM468 385V386C474.075 386 479 390.925 479 397H480H481C481 389.82 475.18 384 468 384V385ZM180 385V384C172.82 384 167 389.82 167 397H168H169C169 390.925 173.925 386 180 386V385Z" fill="#EDEDED" mask="url(#path-4-inside-1_67_7)"/>
<path d="M190.398 405.25H194.234V406.202H190.398V405.25ZM190.398 409.254H194.234V410.206H190.398V409.254ZM188.074 403.402C188.69 403.402 189.236 403.584 189.712 403.948C190.188 404.303 190.557 404.811 190.818 405.474C191.089 406.137 191.224 406.916 191.224 407.812C191.224 408.708 191.089 409.487 190.818 410.15C190.557 410.813 190.188 411.326 189.712 411.69C189.236 412.054 188.69 412.236 188.074 412.236C187.467 412.236 186.921 412.054 186.436 411.69C185.96 411.326 185.587 410.813 185.316 410.15C185.055 409.487 184.924 408.708 184.924 407.812C184.924 406.916 185.055 406.137 185.316 405.474C185.587 404.811 185.96 404.303 186.436 403.948C186.921 403.584 187.467 403.402 188.074 403.402ZM188.074 404.438C187.673 404.438 187.318 404.578 187.01 404.858C186.702 405.129 186.459 405.521 186.282 406.034C186.114 406.538 186.03 407.131 186.03 407.812C186.03 408.493 186.114 409.091 186.282 409.604C186.459 410.108 186.702 410.5 187.01 410.78C187.318 411.06 187.673 411.2 188.074 411.2C188.485 411.2 188.844 411.06 189.152 410.78C189.46 410.5 189.698 410.108 189.866 409.604C190.043 409.091 190.132 408.493 190.132 407.812C190.132 407.131 190.043 406.538 189.866 406.034C189.698 405.521 189.46 405.129 189.152 404.858C188.844 404.578 188.485 404.438 188.074 404.438ZM193.968 402.422H195.116V415.106H193.968V402.422ZM206.141 402.422H207.247V410.43H206.141V402.422ZM204.069 405.866H206.463V406.818H204.069V405.866ZM203.425 402.674H204.517V409.982H203.425V402.674ZM196.509 403.934H202.921V404.858H196.509V403.934ZM199.729 405.516C200.261 405.516 200.728 405.605 201.129 405.782C201.54 405.959 201.857 406.211 202.081 406.538C202.314 406.865 202.431 407.247 202.431 407.686C202.431 408.125 202.314 408.507 202.081 408.834C201.857 409.151 201.54 409.399 201.129 409.576C200.728 409.753 200.261 409.842 199.729 409.842C199.206 409.842 198.74 409.753 198.329 409.576C197.918 409.399 197.601 409.151 197.377 408.834C197.153 408.507 197.041 408.125 197.041 407.686C197.041 407.247 197.153 406.865 197.377 406.538C197.601 406.211 197.918 405.959 198.329 405.782C198.74 405.605 199.206 405.516 199.729 405.516ZM199.729 406.384C199.244 406.384 198.847 406.501 198.539 406.734C198.231 406.967 198.077 407.285 198.077 407.686C198.077 408.078 198.226 408.395 198.525 408.638C198.833 408.871 199.234 408.988 199.729 408.988C200.224 408.988 200.62 408.871 200.919 408.638C201.227 408.395 201.381 408.078 201.381 407.686C201.381 407.285 201.227 406.967 200.919 406.734C200.62 406.501 200.224 406.384 199.729 406.384ZM199.155 402.52H200.303V404.466H199.155V402.52ZM203.089 410.654C204.414 410.654 205.45 410.845 206.197 411.228C206.944 411.611 207.317 412.157 207.317 412.866C207.317 413.566 206.944 414.107 206.197 414.49C205.45 414.873 204.414 415.064 203.089 415.064C201.764 415.064 200.728 414.873 199.981 414.49C199.234 414.107 198.861 413.566 198.861 412.866C198.861 412.157 199.234 411.611 199.981 411.228C200.728 410.845 201.764 410.654 203.089 410.654ZM203.089 411.55C202.118 411.55 201.362 411.662 200.821 411.886C200.28 412.11 200.009 412.437 200.009 412.866C200.009 413.286 200.28 413.608 200.821 413.832C201.362 414.056 202.118 414.168 203.089 414.168C204.05 414.168 204.802 414.056 205.343 413.832C205.884 413.608 206.155 413.286 206.155 412.866C206.155 412.437 205.884 412.11 205.343 411.886C204.802 411.662 204.05 411.55 203.089 411.55ZM212.646 403.024H220.794V403.976H212.646V403.024ZM211.19 407.546H222.67V408.498H211.19V407.546ZM216.328 408.204H217.49V411.172H216.328V408.204ZM220.038 403.024H221.186V403.948C221.186 404.471 221.168 405.063 221.13 405.726C221.093 406.379 220.972 407.14 220.766 408.008L219.632 407.882C219.838 407.023 219.954 406.281 219.982 405.656C220.02 405.031 220.038 404.461 220.038 403.948V403.024ZM212.38 410.808H221.256V415.092H220.094V411.746H212.38V410.808ZM231.637 402.422H232.799V415.078H231.637V402.422ZM232.491 407.56H234.815V408.526H232.491V407.56ZM228.403 403.78H229.537C229.537 404.984 229.341 406.137 228.949 407.238C228.557 408.33 227.941 409.343 227.101 410.276C226.261 411.2 225.155 412.003 223.783 412.684L223.139 411.788C224.315 411.2 225.29 410.514 226.065 409.73C226.849 408.937 227.432 408.059 227.815 407.098C228.207 406.127 228.403 405.082 228.403 403.962V403.78ZM223.727 403.78H228.991V404.746H223.727V403.78Z" fill="#8E8E93"/>
<path d="M459.833 405.667L454 411.5L448.167 405.667" stroke="#1A1A1A" stroke-width="1.3" stroke-linecap="round"/>
<mask id="path-8-inside-2_67_7" fill="white">
<path d="M526 397C526 390.373 531.373 385 538 385H826C832.627 385 838 390.373 838 397V421C838 427.627 832.627 433 826 433H538C531.373 433 526 427.627 526 421V397Z"/>
</mask>
<path d="M526 397C526 390.373 531.373 385 538 385H826C832.627 385 838 390.373 838 397V421C838 427.627 832.627 433 826 433H538C531.373 433 526 427.627 526 421V397Z" fill="white"/>
<path d="M538 385V386H826V385V384H538V385ZM838 397H837V421H838H839V397H838ZM826 433V432H538V433V434H826V433ZM526 421H527V397H526H525V421H526ZM538 433V432C531.925 432 527 427.075 527 421H526H525C525 428.18 530.82 434 538 434V433ZM838 421H837C837 427.075 832.075 432 826 432V433V434C833.18 434 839 428.18 839 421H838ZM826 385V386C832.075 386 837 390.925 837 397H838H839C839 389.82 833.18 384 826 384V385ZM538 385V384C530.82 384 525 389.82 525 397H526H527C527 390.925 531.925 386 538 386V385Z" fill="#EDEDED" mask="url(#path-8-inside-2_67_7)"/>
<path d="M543.414 403.668H549.238V411.914H543.414V403.668ZM548.118 404.592H544.562V410.976H548.118V404.592ZM551.898 402.422H553.06V415.106H551.898V402.422ZM556.035 403.024H564.183V403.976H556.035V403.024ZM554.579 407.546H566.059V408.498H554.579V407.546ZM559.717 408.204H560.879V411.172H559.717V408.204ZM563.427 403.024H564.575V403.948C564.575 404.471 564.556 405.063 564.519 405.726C564.482 406.379 564.36 407.14 564.155 408.008L563.021 407.882C563.226 407.023 563.343 406.281 563.371 405.656C563.408 405.031 563.427 404.461 563.427 403.948V403.024ZM555.769 410.808H564.645V415.092H563.483V411.746H555.769V410.808Z" fill="#1A1A1A"/>
<path d="M817.833 405.667L812 411.5L806.167 405.667" stroke="#1A1A1A" stroke-width="1.3" stroke-linecap="round"/>
<path d="M538 441.5H826C832.351 441.5 837.5 446.649 837.5 453V733C837.5 739.351 832.351 744.5 826 744.5H538C531.649 744.5 526.5 739.351 526.5 733V453C526.5 446.649 531.649 441.5 538 441.5Z" fill="white"/>
<path d="M538 441.5H826C832.351 441.5 837.5 446.649 837.5 453V733C837.5 739.351 832.351 744.5 826 744.5H538C531.649 744.5 526.5 739.351 526.5 733V453C526.5 446.649 531.649 441.5 538 441.5Z" stroke="#EDEDED"/>
<path d="M534 459C534 453.477 538.477 449 544 449H820C825.523 449 830 453.477 830 459V487C830 492.523 825.523 497 820 497H544C538.477 497 534 492.523 534 487V459Z" fill="#F9F9F9"/>
<circle cx="559.167" cy="472.167" r="5.83333" stroke="#8E8E93" stroke-width="1.08333" stroke-linecap="round"/>
<path d="M563.333 476.333L567.5 480.5" stroke="#8E8E93" stroke-width="1.08333" stroke-linecap="round"/>
<path d="M579.74 469.488H582.218V470.44H579.74V469.488ZM579.74 473.338H582.218V474.304H579.74V473.338ZM584.346 466.422H585.466V479.092H584.346V466.422ZM581.854 466.688H582.96V478.448H581.854V466.688ZM577.542 467.486C578.093 467.486 578.569 467.663 578.97 468.018C579.381 468.373 579.698 468.881 579.922 469.544C580.146 470.207 580.258 470.986 580.258 471.882C580.258 472.787 580.146 473.571 579.922 474.234C579.698 474.897 579.381 475.41 578.97 475.774C578.569 476.129 578.093 476.306 577.542 476.306C577.01 476.306 576.539 476.129 576.128 475.774C575.727 475.41 575.414 474.897 575.19 474.234C574.966 473.571 574.854 472.787 574.854 471.882C574.854 470.986 574.966 470.207 575.19 469.544C575.414 468.881 575.727 468.373 576.128 468.018C576.539 467.663 577.01 467.486 577.542 467.486ZM577.542 468.564C577.215 468.564 576.926 468.699 576.674 468.97C576.431 469.241 576.245 469.623 576.114 470.118C575.983 470.613 575.918 471.201 575.918 471.882C575.918 472.563 575.983 473.156 576.114 473.66C576.245 474.155 576.431 474.537 576.674 474.808C576.926 475.079 577.215 475.214 577.542 475.214C577.887 475.214 578.181 475.079 578.424 474.808C578.667 474.537 578.853 474.155 578.984 473.66C579.124 473.156 579.194 472.563 579.194 471.882C579.194 471.201 579.124 470.613 578.984 470.118C578.853 469.623 578.667 469.241 578.424 468.97C578.181 468.699 577.887 468.564 577.542 468.564ZM587.363 478.084C587.12 478.084 586.915 478 586.747 477.832C586.579 477.664 586.495 477.459 586.495 477.216C586.495 476.973 586.579 476.768 586.747 476.6C586.915 476.432 587.12 476.348 587.363 476.348C587.596 476.348 587.792 476.432 587.951 476.6C588.119 476.768 588.203 476.973 588.203 477.216C588.203 477.459 588.119 477.664 587.951 477.832C587.792 478 587.596 478.084 587.363 478.084ZM587.363 472.092C587.12 472.092 586.915 472.008 586.747 471.84C586.579 471.672 586.495 471.467 586.495 471.224C586.495 470.981 586.579 470.776 586.747 470.608C586.915 470.44 587.12 470.356 587.363 470.356C587.596 470.356 587.792 470.44 587.951 470.608C588.119 470.776 588.203 470.981 588.203 471.224C588.203 471.467 588.119 471.672 587.951 471.84C587.792 472.008 587.596 472.092 587.363 472.092ZM599.86 466.422H601.022V479.106H599.86V466.422ZM600.756 471.42H603.094V472.386H600.756V471.42ZM591.838 474.962H592.832C593.606 474.962 594.316 474.953 594.96 474.934C595.613 474.906 596.238 474.859 596.836 474.794C597.442 474.729 598.058 474.64 598.684 474.528L598.824 475.522C598.17 475.634 597.536 475.723 596.92 475.788C596.313 475.853 595.678 475.895 595.016 475.914C594.353 475.933 593.625 475.942 592.832 475.942H591.838V474.962ZM591.838 467.654H597.704V468.606H592.986V475.41H591.838V467.654ZM611.837 466.422H612.999V473.954H611.837V466.422ZM612.677 469.572H614.861V470.538H612.677V469.572ZM608.953 474.122C609.793 474.122 610.525 474.225 611.151 474.43C611.776 474.626 612.261 474.911 612.607 475.284C612.952 475.648 613.125 476.087 613.125 476.6C613.125 477.113 612.952 477.557 612.607 477.93C612.261 478.294 611.776 478.574 611.151 478.77C610.525 478.975 609.793 479.078 608.953 479.078C608.103 479.078 607.366 478.975 606.741 478.77C606.115 478.574 605.63 478.294 605.285 477.93C604.949 477.557 604.781 477.113 604.781 476.6C604.781 476.087 604.949 475.648 605.285 475.284C605.63 474.911 606.115 474.626 606.741 474.43C607.366 474.225 608.103 474.122 608.953 474.122ZM608.953 475.074C608.346 475.074 607.814 475.135 607.357 475.256C606.899 475.377 606.545 475.555 606.293 475.788C606.041 476.012 605.915 476.283 605.915 476.6C605.915 476.917 606.041 477.193 606.293 477.426C606.545 477.65 606.899 477.827 607.357 477.958C607.814 478.079 608.346 478.14 608.953 478.14C609.569 478.14 610.101 478.079 610.549 477.958C611.006 477.827 611.356 477.65 611.599 477.426C611.851 477.193 611.977 476.917 611.977 476.6C611.977 476.283 611.851 476.012 611.599 475.788C611.356 475.555 611.006 475.377 610.549 475.256C610.101 475.135 609.569 475.074 608.953 475.074ZM603.773 467.206H604.935V472.274H603.773V467.206ZM603.773 471.854H604.781C605.695 471.854 606.629 471.817 607.581 471.742C608.533 471.658 609.522 471.513 610.549 471.308L610.689 472.26C609.625 472.475 608.607 472.624 607.637 472.708C606.675 472.792 605.723 472.834 604.781 472.834H603.773V471.854ZM626.35 466.422H627.512V479.078H626.35V466.422ZM627.204 471.56H629.528V472.526H627.204V471.56ZM623.116 467.78H624.25C624.25 468.984 624.054 470.137 623.662 471.238C623.27 472.33 622.654 473.343 621.814 474.276C620.974 475.2 619.868 476.003 618.496 476.684L617.852 475.788C619.028 475.2 620.003 474.514 620.778 473.73C621.562 472.937 622.145 472.059 622.528 471.098C622.92 470.127 623.116 469.082 623.116 467.962V467.78ZM618.44 467.78H623.704V468.746H618.44V467.78ZM634.631 467.43H635.653V467.822C635.653 468.223 635.564 468.606 635.387 468.97C635.219 469.325 634.981 469.651 634.673 469.95C634.365 470.239 634.001 470.496 633.581 470.72C633.17 470.935 632.722 471.117 632.237 471.266C631.752 471.415 631.248 471.523 630.725 471.588L630.291 470.664C630.748 470.617 631.187 470.533 631.607 470.412C632.036 470.291 632.433 470.146 632.797 469.978C633.17 469.801 633.492 469.6 633.763 469.376C634.034 469.152 634.244 468.909 634.393 468.648C634.552 468.387 634.631 468.111 634.631 467.822V467.43ZM635.107 467.43H636.129V467.822C636.129 468.102 636.204 468.377 636.353 468.648C636.512 468.909 636.726 469.152 636.997 469.376C637.277 469.591 637.599 469.787 637.963 469.964C638.327 470.141 638.719 470.291 639.139 470.412C639.568 470.533 640.012 470.617 640.469 470.664L640.035 471.588C639.512 471.523 639.008 471.415 638.523 471.266C638.038 471.117 637.585 470.93 637.165 470.706C636.754 470.482 636.395 470.225 636.087 469.936C635.779 469.637 635.536 469.311 635.359 468.956C635.191 468.601 635.107 468.223 635.107 467.822V467.43ZM630.711 466.94H640.063V467.878H630.711V466.94ZM629.661 472.778H641.127V473.73H629.661V472.778ZM634.799 470.874H635.947V473.24H634.799V470.874ZM630.935 474.976H639.685V479.092H638.523V475.914H630.935V474.976ZM649.97 469.25H653.806V470.202H649.97V469.25ZM649.97 473.254H653.806V474.206H649.97V473.254ZM647.646 467.402C648.262 467.402 648.808 467.584 649.284 467.948C649.76 468.303 650.129 468.811 650.39 469.474C650.661 470.137 650.796 470.916 650.796 471.812C650.796 472.708 650.661 473.487 650.39 474.15C650.129 474.813 649.76 475.326 649.284 475.69C648.808 476.054 648.262 476.236 647.646 476.236C647.04 476.236 646.494 476.054 646.008 475.69C645.532 475.326 645.159 474.813 644.888 474.15C644.627 473.487 644.496 472.708 644.496 471.812C644.496 470.916 644.627 470.137 644.888 469.474C645.159 468.811 645.532 468.303 646.008 467.948C646.494 467.584 647.04 467.402 647.646 467.402ZM647.646 468.438C647.245 468.438 646.89 468.578 646.582 468.858C646.274 469.129 646.032 469.521 645.854 470.034C645.686 470.538 645.602 471.131 645.602 471.812C645.602 472.493 645.686 473.091 645.854 473.604C646.032 474.108 646.274 474.5 646.582 474.78C646.89 475.06 647.245 475.2 647.646 475.2C648.057 475.2 648.416 475.06 648.724 474.78C649.032 474.5 649.27 474.108 649.438 473.604C649.616 473.091 649.704 472.493 649.704 471.812C649.704 471.131 649.616 470.538 649.438 470.034C649.27 469.521 649.032 469.129 648.724 468.858C648.416 468.578 648.057 468.438 647.646 468.438ZM653.54 466.422H654.688V479.106H653.54V466.422ZM665.713 466.422H666.819V474.43H665.713V466.422ZM663.641 469.866H666.035V470.818H663.641V469.866ZM662.997 466.674H664.089V473.982H662.997V466.674ZM656.081 467.934H662.493V468.858H656.081V467.934ZM659.301 469.516C659.833 469.516 660.3 469.605 660.701 469.782C661.112 469.959 661.429 470.211 661.653 470.538C661.887 470.865 662.003 471.247 662.003 471.686C662.003 472.125 661.887 472.507 661.653 472.834C661.429 473.151 661.112 473.399 660.701 473.576C660.3 473.753 659.833 473.842 659.301 473.842C658.779 473.842 658.312 473.753 657.901 473.576C657.491 473.399 657.173 473.151 656.949 472.834C656.725 472.507 656.613 472.125 656.613 471.686C656.613 471.247 656.725 470.865 656.949 470.538C657.173 470.211 657.491 469.959 657.901 469.782C658.312 469.605 658.779 469.516 659.301 469.516ZM659.301 470.384C658.816 470.384 658.419 470.501 658.111 470.734C657.803 470.967 657.649 471.285 657.649 471.686C657.649 472.078 657.799 472.395 658.097 472.638C658.405 472.871 658.807 472.988 659.301 472.988C659.796 472.988 660.193 472.871 660.491 472.638C660.799 472.395 660.953 472.078 660.953 471.686C660.953 471.285 660.799 470.967 660.491 470.734C660.193 470.501 659.796 470.384 659.301 470.384ZM658.727 466.52H659.875V468.466H658.727V466.52ZM662.661 474.654C663.987 474.654 665.023 474.845 665.769 475.228C666.516 475.611 666.889 476.157 666.889 476.866C666.889 477.566 666.516 478.107 665.769 478.49C665.023 478.873 663.987 479.064 662.661 479.064C661.336 479.064 660.3 478.873 659.553 478.49C658.807 478.107 658.433 477.566 658.433 476.866C658.433 476.157 658.807 475.611 659.553 475.228C660.3 474.845 661.336 474.654 662.661 474.654ZM662.661 475.55C661.691 475.55 660.935 475.662 660.393 475.886C659.852 476.11 659.581 476.437 659.581 476.866C659.581 477.286 659.852 477.608 660.393 477.832C660.935 478.056 661.691 478.168 662.661 478.168C663.623 478.168 664.374 478.056 664.915 477.832C665.457 477.608 665.727 477.286 665.727 476.866C665.727 476.437 665.457 476.11 664.915 475.886C664.374 475.662 663.623 475.55 662.661 475.55ZM669.724 476.236L668.156 480.002H667.302L668.324 476.236H669.724ZM675.478 474.262H676.668V479.092H675.478V474.262ZM679.832 474.262H681.008V479.092H679.832V474.262ZM672.524 473.632H684.004V474.584H672.524V473.632ZM678.236 466.926C679.123 466.926 679.897 467.043 680.56 467.276C681.223 467.5 681.741 467.817 682.114 468.228C682.487 468.639 682.674 469.129 682.674 469.698C682.674 470.249 682.487 470.734 682.114 471.154C681.741 471.565 681.223 471.882 680.56 472.106C679.897 472.33 679.123 472.442 678.236 472.442C677.368 472.442 676.598 472.33 675.926 472.106C675.263 471.882 674.745 471.565 674.372 471.154C673.999 470.734 673.812 470.249 673.812 469.698C673.812 469.129 673.999 468.639 674.372 468.228C674.745 467.817 675.263 467.5 675.926 467.276C676.598 467.043 677.368 466.926 678.236 466.926ZM678.236 467.864C677.601 467.864 677.037 467.939 676.542 468.088C676.057 468.237 675.679 468.452 675.408 468.732C675.137 469.003 675.002 469.325 675.002 469.698C675.002 470.062 675.137 470.384 675.408 470.664C675.679 470.935 676.057 471.145 676.542 471.294C677.037 471.434 677.601 471.504 678.236 471.504C678.889 471.504 679.459 471.434 679.944 471.294C680.429 471.145 680.807 470.935 681.078 470.664C681.349 470.384 681.484 470.062 681.484 469.698C681.484 469.325 681.349 469.003 681.078 468.732C680.807 468.452 680.429 468.237 679.944 468.088C679.459 467.939 678.889 467.864 678.236 467.864ZM693.671 466.436H694.833V473.394H693.671V466.436ZM691.305 469.054H694.035V470.02H691.305V469.054ZM686.601 473.996H687.749V475.508H693.685V473.996H694.833V478.924H686.601V473.996ZM687.749 476.432V477.972H693.685V476.432H687.749ZM684.949 472.106H685.901C686.619 472.106 687.287 472.097 687.903 472.078C688.519 472.059 689.121 472.027 689.709 471.98C690.306 471.924 690.922 471.845 691.557 471.742L691.655 472.694C691.001 472.797 690.371 472.876 689.765 472.932C689.167 472.979 688.556 473.011 687.931 473.03C687.315 473.049 686.638 473.058 685.901 473.058H684.949V472.106ZM684.921 466.954H690.521V470.398H686.097V472.89H684.949V469.502H689.387V467.892H684.921V466.954ZM699.476 467.626H700.582V470.706H703.242V467.626H704.32V475.928H699.476V467.626ZM700.582 471.644V474.976H703.242V471.644H700.582ZM708.674 466.422H709.794V479.092H708.674V466.422ZM706.644 471.434H709.08V472.4H706.644V471.434ZM705.86 466.688H706.966V478.448H705.86V466.688ZM719.573 466.422H720.735V473.954H719.573V466.422ZM720.413 469.572H722.597V470.538H720.413V469.572ZM716.689 474.122C717.529 474.122 718.262 474.225 718.887 474.43C719.512 474.626 719.998 474.911 720.343 475.284C720.688 475.648 720.861 476.087 720.861 476.6C720.861 477.113 720.688 477.557 720.343 477.93C719.998 478.294 719.512 478.574 718.887 478.77C718.262 478.975 717.529 479.078 716.689 479.078C715.84 479.078 715.102 478.975 714.477 478.77C713.852 478.574 713.366 478.294 713.021 477.93C712.685 477.557 712.517 477.113 712.517 476.6C712.517 476.087 712.685 475.648 713.021 475.284C713.366 474.911 713.852 474.626 714.477 474.43C715.102 474.225 715.84 474.122 716.689 474.122ZM716.689 475.074C716.082 475.074 715.55 475.135 715.093 475.256C714.636 475.377 714.281 475.555 714.029 475.788C713.777 476.012 713.651 476.283 713.651 476.6C713.651 476.917 713.777 477.193 714.029 477.426C714.281 477.65 714.636 477.827 715.093 477.958C715.55 478.079 716.082 478.14 716.689 478.14C717.305 478.14 717.837 478.079 718.285 477.958C718.742 477.827 719.092 477.65 719.335 477.426C719.587 477.193 719.713 476.917 719.713 476.6C719.713 476.283 719.587 476.012 719.335 475.788C719.092 475.555 718.742 475.377 718.285 475.256C717.837 475.135 717.305 475.074 716.689 475.074ZM711.509 467.206H712.671V472.274H711.509V467.206ZM711.509 471.854H712.517C713.432 471.854 714.365 471.817 715.317 471.742C716.269 471.658 717.258 471.513 718.285 471.308L718.425 472.26C717.361 472.475 716.344 472.624 715.373 472.708C714.412 472.792 713.46 472.834 712.517 472.834H711.509V471.854ZM731.216 469.25H735.052V470.202H731.216V469.25ZM731.216 473.254H735.052V474.206H731.216V473.254ZM728.892 467.402C729.508 467.402 730.054 467.584 730.53 467.948C731.006 468.303 731.375 468.811 731.636 469.474C731.907 470.137 732.042 470.916 732.042 471.812C732.042 472.708 731.907 473.487 731.636 474.15C731.375 474.813 731.006 475.326 730.53 475.69C730.054 476.054 729.508 476.236 728.892 476.236C728.286 476.236 727.74 476.054 727.254 475.69C726.778 475.326 726.405 474.813 726.134 474.15C725.873 473.487 725.742 472.708 725.742 471.812C725.742 470.916 725.873 470.137 726.134 469.474C726.405 468.811 726.778 468.303 727.254 467.948C727.74 467.584 728.286 467.402 728.892 467.402ZM728.892 468.438C728.491 468.438 728.136 468.578 727.828 468.858C727.52 469.129 727.278 469.521 727.1 470.034C726.932 470.538 726.848 471.131 726.848 471.812C726.848 472.493 726.932 473.091 727.1 473.604C727.278 474.108 727.52 474.5 727.828 474.78C728.136 475.06 728.491 475.2 728.892 475.2C729.303 475.2 729.662 475.06 729.97 474.78C730.278 474.5 730.516 474.108 730.684 473.604C730.862 473.091 730.95 472.493 730.95 471.812C730.95 471.131 730.862 470.538 730.684 470.034C730.516 469.521 730.278 469.129 729.97 468.858C729.662 468.578 729.303 468.438 728.892 468.438ZM734.786 466.422H735.934V479.106H734.786V466.422ZM746.959 466.422H748.065V474.43H746.959V466.422ZM744.887 469.866H747.281V470.818H744.887V469.866ZM744.243 466.674H745.335V473.982H744.243V466.674ZM737.327 467.934H743.739V468.858H737.327V467.934ZM740.547 469.516C741.079 469.516 741.546 469.605 741.947 469.782C742.358 469.959 742.675 470.211 742.899 470.538C743.133 470.865 743.249 471.247 743.249 471.686C743.249 472.125 743.133 472.507 742.899 472.834C742.675 473.151 742.358 473.399 741.947 473.576C741.546 473.753 741.079 473.842 740.547 473.842C740.025 473.842 739.558 473.753 739.147 473.576C738.737 473.399 738.419 473.151 738.195 472.834C737.971 472.507 737.859 472.125 737.859 471.686C737.859 471.247 737.971 470.865 738.195 470.538C738.419 470.211 738.737 469.959 739.147 469.782C739.558 469.605 740.025 469.516 740.547 469.516ZM740.547 470.384C740.062 470.384 739.665 470.501 739.357 470.734C739.049 470.967 738.895 471.285 738.895 471.686C738.895 472.078 739.045 472.395 739.343 472.638C739.651 472.871 740.053 472.988 740.547 472.988C741.042 472.988 741.439 472.871 741.737 472.638C742.045 472.395 742.199 472.078 742.199 471.686C742.199 471.285 742.045 470.967 741.737 470.734C741.439 470.501 741.042 470.384 740.547 470.384ZM739.973 466.52H741.121V468.466H739.973V466.52ZM743.907 474.654C745.233 474.654 746.269 474.845 747.015 475.228C747.762 475.611 748.135 476.157 748.135 476.866C748.135 477.566 747.762 478.107 747.015 478.49C746.269 478.873 745.233 479.064 743.907 479.064C742.582 479.064 741.546 478.873 740.799 478.49C740.053 478.107 739.679 477.566 739.679 476.866C739.679 476.157 740.053 475.611 740.799 475.228C741.546 474.845 742.582 474.654 743.907 474.654ZM743.907 475.55C742.937 475.55 742.181 475.662 741.639 475.886C741.098 476.11 740.827 476.437 740.827 476.866C740.827 477.286 741.098 477.608 741.639 477.832C742.181 478.056 742.937 478.168 743.907 478.168C744.869 478.168 745.62 478.056 746.161 477.832C746.703 477.608 746.973 477.286 746.973 476.866C746.973 476.437 746.703 476.11 746.161 475.886C745.62 475.662 744.869 475.55 743.907 475.55Z" fill="#8E8E93"/>
<path d="M552.332 522.422H553.438V535.092H552.332V522.422ZM550.19 527.504H552.626V528.456H550.19V527.504ZM549.462 522.702H550.54V534.434H549.462V522.702ZM543.148 530.99H543.974C544.599 530.99 545.164 530.985 545.668 530.976C546.181 530.957 546.667 530.92 547.124 530.864C547.591 530.808 548.067 530.729 548.552 530.626L548.664 531.592C548.16 531.695 547.67 531.774 547.194 531.83C546.727 531.886 546.233 531.923 545.71 531.942C545.197 531.961 544.618 531.97 543.974 531.97H543.148V530.99ZM543.148 523.962H547.852V524.914H544.31V531.438H543.148V523.962ZM563.245 522.436H564.407V531.928H563.245V522.436ZM564.043 526.594H566.269V527.56H564.043V526.594ZM554.607 523.976H562.083V524.914H554.607V523.976ZM558.345 525.6C558.942 525.6 559.47 525.703 559.927 525.908C560.384 526.104 560.739 526.379 560.991 526.734C561.243 527.079 561.369 527.49 561.369 527.966C561.369 528.442 561.243 528.857 560.991 529.212C560.739 529.557 560.384 529.828 559.927 530.024C559.47 530.22 558.942 530.318 558.345 530.318C557.748 530.318 557.22 530.22 556.763 530.024C556.306 529.828 555.946 529.557 555.685 529.212C555.433 528.857 555.307 528.442 555.307 527.966C555.307 527.49 555.433 527.079 555.685 526.734C555.946 526.379 556.306 526.104 556.763 525.908C557.22 525.703 557.748 525.6 558.345 525.6ZM558.345 526.51C557.776 526.51 557.314 526.645 556.959 526.916C556.604 527.177 556.427 527.527 556.427 527.966C556.427 528.405 556.604 528.755 556.959 529.016C557.314 529.277 557.776 529.408 558.345 529.408C558.924 529.408 559.386 529.277 559.731 529.016C560.086 528.755 560.263 528.405 560.263 527.966C560.263 527.527 560.086 527.177 559.731 526.916C559.386 526.645 558.924 526.51 558.345 526.51ZM557.771 522.436H558.933V524.452H557.771V522.436ZM556.525 533.86H564.967V534.812H556.525V533.86ZM556.525 531.172H557.673V534.252H556.525V531.172ZM567.116 523.528H573.024V529.422H567.116V523.528ZM571.89 524.466H568.25V528.484H571.89V524.466ZM575.67 522.436H576.832V531.536H575.67V522.436ZM568.698 533.72H577.224V534.672H568.698V533.72ZM568.698 530.668H569.86V534.112H568.698V530.668ZM579.793 523.024H587.941V523.976H579.793V523.024ZM578.337 527.546H589.817V528.498H578.337V527.546ZM583.475 528.204H584.637V531.172H583.475V528.204ZM587.185 523.024H588.333V523.948C588.333 524.471 588.314 525.063 588.277 525.726C588.239 526.379 588.118 527.14 587.913 528.008L586.779 527.882C586.984 527.023 587.101 526.281 587.129 525.656C587.166 525.031 587.185 524.461 587.185 523.948V523.024ZM579.527 530.808H588.403V535.092H587.241V531.746H579.527V530.808Z" fill="#1A1A1A"/>
<rect width="312" height="48" transform="translate(526 553)" fill="#F9F9F9"/>
<path d="M543.414 571.668H549.238V579.914H543.414V571.668ZM548.118 572.592H544.562V578.976H548.118V572.592ZM551.898 570.422H553.06V583.106H551.898V570.422ZM556.035 571.024H564.183V571.976H556.035V571.024ZM554.579 575.546H566.059V576.498H554.579V575.546ZM559.717 576.204H560.879V579.172H559.717V576.204ZM563.427 571.024H564.575V571.948C564.575 572.471 564.556 573.063 564.519 573.726C564.482 574.379 564.36 575.14 564.155 576.008L563.021 575.882C563.226 575.023 563.343 574.281 563.371 573.656C563.408 573.031 563.427 572.461 563.427 571.948V571.024ZM555.769 578.808H564.645V583.092H563.483V579.746H555.769V578.808Z" fill="#1A1A1A"/>
<circle cx="810" cy="577" r="10" fill="#00A2BD"/>
<path d="M805.5 576.731L808.5 579.5L814.5 573.5" stroke="white" stroke-width="2" stroke-linecap="round"/>
<path d="M547.838 624.75H548.986V626.962H547.838V624.75ZM542.7 624.344H554.138V625.296H542.7V624.344ZM548.412 626.612C549.765 626.612 550.825 626.803 551.59 627.186C552.355 627.569 552.738 628.119 552.738 628.838C552.738 629.547 552.355 630.093 551.59 630.476C550.825 630.868 549.765 631.064 548.412 631.064C547.059 631.064 545.995 630.868 545.22 630.476C544.455 630.093 544.072 629.547 544.072 628.838C544.072 628.119 544.455 627.569 545.22 627.186C545.995 626.803 547.059 626.612 548.412 626.612ZM548.412 627.522C547.749 627.522 547.18 627.573 546.704 627.676C546.237 627.779 545.878 627.928 545.626 628.124C545.374 628.32 545.248 628.558 545.248 628.838C545.248 629.118 545.374 629.356 545.626 629.552C545.878 629.748 546.237 629.897 546.704 630C547.18 630.112 547.749 630.168 548.412 630.168C549.075 630.168 549.639 630.112 550.106 630C550.582 629.897 550.946 629.748 551.198 629.552C551.45 629.356 551.576 629.118 551.576 628.838C551.576 628.558 551.45 628.32 551.198 628.124C550.946 627.928 550.582 627.779 550.106 627.676C549.639 627.573 549.075 627.522 548.412 627.522ZM547.67 619.472H548.692V619.85C548.692 620.261 548.603 620.639 548.426 620.984C548.258 621.329 548.02 621.651 547.712 621.95C547.404 622.239 547.04 622.496 546.62 622.72C546.209 622.944 545.761 623.131 545.276 623.28C544.791 623.42 544.282 623.523 543.75 623.588L543.33 622.664C543.787 622.617 544.226 622.538 544.646 622.426C545.075 622.305 545.472 622.16 545.836 621.992C546.209 621.815 546.531 621.614 546.802 621.39C547.073 621.166 547.283 620.923 547.432 620.662C547.591 620.401 547.67 620.13 547.67 619.85V619.472ZM548.146 619.472H549.168V619.85C549.168 620.139 549.243 620.415 549.392 620.676C549.551 620.928 549.765 621.166 550.036 621.39C550.307 621.605 550.624 621.801 550.988 621.978C551.361 622.146 551.758 622.291 552.178 622.412C552.607 622.533 553.051 622.617 553.508 622.664L553.088 623.588C552.556 623.523 552.047 623.42 551.562 623.28C551.077 623.131 550.624 622.944 550.204 622.72C549.793 622.496 549.434 622.239 549.126 621.95C548.818 621.661 548.575 621.339 548.398 620.984C548.23 620.629 548.146 620.251 548.146 619.85V619.472ZM543.75 619.01H553.102V619.948H543.75V619.01ZM556.035 619.024H564.183V619.976H556.035V619.024ZM554.579 623.546H566.059V624.498H554.579V623.546ZM559.717 624.204H560.879V627.172H559.717V624.204ZM563.427 619.024H564.575V619.948C564.575 620.471 564.556 621.063 564.519 621.726C564.482 622.379 564.36 623.14 564.155 624.008L563.021 623.882C563.226 623.023 563.343 622.281 563.371 621.656C563.408 621.031 563.427 620.461 563.427 619.948V619.024ZM555.769 626.808H564.645V631.092H563.483V627.746H555.769V626.808Z" fill="#1A1A1A"/>
<path d="M547.838 672.75H548.986V674.962H547.838V672.75ZM542.7 672.344H554.138V673.296H542.7V672.344ZM548.412 674.612C549.765 674.612 550.825 674.803 551.59 675.186C552.355 675.569 552.738 676.119 552.738 676.838C552.738 677.547 552.355 678.093 551.59 678.476C550.825 678.868 549.765 679.064 548.412 679.064C547.059 679.064 545.995 678.868 545.22 678.476C544.455 678.093 544.072 677.547 544.072 676.838C544.072 676.119 544.455 675.569 545.22 675.186C545.995 674.803 547.059 674.612 548.412 674.612ZM548.412 675.522C547.749 675.522 547.18 675.573 546.704 675.676C546.237 675.779 545.878 675.928 545.626 676.124C545.374 676.32 545.248 676.558 545.248 676.838C545.248 677.118 545.374 677.356 545.626 677.552C545.878 677.748 546.237 677.897 546.704 678C547.18 678.112 547.749 678.168 548.412 678.168C549.075 678.168 549.639 678.112 550.106 678C550.582 677.897 550.946 677.748 551.198 677.552C551.45 677.356 551.576 677.118 551.576 676.838C551.576 676.558 551.45 676.32 551.198 676.124C550.946 675.928 550.582 675.779 550.106 675.676C549.639 675.573 549.075 675.522 548.412 675.522ZM547.67 667.472H548.692V667.85C548.692 668.261 548.603 668.639 548.426 668.984C548.258 669.329 548.02 669.651 547.712 669.95C547.404 670.239 547.04 670.496 546.62 670.72C546.209 670.944 545.761 671.131 545.276 671.28C544.791 671.42 544.282 671.523 543.75 671.588L543.33 670.664C543.787 670.617 544.226 670.538 544.646 670.426C545.075 670.305 545.472 670.16 545.836 669.992C546.209 669.815 546.531 669.614 546.802 669.39C547.073 669.166 547.283 668.923 547.432 668.662C547.591 668.401 547.67 668.13 547.67 667.85V667.472ZM548.146 667.472H549.168V667.85C549.168 668.139 549.243 668.415 549.392 668.676C549.551 668.928 549.765 669.166 550.036 669.39C550.307 669.605 550.624 669.801 550.988 669.978C551.361 670.146 551.758 670.291 552.178 670.412C552.607 670.533 553.051 670.617 553.508 670.664L553.088 671.588C552.556 671.523 552.047 671.42 551.562 671.28C551.077 671.131 550.624 670.944 550.204 670.72C549.793 670.496 549.434 670.239 549.126 669.95C548.818 669.661 548.575 669.339 548.398 668.984C548.23 668.629 548.146 668.251 548.146 667.85V667.472ZM543.75 667.01H553.102V667.948H543.75V667.01ZM556.035 667.024H564.183V667.976H556.035V667.024ZM554.579 671.546H566.059V672.498H554.579V671.546ZM559.717 672.204H560.879V675.172H559.717V672.204ZM563.427 667.024H564.575V667.948C564.575 668.471 564.556 669.063 564.519 669.726C564.482 670.379 564.36 671.14 564.155 672.008L563.021 671.882C563.226 671.023 563.343 670.281 563.371 669.656C563.408 669.031 563.427 668.461 563.427 667.948V667.024ZM555.769 674.808H564.645V679.092H563.483V675.746H555.769V674.808Z" fill="#1A1A1A"/>
<path d="M546.256 714.884C546.891 714.884 547.451 715.005 547.936 715.248C548.431 715.481 548.818 715.808 549.098 716.228C549.378 716.648 549.518 717.138 549.518 717.698C549.518 718.249 549.378 718.739 549.098 719.168C548.818 719.588 548.431 719.915 547.936 720.148C547.451 720.381 546.891 720.498 546.256 720.498C545.631 720.498 545.071 720.381 544.576 720.148C544.081 719.915 543.689 719.588 543.4 719.168C543.12 718.739 542.98 718.249 542.98 717.698C542.98 717.138 543.12 716.648 543.4 716.228C543.689 715.808 544.081 715.481 544.576 715.248C545.071 715.005 545.631 714.884 546.256 714.884ZM546.256 715.85C545.845 715.85 545.477 715.929 545.15 716.088C544.833 716.237 544.581 716.452 544.394 716.732C544.207 717.012 544.114 717.334 544.114 717.698C544.114 718.062 544.207 718.384 544.394 718.664C544.581 718.935 544.833 719.149 545.15 719.308C545.477 719.467 545.845 719.546 546.256 719.546C546.667 719.546 547.031 719.467 547.348 719.308C547.675 719.149 547.931 718.935 548.118 718.664C548.305 718.384 548.398 718.062 548.398 717.698C548.398 717.334 548.305 717.012 548.118 716.732C547.931 716.452 547.675 716.237 547.348 716.088C547.031 715.929 546.667 715.85 546.256 715.85ZM551.912 714.422H553.074V720.904H551.912V714.422ZM544.884 721.534H553.074V724.6H546.046V726.504H544.926V723.732H551.926V722.458H544.884V721.534ZM544.926 725.986H553.508V726.924H544.926V725.986ZM556.091 714.926H557.239V716.508H563.371V714.926H564.519V719.994H556.091V714.926ZM557.239 717.432V719.056H563.371V717.432H557.239ZM554.579 721.338H566.017V722.29H554.579V721.338ZM559.717 719.434H560.879V721.758H559.717V719.434ZM556.049 725.86H564.743V726.812H556.049V725.86ZM556.049 723.298H557.211V726.182H556.049V723.298Z" fill="#1A1A1A"/>
<mask id="path-24-inside-3_67_7" fill="white">
<path d="M884 397C884 390.373 889.373 385 896 385H1184C1190.63 385 1196 390.373 1196 397V421C1196 427.627 1190.63 433 1184 433H896C889.373 433 884 427.627 884 421V397Z"/>
</mask>
<path d="M884 397C884 390.373 889.373 385 896 385H1184C1190.63 385 1196 390.373 1196 397V421C1196 427.627 1190.63 433 1184 433H896C889.373 433 884 427.627 884 421V397Z" fill="white"/>
<path d="M896 385V386H1184V385V384H896V385ZM1196 397H1195V421H1196H1197V397H1196ZM1184 433V432H896V433V434H1184V433ZM884 421H885V397H884H883V421H884ZM896 433V432C889.925 432 885 427.075 885 421H884H883C883 428.18 888.82 434 896 434V433ZM1196 421H1195C1195 427.075 1190.08 432 1184 432V433V434C1191.18 434 1197 428.18 1197 421H1196ZM1184 385V386C1190.08 386 1195 390.925 1195 397H1196H1197C1197 389.82 1191.18 384 1184 384V385ZM896 385V384C888.82 384 883 389.82 883 397H884H885C885 390.925 889.925 386 896 386V385Z" fill="#EDEDED" mask="url(#path-24-inside-3_67_7)"/>
<path d="M906.398 405.25H910.234V406.202H906.398V405.25ZM906.398 409.254H910.234V410.206H906.398V409.254ZM904.074 403.402C904.69 403.402 905.236 403.584 905.712 403.948C906.188 404.303 906.557 404.811 906.818 405.474C907.089 406.137 907.224 406.916 907.224 407.812C907.224 408.708 907.089 409.487 906.818 410.15C906.557 410.813 906.188 411.326 905.712 411.69C905.236 412.054 904.69 412.236 904.074 412.236C903.467 412.236 902.921 412.054 902.436 411.69C901.96 411.326 901.587 410.813 901.316 410.15C901.055 409.487 900.924 408.708 900.924 407.812C900.924 406.916 901.055 406.137 901.316 405.474C901.587 404.811 901.96 404.303 902.436 403.948C902.921 403.584 903.467 403.402 904.074 403.402ZM904.074 404.438C903.673 404.438 903.318 404.578 903.01 404.858C902.702 405.129 902.459 405.521 902.282 406.034C902.114 406.538 902.03 407.131 902.03 407.812C902.03 408.493 902.114 409.091 902.282 409.604C902.459 410.108 902.702 410.5 903.01 410.78C903.318 411.06 903.673 411.2 904.074 411.2C904.485 411.2 904.844 411.06 905.152 410.78C905.46 410.5 905.698 410.108 905.866 409.604C906.043 409.091 906.132 408.493 906.132 407.812C906.132 407.131 906.043 406.538 905.866 406.034C905.698 405.521 905.46 405.129 905.152 404.858C904.844 404.578 904.485 404.438 904.074 404.438ZM909.968 402.422H911.116V415.106H909.968V402.422ZM922.141 402.422H923.247V410.43H922.141V402.422ZM920.069 405.866H922.463V406.818H920.069V405.866ZM919.425 402.674H920.517V409.982H919.425V402.674ZM912.509 403.934H918.921V404.858H912.509V403.934ZM915.729 405.516C916.261 405.516 916.728 405.605 917.129 405.782C917.54 405.959 917.857 406.211 918.081 406.538C918.314 406.865 918.431 407.247 918.431 407.686C918.431 408.125 918.314 408.507 918.081 408.834C917.857 409.151 917.54 409.399 917.129 409.576C916.728 409.753 916.261 409.842 915.729 409.842C915.206 409.842 914.74 409.753 914.329 409.576C913.918 409.399 913.601 409.151 913.377 408.834C913.153 408.507 913.041 408.125 913.041 407.686C913.041 407.247 913.153 406.865 913.377 406.538C913.601 406.211 913.918 405.959 914.329 405.782C914.74 405.605 915.206 405.516 915.729 405.516ZM915.729 406.384C915.244 406.384 914.847 406.501 914.539 406.734C914.231 406.967 914.077 407.285 914.077 407.686C914.077 408.078 914.226 408.395 914.525 408.638C914.833 408.871 915.234 408.988 915.729 408.988C916.224 408.988 916.62 408.871 916.919 408.638C917.227 408.395 917.381 408.078 917.381 407.686C917.381 407.285 917.227 406.967 916.919 406.734C916.62 406.501 916.224 406.384 915.729 406.384ZM915.155 402.52H916.303V404.466H915.155V402.52ZM919.089 410.654C920.414 410.654 921.45 410.845 922.197 411.228C922.944 411.611 923.317 412.157 923.317 412.866C923.317 413.566 922.944 414.107 922.197 414.49C921.45 414.873 920.414 415.064 919.089 415.064C917.764 415.064 916.728 414.873 915.981 414.49C915.234 414.107 914.861 413.566 914.861 412.866C914.861 412.157 915.234 411.611 915.981 411.228C916.728 410.845 917.764 410.654 919.089 410.654ZM919.089 411.55C918.118 411.55 917.362 411.662 916.821 411.886C916.28 412.11 916.009 412.437 916.009 412.866C916.009 413.286 916.28 413.608 916.821 413.832C917.362 414.056 918.118 414.168 919.089 414.168C920.05 414.168 920.802 414.056 921.343 413.832C921.884 413.608 922.155 413.286 922.155 412.866C922.155 412.437 921.884 412.11 921.343 411.886C920.802 411.662 920.05 411.55 919.089 411.55ZM928.646 403.024H936.794V403.976H928.646V403.024ZM927.19 407.546H938.67V408.498H927.19V407.546ZM932.328 408.204H933.49V411.172H932.328V408.204ZM936.038 403.024H937.186V403.948C937.186 404.471 937.168 405.063 937.13 405.726C937.093 406.379 936.972 407.14 936.766 408.008L935.632 407.882C935.838 407.023 935.954 406.281 935.982 405.656C936.02 405.031 936.038 404.461 936.038 403.948V403.024ZM928.38 410.808H937.256V415.092H936.094V411.746H928.38V410.808ZM947.637 402.422H948.799V415.078H947.637V402.422ZM948.491 407.56H950.815V408.526H948.491V407.56ZM944.403 403.78H945.537C945.537 404.984 945.341 406.137 944.949 407.238C944.557 408.33 943.941 409.343 943.101 410.276C942.261 411.2 941.155 412.003 939.783 412.684L939.139 411.788C940.315 411.2 941.29 410.514 942.065 409.73C942.849 408.937 943.432 408.059 943.815 407.098C944.207 406.127 944.403 405.082 944.403 403.962V403.78ZM939.727 403.78H944.991V404.746H939.727V403.78Z" fill="#8E8E93"/>
<path d="M1175.83 405.667L1170 411.5L1164.17 405.667" stroke="#1A1A1A" stroke-width="1.3" stroke-linecap="round"/>
<path d="M896 441.5H1184C1190.35 441.5 1195.5 446.649 1195.5 453V589C1195.5 595.351 1190.35 600.5 1184 600.5H896C889.649 600.5 884.5 595.351 884.5 589V453C884.5 446.649 889.649 441.5 896 441.5Z" fill="white"/>
<path d="M896 441.5H1184C1190.35 441.5 1195.5 446.649 1195.5 453V589C1195.5 595.351 1190.35 600.5 1184 600.5H896C889.649 600.5 884.5 595.351 884.5 589V453C884.5 446.649 889.649 441.5 896 441.5Z" stroke="#EDEDED"/>
<path d="M892 459C892 453.477 896.477 449 902 449H1178C1183.52 449 1188 453.477 1188 459V487C1188 492.523 1183.52 497 1178 497H902C896.477 497 892 492.523 892 487V459Z" fill="#F9F9F9"/>
<circle cx="917.167" cy="472.167" r="5.83333" stroke="#8E8E93" stroke-width="1.08333" stroke-linecap="round"/>
<path d="M921.333 476.333L925.5 480.5" stroke="#8E8E93" stroke-width="1.08333" stroke-linecap="round"/>
<path d="M933.414 467.668H939.238V475.914H933.414V467.668ZM938.118 468.592H934.562V474.976H938.118V468.592ZM941.898 466.422H943.06V479.106H941.898V466.422Z" fill="#1A1A1A"/>
<path d="M1158 467L1170 479" stroke="#1A1A1A" stroke-width="1.5" stroke-linecap="round"/>
<path d="M1170 467L1158 479" stroke="#1A1A1A" stroke-width="1.5" stroke-linecap="round"/>
<path d="M901.232 523.472H907.434V532.138H901.232V523.472ZM905.614 524.928H903.052V530.682H905.614V524.928ZM909.436 522.31H911.284V535.232H909.436V522.31ZM914.035 523.024H922.183V523.976H914.035V523.024ZM912.579 527.546H924.059V528.498H912.579V527.546ZM917.717 528.204H918.879V531.172H917.717V528.204ZM921.427 523.024H922.575V523.948C922.575 524.471 922.556 525.063 922.519 525.726C922.482 526.379 922.36 527.14 922.155 528.008L921.021 527.882C921.226 527.023 921.343 526.281 921.371 525.656C921.408 525.031 921.427 524.461 921.427 523.948V523.024ZM913.769 530.808H922.645V535.092H921.483V531.746H913.769V530.808Z" fill="#1A1A1A"/>
<path d="M901.232 571.472H907.434V580.138H901.232V571.472ZM905.614 572.928H903.052V578.682H905.614V572.928ZM909.436 570.31H911.284V583.232H909.436V570.31ZM922.071 572.718H924.255V573.684H922.071V572.718ZM922.071 575.812H924.255V576.778H922.071V575.812ZM921.245 570.422H922.407V579.746H921.245V570.422ZM914.525 581.86H922.967V582.812H914.525V581.86ZM914.525 578.794H915.673V582.238H914.525V578.794ZM916.107 571.318C916.742 571.318 917.306 571.453 917.801 571.724C918.296 571.985 918.688 572.349 918.977 572.816C919.266 573.283 919.411 573.824 919.411 574.44C919.411 575.037 919.266 575.574 918.977 576.05C918.688 576.526 918.296 576.899 917.801 577.17C917.306 577.431 916.742 577.562 916.107 577.562C915.482 577.562 914.917 577.431 914.413 577.17C913.918 576.899 913.526 576.526 913.237 576.05C912.948 575.574 912.803 575.037 912.803 574.44C912.803 573.824 912.948 573.283 913.237 572.816C913.526 572.349 913.918 571.985 914.413 571.724C914.917 571.453 915.482 571.318 916.107 571.318ZM916.107 572.326C915.696 572.326 915.328 572.415 915.001 572.592C914.674 572.769 914.413 573.017 914.217 573.334C914.03 573.651 913.937 574.02 913.937 574.44C913.937 574.851 914.03 575.215 914.217 575.532C914.413 575.849 914.674 576.097 915.001 576.274C915.328 576.451 915.696 576.54 916.107 576.54C916.518 576.54 916.886 576.451 917.213 576.274C917.549 576.097 917.81 575.849 917.997 575.532C918.193 575.215 918.291 574.851 918.291 574.44C918.291 574.02 918.193 573.651 917.997 573.334C917.81 573.017 917.549 572.769 917.213 572.592C916.886 572.415 916.518 572.326 916.107 572.326ZM924.962 571.696H930.772V579.872H924.962V571.696ZM929.624 572.62H926.096V578.934H929.624V572.62ZM933.026 570.422H934.188V583.092H933.026V570.422ZM933.922 575.476H936.26V576.456H933.922V575.476Z" fill="#1A1A1A"/>
<path d="M117.25 165H94.5625V101H117.437C123.875 101 129.417 102.281 134.063 104.844C138.708 107.385 142.281 111.042 144.781 115.812C147.302 120.583 148.563 126.292 148.563 132.937C148.563 139.604 147.302 145.333 144.781 150.125C142.281 154.917 138.688 158.594 134 161.156C129.333 163.719 123.75 165 117.25 165ZM108.094 153.406H116.688C120.688 153.406 124.052 152.698 126.781 151.281C129.531 149.844 131.594 147.625 132.969 144.625C134.365 141.604 135.062 137.708 135.062 132.937C135.062 128.208 134.365 124.344 132.969 121.344C131.594 118.344 129.542 116.135 126.812 114.719C124.083 113.302 120.719 112.594 116.719 112.594H108.094V153.406ZM158.336 165V117H171.242V125.375H171.742C172.617 122.396 174.086 120.146 176.148 118.625C178.211 117.083 180.586 116.312 183.273 116.312C183.94 116.312 184.659 116.354 185.43 116.437C186.201 116.521 186.878 116.635 187.461 116.781V128.594C186.836 128.406 185.971 128.24 184.867 128.094C183.763 127.948 182.753 127.875 181.836 127.875C179.878 127.875 178.128 128.302 176.586 129.156C175.065 129.99 173.857 131.156 172.961 132.656C172.086 134.156 171.648 135.885 171.648 137.844V165H158.336ZM213.797 165.938C208.943 165.938 204.745 164.906 201.203 162.844C197.682 160.76 194.964 157.865 193.047 154.156C191.13 150.427 190.172 146.104 190.172 141.187C190.172 136.229 191.13 131.896 193.047 128.187C194.964 124.458 197.682 121.562 201.203 119.5C204.745 117.417 208.943 116.375 213.797 116.375C218.651 116.375 222.839 117.417 226.359 119.5C229.901 121.562 232.63 124.458 234.547 128.187C236.464 131.896 237.422 136.229 237.422 141.187C237.422 146.104 236.464 150.427 234.547 154.156C232.63 157.865 229.901 160.76 226.359 162.844C222.839 164.906 218.651 165.938 213.797 165.938ZM213.859 155.625C216.068 155.625 217.911 155 219.391 153.75C220.87 152.479 221.984 150.75 222.734 148.562C223.505 146.375 223.891 143.885 223.891 141.094C223.891 138.302 223.505 135.813 222.734 133.625C221.984 131.437 220.87 129.708 219.391 128.437C217.911 127.167 216.068 126.531 213.859 126.531C211.63 126.531 209.755 127.167 208.234 128.437C206.734 129.708 205.599 131.437 204.828 133.625C204.078 135.813 203.703 138.302 203.703 141.094C203.703 143.885 204.078 146.375 204.828 148.562C205.599 150.75 206.734 152.479 208.234 153.75C209.755 155 211.63 155.625 213.859 155.625ZM246.078 183V117H259.203V125.062H259.797C260.38 123.771 261.224 122.458 262.328 121.125C263.453 119.771 264.911 118.646 266.703 117.75C268.516 116.833 270.766 116.375 273.453 116.375C276.953 116.375 280.182 117.292 283.141 119.125C286.099 120.937 288.464 123.677 290.234 127.344C292.005 130.99 292.891 135.562 292.891 141.062C292.891 146.417 292.026 150.937 290.297 154.625C288.589 158.292 286.255 161.073 283.297 162.969C280.359 164.844 277.068 165.781 273.422 165.781C270.839 165.781 268.641 165.354 266.828 164.5C265.036 163.646 263.568 162.573 262.422 161.281C261.276 159.969 260.401 158.646 259.797 157.312H259.391V183H246.078ZM259.109 141C259.109 143.854 259.505 146.344 260.297 148.469C261.089 150.594 262.234 152.25 263.734 153.437C265.234 154.604 267.057 155.187 269.203 155.187C271.37 155.187 273.203 154.594 274.703 153.406C276.203 152.198 277.339 150.531 278.109 148.406C278.901 146.26 279.297 143.792 279.297 141C279.297 138.229 278.911 135.792 278.141 133.687C277.37 131.583 276.234 129.937 274.734 128.75C273.234 127.562 271.391 126.969 269.203 126.969C267.036 126.969 265.203 127.542 263.703 128.687C262.224 129.833 261.089 131.458 260.297 133.562C259.505 135.667 259.109 138.146 259.109 141ZM339.82 165.781C336.174 165.781 332.872 164.844 329.914 162.969C326.977 161.073 324.643 158.292 322.914 154.625C321.206 150.937 320.352 146.417 320.352 141.062C320.352 135.562 321.237 130.99 323.008 127.344C324.779 123.677 327.133 120.937 330.07 119.125C333.029 117.292 336.268 116.375 339.789 116.375C342.477 116.375 344.716 116.833 346.508 117.75C348.32 118.646 349.779 119.771 350.883 121.125C352.008 122.458 352.862 123.771 353.445 125.062H353.852V101H367.133V165H354.008V157.312H353.445C352.82 158.646 351.935 159.969 350.789 161.281C349.664 162.573 348.195 163.646 346.383 164.5C344.591 165.354 342.404 165.781 339.82 165.781ZM344.039 155.187C346.185 155.187 347.997 154.604 349.477 153.437C350.977 152.25 352.122 150.594 352.914 148.469C353.727 146.344 354.133 143.854 354.133 141C354.133 138.146 353.737 135.667 352.945 133.562C352.154 131.458 351.008 129.833 349.508 128.687C348.008 127.542 346.185 126.969 344.039 126.969C341.852 126.969 340.008 127.562 338.508 128.75C337.008 129.937 335.872 131.583 335.102 133.687C334.331 135.792 333.945 138.229 333.945 141C333.945 143.792 334.331 146.26 335.102 148.406C335.893 150.531 337.029 152.198 338.508 153.406C340.008 154.594 341.852 155.187 344.039 155.187ZM399.766 165.938C394.911 165.938 390.714 164.906 387.172 162.844C383.651 160.76 380.932 157.865 379.016 154.156C377.099 150.427 376.141 146.104 376.141 141.187C376.141 136.229 377.099 131.896 379.016 128.187C380.932 124.458 383.651 121.562 387.172 119.5C390.714 117.417 394.911 116.375 399.766 116.375C404.62 116.375 408.807 117.417 412.328 119.5C415.87 121.562 418.599 124.458 420.516 128.187C422.432 131.896 423.391 136.229 423.391 141.187C423.391 146.104 422.432 150.427 420.516 154.156C418.599 157.865 415.87 160.76 412.328 162.844C408.807 164.906 404.62 165.938 399.766 165.938ZM399.828 155.625C402.036 155.625 403.88 155 405.359 153.75C406.839 152.479 407.953 150.75 408.703 148.562C409.474 146.375 409.859 143.885 409.859 141.094C409.859 138.302 409.474 135.813 408.703 133.625C407.953 131.437 406.839 129.708 405.359 128.437C403.88 127.167 402.036 126.531 399.828 126.531C397.599 126.531 395.724 127.167 394.203 128.437C392.703 129.708 391.568 131.437 390.797 133.625C390.047 135.813 389.672 138.302 389.672 141.094C389.672 143.885 390.047 146.375 390.797 148.562C391.568 150.75 392.703 152.479 394.203 153.75C395.724 155 397.599 155.625 399.828 155.625ZM440.312 165L427.25 117H440.719L448.156 149.25H448.594L456.344 117H469.563L477.438 149.063H477.844L485.156 117H498.594L485.563 165H471.469L463.219 134.812H462.625L454.375 165H440.312ZM519.008 137.25V165H505.695V117H518.383V125.469H518.945C520.008 122.677 521.789 120.469 524.289 118.844C526.789 117.198 529.82 116.375 533.383 116.375C536.716 116.375 539.622 117.104 542.102 118.562C544.581 120.021 546.508 122.104 547.883 124.812C549.258 127.5 549.945 130.708 549.945 134.437V165H536.633V136.812C536.654 133.875 535.904 131.583 534.383 129.938C532.862 128.271 530.768 127.437 528.102 127.437C526.31 127.437 524.727 127.823 523.352 128.594C521.997 129.365 520.935 130.49 520.164 131.969C519.414 133.427 519.029 135.188 519.008 137.25Z" fill="black"/>
<path d="M268.756 866.107C268.315 866.107 267.922 865.994 267.577 865.769C267.233 865.542 266.964 865.219 266.767 864.8C266.573 864.378 266.476 863.873 266.476 863.283C266.476 862.694 266.574 862.19 266.771 861.771C266.969 861.352 267.242 861.031 267.587 860.808C267.933 860.586 268.325 860.474 268.763 860.474C269.101 860.474 269.374 860.531 269.58 860.645C269.788 860.756 269.949 860.886 270.062 861.036C270.179 861.185 270.268 861.316 270.332 861.43H270.396V858.727H271.458V866H270.421V865.151H270.332C270.268 865.267 270.176 865.4 270.055 865.549C269.937 865.698 269.774 865.828 269.565 865.94C269.357 866.051 269.087 866.107 268.756 866.107ZM268.99 865.201C269.295 865.201 269.554 865.121 269.764 864.96C269.977 864.796 270.138 864.57 270.247 864.281C270.358 863.992 270.414 863.656 270.414 863.273C270.414 862.894 270.36 862.562 270.251 862.278C270.142 861.994 269.982 861.773 269.771 861.614C269.561 861.456 269.3 861.376 268.99 861.376C268.67 861.376 268.404 861.459 268.191 861.625C267.978 861.791 267.817 862.017 267.708 862.303C267.602 862.59 267.548 862.913 267.548 863.273C267.548 863.637 267.603 863.965 267.712 864.256C267.821 864.548 267.982 864.778 268.195 864.949C268.41 865.117 268.675 865.201 268.99 865.201ZM272.974 866V860.545H274V861.412H274.057C274.156 861.118 274.331 860.888 274.582 860.719C274.836 860.549 275.122 860.464 275.442 860.464C275.508 860.464 275.586 860.466 275.676 860.471C275.768 860.476 275.84 860.482 275.893 860.489V861.504C275.85 861.492 275.774 861.479 275.665 861.465C275.556 861.449 275.448 861.44 275.339 861.44C275.088 861.44 274.864 861.494 274.667 861.6C274.473 861.704 274.319 861.85 274.206 862.037C274.092 862.222 274.035 862.432 274.035 862.669V866H272.974ZM278.914 866.11C278.402 866.11 277.956 865.993 277.575 865.759C277.194 865.524 276.898 865.196 276.687 864.775C276.476 864.353 276.371 863.861 276.371 863.298C276.371 862.732 276.476 862.237 276.687 861.813C276.898 861.389 277.194 861.06 277.575 860.826C277.956 860.592 278.402 860.474 278.914 860.474C279.425 860.474 279.871 860.592 280.252 860.826C280.634 861.06 280.93 861.389 281.14 861.813C281.351 862.237 281.456 862.732 281.456 863.298C281.456 863.861 281.351 864.353 281.14 864.775C280.93 865.196 280.634 865.524 280.252 865.759C279.871 865.993 279.425 866.11 278.914 866.11ZM278.917 865.219C279.249 865.219 279.523 865.131 279.741 864.956C279.959 864.781 280.12 864.548 280.224 864.256C280.331 863.965 280.384 863.644 280.384 863.294C280.384 862.946 280.331 862.626 280.224 862.335C280.12 862.042 279.959 861.806 279.741 861.629C279.523 861.451 279.249 861.362 278.917 861.362C278.583 861.362 278.306 861.451 278.086 861.629C277.868 861.806 277.706 862.042 277.6 862.335C277.496 862.626 277.444 862.946 277.444 863.294C277.444 863.644 277.496 863.965 277.6 864.256C277.706 864.548 277.868 864.781 278.086 864.956C278.306 865.131 278.583 865.219 278.917 865.219ZM282.642 868.045V860.545H283.678V861.43H283.767C283.829 861.316 283.918 861.185 284.034 861.036C284.15 860.886 284.311 860.756 284.517 860.645C284.722 860.531 284.995 860.474 285.333 860.474C285.774 860.474 286.167 860.586 286.512 860.808C286.858 861.031 287.129 861.352 287.325 861.771C287.524 862.19 287.624 862.694 287.624 863.283C287.624 863.873 287.526 864.378 287.329 864.8C287.133 865.219 286.863 865.542 286.519 865.769C286.176 865.994 285.784 866.107 285.344 866.107C285.012 866.107 284.741 866.051 284.531 865.94C284.322 865.828 284.159 865.698 284.041 865.549C283.922 865.4 283.831 865.267 283.767 865.151H283.703V868.045H282.642ZM283.682 863.273C283.682 863.656 283.738 863.992 283.849 864.281C283.96 864.57 284.121 864.796 284.332 864.96C284.543 865.121 284.801 865.201 285.106 865.201C285.423 865.201 285.688 865.117 285.901 864.949C286.115 864.778 286.276 864.548 286.384 864.256C286.496 863.965 286.551 863.637 286.551 863.273C286.551 862.913 286.497 862.59 286.388 862.303C286.281 862.017 286.12 861.791 285.905 861.625C285.692 861.459 285.426 861.376 285.106 861.376C284.798 861.376 284.538 861.456 284.325 861.614C284.114 861.773 283.954 861.994 283.845 862.278C283.736 862.562 283.682 862.894 283.682 863.273ZM290.855 866.107C290.415 866.107 290.022 865.994 289.676 865.769C289.333 865.542 289.063 865.219 288.867 864.8C288.673 864.378 288.575 863.873 288.575 863.283C288.575 862.694 288.674 862.19 288.87 861.771C289.069 861.352 289.341 861.031 289.687 860.808C290.033 860.586 290.424 860.474 290.862 860.474C291.201 860.474 291.473 860.531 291.679 860.645C291.887 860.756 292.048 860.886 292.162 861.036C292.278 861.185 292.368 861.316 292.432 861.43H292.496V858.727H293.558V866H292.521V865.151H292.432C292.368 865.267 292.276 865.4 292.155 865.549C292.037 865.698 291.873 865.828 291.665 865.94C291.457 866.051 291.187 866.107 290.855 866.107ZM291.09 865.201C291.395 865.201 291.653 865.121 291.864 864.96C292.077 864.796 292.238 864.57 292.347 864.281C292.458 863.992 292.514 863.656 292.514 863.273C292.514 862.894 292.459 862.562 292.35 862.278C292.241 861.994 292.082 861.773 291.871 861.614C291.66 861.456 291.4 861.376 291.09 861.376C290.77 861.376 290.504 861.459 290.291 861.625C290.078 861.791 289.917 862.017 289.808 862.303C289.701 862.59 289.648 862.913 289.648 863.273C289.648 863.637 289.702 863.965 289.811 864.256C289.92 864.548 290.081 864.778 290.294 864.949C290.51 865.117 290.775 865.201 291.09 865.201ZM297.371 866.11C296.859 866.11 296.413 865.993 296.032 865.759C295.651 865.524 295.355 865.196 295.144 864.775C294.933 864.353 294.828 863.861 294.828 863.298C294.828 862.732 294.933 862.237 295.144 861.813C295.355 861.389 295.651 861.06 296.032 860.826C296.413 860.592 296.859 860.474 297.371 860.474C297.882 860.474 298.328 860.592 298.71 860.826C299.091 861.06 299.387 861.389 299.597 861.813C299.808 862.237 299.913 862.732 299.913 863.298C299.913 863.861 299.808 864.353 299.597 864.775C299.387 865.196 299.091 865.524 298.71 865.759C298.328 865.993 297.882 866.11 297.371 866.11ZM297.374 865.219C297.706 865.219 297.98 865.131 298.198 864.956C298.416 864.781 298.577 864.548 298.681 864.256C298.788 863.965 298.841 863.644 298.841 863.294C298.841 862.946 298.788 862.626 298.681 862.335C298.577 862.042 298.416 861.806 298.198 861.629C297.98 861.451 297.706 861.362 297.374 861.362C297.04 861.362 296.763 861.451 296.543 861.629C296.326 861.806 296.163 862.042 296.057 862.335C295.953 862.626 295.901 862.946 295.901 863.294C295.901 863.644 295.953 863.965 296.057 864.256C296.163 864.548 296.326 864.781 296.543 864.956C296.763 865.131 297.04 865.219 297.374 865.219ZM302.115 866L300.51 860.545H301.607L302.676 864.551H302.729L303.802 860.545H304.899L305.964 864.533H306.018L307.08 860.545H308.177L306.575 866H305.492L304.384 862.062H304.303L303.195 866H302.115ZM310.246 862.761V866H309.184V860.545H310.204V861.433H310.271C310.397 861.144 310.593 860.912 310.861 860.737C311.131 860.562 311.47 860.474 311.88 860.474C312.251 860.474 312.577 860.553 312.856 860.709C313.136 860.863 313.352 861.092 313.506 861.398C313.66 861.703 313.737 862.081 313.737 862.531V866H312.675V862.658C312.675 862.263 312.572 861.954 312.366 861.732C312.16 861.507 311.877 861.394 311.518 861.394C311.271 861.394 311.052 861.447 310.861 861.554C310.671 861.661 310.521 861.817 310.41 862.023C310.301 862.226 310.246 862.473 310.246 862.761ZM318.375 862.467V863.386H315.15V862.467H318.375ZM322.088 866.11C321.576 866.11 321.13 865.993 320.749 865.759C320.368 865.524 320.072 865.196 319.861 864.775C319.65 864.353 319.545 863.861 319.545 863.298C319.545 862.732 319.65 862.237 319.861 861.813C320.072 861.389 320.368 861.06 320.749 860.826C321.13 860.592 321.576 860.474 322.088 860.474C322.599 860.474 323.045 860.592 323.426 860.826C323.807 861.06 324.103 861.389 324.314 861.813C324.525 862.237 324.63 862.732 324.63 863.298C324.63 863.861 324.525 864.353 324.314 864.775C324.103 865.196 323.807 865.524 323.426 865.759C323.045 865.993 322.599 866.11 322.088 866.11ZM322.091 865.219C322.423 865.219 322.697 865.131 322.915 864.956C323.133 864.781 323.294 864.548 323.398 864.256C323.504 863.965 323.558 863.644 323.558 863.294C323.558 862.946 323.504 862.626 323.398 862.335C323.294 862.042 323.133 861.806 322.915 861.629C322.697 861.451 322.423 861.362 322.091 861.362C321.757 861.362 321.48 861.451 321.26 861.629C321.042 861.806 320.88 862.042 320.774 862.335C320.669 862.626 320.617 862.946 320.617 863.294C320.617 863.644 320.669 863.965 320.774 864.256C320.88 864.548 321.042 864.781 321.26 864.956C321.48 865.131 321.757 865.219 322.091 865.219ZM326.877 862.761V866H325.815V860.545H326.835V861.433H326.902C327.027 861.144 327.224 860.912 327.491 860.737C327.761 860.562 328.101 860.474 328.511 860.474C328.882 860.474 329.208 860.553 329.487 860.709C329.767 860.863 329.983 861.092 330.137 861.398C330.291 861.703 330.368 862.081 330.368 862.531V866H329.306V862.658C329.306 862.263 329.203 861.954 328.997 861.732C328.791 861.507 328.508 861.394 328.148 861.394C327.902 861.394 327.683 861.447 327.491 861.554C327.302 861.661 327.152 861.817 327.04 862.023C326.932 862.226 326.877 862.473 326.877 862.761Z" fill="#222222"/>
<path d="M628.756 866.107C628.315 866.107 627.922 865.994 627.577 865.769C627.233 865.542 626.964 865.219 626.767 864.8C626.573 864.378 626.476 863.873 626.476 863.283C626.476 862.694 626.574 862.19 626.771 861.771C626.969 861.352 627.242 861.031 627.587 860.808C627.933 860.586 628.325 860.474 628.763 860.474C629.101 860.474 629.374 860.531 629.58 860.645C629.788 860.756 629.949 860.886 630.062 861.036C630.179 861.185 630.268 861.316 630.332 861.43H630.396V858.727H631.458V866H630.421V865.151H630.332C630.268 865.267 630.176 865.4 630.055 865.549C629.937 865.698 629.774 865.828 629.565 865.94C629.357 866.051 629.087 866.107 628.756 866.107ZM628.99 865.201C629.295 865.201 629.554 865.121 629.764 864.96C629.977 864.796 630.138 864.57 630.247 864.281C630.358 863.992 630.414 863.656 630.414 863.273C630.414 862.894 630.36 862.562 630.251 862.278C630.142 861.994 629.982 861.773 629.771 861.614C629.561 861.456 629.3 861.376 628.99 861.376C628.67 861.376 628.404 861.459 628.191 861.625C627.978 861.791 627.817 862.017 627.708 862.303C627.602 862.59 627.548 862.913 627.548 863.273C627.548 863.637 627.603 863.965 627.712 864.256C627.821 864.548 627.982 864.778 628.195 864.949C628.41 865.117 628.675 865.201 628.99 865.201ZM632.974 866V860.545H634V861.412H634.057C634.156 861.118 634.331 860.888 634.582 860.719C634.836 860.549 635.122 860.464 635.442 860.464C635.508 860.464 635.586 860.466 635.676 860.471C635.768 860.476 635.84 860.482 635.893 860.489V861.504C635.85 861.492 635.774 861.479 635.665 861.465C635.556 861.449 635.448 861.44 635.339 861.44C635.088 861.44 634.864 861.494 634.667 861.6C634.473 861.704 634.319 861.85 634.206 862.037C634.092 862.222 634.035 862.432 634.035 862.669V866H632.974ZM638.914 866.11C638.402 866.11 637.956 865.993 637.575 865.759C637.194 865.524 636.898 865.196 636.687 864.775C636.476 864.353 636.371 863.861 636.371 863.298C636.371 862.732 636.476 862.237 636.687 861.813C636.898 861.389 637.194 861.06 637.575 860.826C637.956 860.592 638.402 860.474 638.914 860.474C639.425 860.474 639.871 860.592 640.252 860.826C640.634 861.06 640.93 861.389 641.14 861.813C641.351 862.237 641.456 862.732 641.456 863.298C641.456 863.861 641.351 864.353 641.14 864.775C640.93 865.196 640.634 865.524 640.252 865.759C639.871 865.993 639.425 866.11 638.914 866.11ZM638.917 865.219C639.249 865.219 639.523 865.131 639.741 864.956C639.959 864.781 640.12 864.548 640.224 864.256C640.331 863.965 640.384 863.644 640.384 863.294C640.384 862.946 640.331 862.626 640.224 862.335C640.12 862.042 639.959 861.806 639.741 861.629C639.523 861.451 639.249 861.362 638.917 861.362C638.583 861.362 638.306 861.451 638.086 861.629C637.868 861.806 637.706 862.042 637.6 862.335C637.496 862.626 637.444 862.946 637.444 863.294C637.444 863.644 637.496 863.965 637.6 864.256C637.706 864.548 637.868 864.781 638.086 864.956C638.306 865.131 638.583 865.219 638.917 865.219ZM642.642 868.045V860.545H643.678V861.43H643.767C643.829 861.316 643.918 861.185 644.034 861.036C644.15 860.886 644.311 860.756 644.517 860.645C644.722 860.531 644.995 860.474 645.333 860.474C645.774 860.474 646.167 860.586 646.512 860.808C646.858 861.031 647.129 861.352 647.325 861.771C647.524 862.19 647.624 862.694 647.624 863.283C647.624 863.873 647.526 864.378 647.329 864.8C647.133 865.219 646.863 865.542 646.519 865.769C646.176 865.994 645.784 866.107 645.344 866.107C645.012 866.107 644.741 866.051 644.531 865.94C644.322 865.828 644.159 865.698 644.041 865.549C643.922 865.4 643.831 865.267 643.767 865.151H643.703V868.045H642.642ZM643.682 863.273C643.682 863.656 643.738 863.992 643.849 864.281C643.96 864.57 644.121 864.796 644.332 864.96C644.543 865.121 644.801 865.201 645.106 865.201C645.423 865.201 645.688 865.117 645.901 864.949C646.115 864.778 646.276 864.548 646.384 864.256C646.496 863.965 646.551 863.637 646.551 863.273C646.551 862.913 646.497 862.59 646.388 862.303C646.281 862.017 646.12 861.791 645.905 861.625C645.692 861.459 645.426 861.376 645.106 861.376C644.798 861.376 644.538 861.456 644.325 861.614C644.114 861.773 643.954 861.994 643.845 862.278C643.736 862.562 643.682 862.894 643.682 863.273ZM650.855 866.107C650.415 866.107 650.022 865.994 649.676 865.769C649.333 865.542 649.063 865.219 648.867 864.8C648.673 864.378 648.575 863.873 648.575 863.283C648.575 862.694 648.674 862.19 648.87 861.771C649.069 861.352 649.341 861.031 649.687 860.808C650.033 860.586 650.424 860.474 650.862 860.474C651.201 860.474 651.473 860.531 651.679 860.645C651.887 860.756 652.048 860.886 652.162 861.036C652.278 861.185 652.368 861.316 652.432 861.43H652.496V858.727H653.558V866H652.521V865.151H652.432C652.368 865.267 652.276 865.4 652.155 865.549C652.037 865.698 651.873 865.828 651.665 865.94C651.457 866.051 651.187 866.107 650.855 866.107ZM651.09 865.201C651.395 865.201 651.653 865.121 651.864 864.96C652.077 864.796 652.238 864.57 652.347 864.281C652.458 863.992 652.514 863.656 652.514 863.273C652.514 862.894 652.459 862.562 652.35 862.278C652.241 861.994 652.082 861.773 651.871 861.614C651.66 861.456 651.4 861.376 651.09 861.376C650.77 861.376 650.504 861.459 650.291 861.625C650.078 861.791 649.917 862.017 649.808 862.303C649.701 862.59 649.648 862.913 649.648 863.273C649.648 863.637 649.702 863.965 649.811 864.256C649.92 864.548 650.081 864.778 650.294 864.949C650.51 865.117 650.775 865.201 651.09 865.201ZM657.371 866.11C656.859 866.11 656.413 865.993 656.032 865.759C655.651 865.524 655.355 865.196 655.144 864.775C654.933 864.353 654.828 863.861 654.828 863.298C654.828 862.732 654.933 862.237 655.144 861.813C655.355 861.389 655.651 861.06 656.032 860.826C656.413 860.592 656.859 860.474 657.371 860.474C657.882 860.474 658.328 860.592 658.71 860.826C659.091 861.06 659.387 861.389 659.597 861.813C659.808 862.237 659.913 862.732 659.913 863.298C659.913 863.861 659.808 864.353 659.597 864.775C659.387 865.196 659.091 865.524 658.71 865.759C658.328 865.993 657.882 866.11 657.371 866.11ZM657.374 865.219C657.706 865.219 657.98 865.131 658.198 864.956C658.416 864.781 658.577 864.548 658.681 864.256C658.788 863.965 658.841 863.644 658.841 863.294C658.841 862.946 658.788 862.626 658.681 862.335C658.577 862.042 658.416 861.806 658.198 861.629C657.98 861.451 657.706 861.362 657.374 861.362C657.04 861.362 656.763 861.451 656.543 861.629C656.326 861.806 656.163 862.042 656.057 862.335C655.953 862.626 655.901 862.946 655.901 863.294C655.901 863.644 655.953 863.965 656.057 864.256C656.163 864.548 656.326 864.781 656.543 864.956C656.763 865.131 657.04 865.219 657.374 865.219ZM662.115 866L660.51 860.545H661.607L662.676 864.551H662.729L663.802 860.545H664.899L665.964 864.533H666.018L667.08 860.545H668.177L666.575 866H665.492L664.384 862.062H664.303L663.195 866H662.115ZM670.246 862.761V866H669.184V860.545H670.204V861.433H670.271C670.397 861.144 670.593 860.912 670.861 860.737C671.131 860.562 671.47 860.474 671.88 860.474C672.251 860.474 672.577 860.553 672.856 860.709C673.136 860.863 673.352 861.092 673.506 861.398C673.66 861.703 673.737 862.081 673.737 862.531V866H672.675V862.658C672.675 862.263 672.572 861.954 672.366 861.732C672.16 861.507 671.877 861.394 671.518 861.394C671.271 861.394 671.052 861.447 670.861 861.554C670.671 861.661 670.521 861.817 670.41 862.023C670.301 862.226 670.246 862.473 670.246 862.761ZM678.375 862.467V863.386H675.15V862.467H678.375ZM682.088 866.11C681.576 866.11 681.13 865.993 680.749 865.759C680.368 865.524 680.072 865.196 679.861 864.775C679.65 864.353 679.545 863.861 679.545 863.298C679.545 862.732 679.65 862.237 679.861 861.813C680.072 861.389 680.368 861.06 680.749 860.826C681.13 860.592 681.576 860.474 682.088 860.474C682.599 860.474 683.045 860.592 683.426 860.826C683.807 861.06 684.103 861.389 684.314 861.813C684.525 862.237 684.63 862.732 684.63 863.298C684.63 863.861 684.525 864.353 684.314 864.775C684.103 865.196 683.807 865.524 683.426 865.759C683.045 865.993 682.599 866.11 682.088 866.11ZM682.091 865.219C682.423 865.219 682.697 865.131 682.915 864.956C683.133 864.781 683.294 864.548 683.398 864.256C683.504 863.965 683.558 863.644 683.558 863.294C683.558 862.946 683.504 862.626 683.398 862.335C683.294 862.042 683.133 861.806 682.915 861.629C682.697 861.451 682.423 861.362 682.091 861.362C681.757 861.362 681.48 861.451 681.26 861.629C681.042 861.806 680.88 862.042 680.774 862.335C680.669 862.626 680.617 862.946 680.617 863.294C680.617 863.644 680.669 863.965 680.774 864.256C680.88 864.548 681.042 864.781 681.26 864.956C681.48 865.131 681.757 865.219 682.091 865.219ZM688.411 860.545V861.398H685.329V860.545H688.411ZM686.174 866V859.913C686.174 859.572 686.249 859.29 686.398 859.065C686.547 858.837 686.745 858.668 686.991 858.557C687.237 858.443 687.504 858.386 687.793 858.386C688.006 858.386 688.189 858.404 688.34 858.44C688.492 858.473 688.604 858.504 688.678 858.532L688.429 859.391C688.379 859.377 688.315 859.361 688.237 859.342C688.159 859.32 688.064 859.31 687.953 859.31C687.695 859.31 687.51 859.374 687.399 859.501C687.29 859.629 687.236 859.814 687.236 860.055V866H686.174ZM692.103 860.545V861.398H689.02V860.545H692.103ZM689.865 866V859.913C689.865 859.572 689.94 859.29 690.089 859.065C690.238 858.837 690.436 858.668 690.682 858.557C690.928 858.443 691.196 858.386 691.485 858.386C691.698 858.386 691.88 858.404 692.032 858.44C692.183 858.473 692.296 858.504 692.369 858.532L692.12 859.391C692.071 859.377 692.007 859.361 691.929 859.342C691.85 859.32 691.756 859.31 691.645 859.31C691.386 859.31 691.202 859.374 691.091 859.501C690.982 859.629 690.927 859.814 690.927 860.055V866H689.865Z" fill="#222222"/>
<path d="M989.756 866.107C989.315 866.107 988.922 865.994 988.577 865.769C988.233 865.542 987.964 865.219 987.767 864.8C987.573 864.378 987.476 863.873 987.476 863.283C987.476 862.694 987.574 862.19 987.771 861.771C987.969 861.352 988.242 861.031 988.587 860.808C988.933 860.586 989.325 860.474 989.763 860.474C990.101 860.474 990.374 860.531 990.58 860.645C990.788 860.756 990.949 860.886 991.062 861.036C991.179 861.185 991.268 861.316 991.332 861.43H991.396V858.727H992.458V866H991.421V865.151H991.332C991.268 865.267 991.176 865.4 991.055 865.549C990.937 865.698 990.774 865.828 990.565 865.94C990.357 866.051 990.087 866.107 989.756 866.107ZM989.99 865.201C990.295 865.201 990.554 865.121 990.764 864.96C990.977 864.796 991.138 864.57 991.247 864.281C991.358 863.992 991.414 863.656 991.414 863.273C991.414 862.894 991.36 862.562 991.251 862.278C991.142 861.994 990.982 861.773 990.771 861.614C990.561 861.456 990.3 861.376 989.99 861.376C989.67 861.376 989.404 861.459 989.191 861.625C988.978 861.791 988.817 862.017 988.708 862.303C988.602 862.59 988.548 862.913 988.548 863.273C988.548 863.637 988.603 863.965 988.712 864.256C988.821 864.548 988.982 864.778 989.195 864.949C989.41 865.117 989.675 865.201 989.99 865.201ZM993.974 866V860.545H995V861.412H995.057C995.156 861.118 995.331 860.888 995.582 860.719C995.836 860.549 996.122 860.464 996.442 860.464C996.508 860.464 996.586 860.466 996.676 860.471C996.768 860.476 996.84 860.482 996.893 860.489V861.504C996.85 861.492 996.774 861.479 996.665 861.465C996.556 861.449 996.448 861.44 996.339 861.44C996.088 861.44 995.864 861.494 995.667 861.6C995.473 861.704 995.319 861.85 995.206 862.037C995.092 862.222 995.035 862.432 995.035 862.669V866H993.974ZM999.914 866.11C999.402 866.11 998.956 865.993 998.575 865.759C998.194 865.524 997.898 865.196 997.687 864.775C997.476 864.353 997.371 863.861 997.371 863.298C997.371 862.732 997.476 862.237 997.687 861.813C997.898 861.389 998.194 861.06 998.575 860.826C998.956 860.592 999.402 860.474 999.914 860.474C1000.43 860.474 1000.87 860.592 1001.25 860.826C1001.63 861.06 1001.93 861.389 1002.14 861.813C1002.35 862.237 1002.46 862.732 1002.46 863.298C1002.46 863.861 1002.35 864.353 1002.14 864.775C1001.93 865.196 1001.63 865.524 1001.25 865.759C1000.87 865.993 1000.43 866.11 999.914 866.11ZM999.917 865.219C1000.25 865.219 1000.52 865.131 1000.74 864.956C1000.96 864.781 1001.12 864.548 1001.22 864.256C1001.33 863.965 1001.38 863.644 1001.38 863.294C1001.38 862.946 1001.33 862.626 1001.22 862.335C1001.12 862.042 1000.96 861.806 1000.74 861.629C1000.52 861.451 1000.25 861.362 999.917 861.362C999.583 861.362 999.306 861.451 999.086 861.629C998.868 861.806 998.706 862.042 998.6 862.335C998.496 862.626 998.444 862.946 998.444 863.294C998.444 863.644 998.496 863.965 998.6 864.256C998.706 864.548 998.868 864.781 999.086 864.956C999.306 865.131 999.583 865.219 999.917 865.219ZM1003.64 868.045V860.545H1004.68V861.43H1004.77C1004.83 861.316 1004.92 861.185 1005.03 861.036C1005.15 860.886 1005.31 860.756 1005.52 860.645C1005.72 860.531 1005.99 860.474 1006.33 860.474C1006.77 860.474 1007.17 860.586 1007.51 860.808C1007.86 861.031 1008.13 861.352 1008.33 861.771C1008.52 862.19 1008.62 862.694 1008.62 863.283C1008.62 863.873 1008.53 864.378 1008.33 864.8C1008.13 865.219 1007.86 865.542 1007.52 865.769C1007.18 865.994 1006.78 866.107 1006.34 866.107C1006.01 866.107 1005.74 866.051 1005.53 865.94C1005.32 865.828 1005.16 865.698 1005.04 865.549C1004.92 865.4 1004.83 865.267 1004.77 865.151H1004.7V868.045H1003.64ZM1004.68 863.273C1004.68 863.656 1004.74 863.992 1004.85 864.281C1004.96 864.57 1005.12 864.796 1005.33 864.96C1005.54 865.121 1005.8 865.201 1006.11 865.201C1006.42 865.201 1006.69 865.117 1006.9 864.949C1007.11 864.778 1007.28 864.548 1007.38 864.256C1007.5 863.965 1007.55 863.637 1007.55 863.273C1007.55 862.913 1007.5 862.59 1007.39 862.303C1007.28 862.017 1007.12 861.791 1006.91 861.625C1006.69 861.459 1006.43 861.376 1006.11 861.376C1005.8 861.376 1005.54 861.456 1005.32 861.614C1005.11 861.773 1004.95 861.994 1004.85 862.278C1004.74 862.562 1004.68 862.894 1004.68 863.273ZM1011.86 866.107C1011.41 866.107 1011.02 865.994 1010.68 865.769C1010.33 865.542 1010.06 865.219 1009.87 864.8C1009.67 864.378 1009.58 863.873 1009.58 863.283C1009.58 862.694 1009.67 862.19 1009.87 861.771C1010.07 861.352 1010.34 861.031 1010.69 860.808C1011.03 860.586 1011.42 860.474 1011.86 860.474C1012.2 860.474 1012.47 860.531 1012.68 860.645C1012.89 860.756 1013.05 860.886 1013.16 861.036C1013.28 861.185 1013.37 861.316 1013.43 861.43H1013.5V858.727H1014.56V866H1013.52V865.151H1013.43C1013.37 865.267 1013.28 865.4 1013.16 865.549C1013.04 865.698 1012.87 865.828 1012.66 865.94C1012.46 866.051 1012.19 866.107 1011.86 866.107ZM1012.09 865.201C1012.4 865.201 1012.65 865.121 1012.86 864.96C1013.08 864.796 1013.24 864.57 1013.35 864.281C1013.46 863.992 1013.51 863.656 1013.51 863.273C1013.51 862.894 1013.46 862.562 1013.35 862.278C1013.24 861.994 1013.08 861.773 1012.87 861.614C1012.66 861.456 1012.4 861.376 1012.09 861.376C1011.77 861.376 1011.5 861.459 1011.29 861.625C1011.08 861.791 1010.92 862.017 1010.81 862.303C1010.7 862.59 1010.65 862.913 1010.65 863.273C1010.65 863.637 1010.7 863.965 1010.81 864.256C1010.92 864.548 1011.08 864.778 1011.29 864.949C1011.51 865.117 1011.77 865.201 1012.09 865.201ZM1018.37 866.11C1017.86 866.11 1017.41 865.993 1017.03 865.759C1016.65 865.524 1016.35 865.196 1016.14 864.775C1015.93 864.353 1015.83 863.861 1015.83 863.298C1015.83 862.732 1015.93 862.237 1016.14 861.813C1016.35 861.389 1016.65 861.06 1017.03 860.826C1017.41 860.592 1017.86 860.474 1018.37 860.474C1018.88 860.474 1019.33 860.592 1019.71 860.826C1020.09 861.06 1020.39 861.389 1020.6 861.813C1020.81 862.237 1020.91 862.732 1020.91 863.298C1020.91 863.861 1020.81 864.353 1020.6 864.775C1020.39 865.196 1020.09 865.524 1019.71 865.759C1019.33 865.993 1018.88 866.11 1018.37 866.11ZM1018.37 865.219C1018.71 865.219 1018.98 865.131 1019.2 864.956C1019.42 864.781 1019.58 864.548 1019.68 864.256C1019.79 863.965 1019.84 863.644 1019.84 863.294C1019.84 862.946 1019.79 862.626 1019.68 862.335C1019.58 862.042 1019.42 861.806 1019.2 861.629C1018.98 861.451 1018.71 861.362 1018.37 861.362C1018.04 861.362 1017.76 861.451 1017.54 861.629C1017.33 861.806 1017.16 862.042 1017.06 862.335C1016.95 862.626 1016.9 862.946 1016.9 863.294C1016.9 863.644 1016.95 863.965 1017.06 864.256C1017.16 864.548 1017.33 864.781 1017.54 864.956C1017.76 865.131 1018.04 865.219 1018.37 865.219ZM1023.12 866L1021.51 860.545H1022.61L1023.68 864.551H1023.73L1024.8 860.545H1025.9L1026.96 864.533H1027.02L1028.08 860.545H1029.18L1027.58 866H1026.49L1025.38 862.062H1025.3L1024.19 866H1023.12ZM1031.25 862.761V866H1030.18V860.545H1031.2V861.433H1031.27C1031.4 861.144 1031.59 860.912 1031.86 860.737C1032.13 860.562 1032.47 860.474 1032.88 860.474C1033.25 860.474 1033.58 860.553 1033.86 860.709C1034.14 860.863 1034.35 861.092 1034.51 861.398C1034.66 861.703 1034.74 862.081 1034.74 862.531V866H1033.68V862.658C1033.68 862.263 1033.57 861.954 1033.37 861.732C1033.16 861.507 1032.88 861.394 1032.52 861.394C1032.27 861.394 1032.05 861.447 1031.86 861.554C1031.67 861.661 1031.52 861.817 1031.41 862.023C1031.3 862.226 1031.25 862.473 1031.25 862.761ZM1039.37 862.467V863.386H1036.15V862.467H1039.37ZM1043.34 860.545V861.398H1040.36V860.545H1043.34ZM1041.16 859.239H1042.22V864.398C1042.22 864.604 1042.25 864.759 1042.31 864.864C1042.37 864.965 1042.45 865.035 1042.55 865.073C1042.65 865.109 1042.75 865.126 1042.87 865.126C1042.96 865.126 1043.03 865.121 1043.09 865.109C1043.16 865.097 1043.21 865.087 1043.24 865.08L1043.44 865.957C1043.37 865.981 1043.29 866.005 1043.17 866.028C1043.06 866.054 1042.92 866.069 1042.75 866.071C1042.47 866.076 1042.21 866.026 1041.97 865.922C1041.72 865.818 1041.53 865.657 1041.38 865.439C1041.23 865.221 1041.16 864.948 1041.16 864.619V859.239ZM1045.18 868.045C1045.02 868.045 1044.88 868.032 1044.75 868.006C1044.62 867.983 1044.52 867.957 1044.46 867.928L1044.71 867.058C1044.91 867.11 1045.08 867.133 1045.23 867.126C1045.38 867.119 1045.52 867.062 1045.63 866.955C1045.75 866.849 1045.86 866.675 1045.95 866.433L1046.08 866.071L1044.08 860.545H1045.22L1046.6 864.778H1046.66L1048.04 860.545H1049.18L1046.93 866.728C1046.82 867.012 1046.69 867.252 1046.53 867.449C1046.37 867.648 1046.18 867.797 1045.96 867.896C1045.73 867.996 1045.48 868.045 1045.18 868.045ZM1050.17 868.045V860.545H1051.21V861.43H1051.3C1051.36 861.316 1051.45 861.185 1051.57 861.036C1051.68 860.886 1051.84 860.756 1052.05 860.645C1052.26 860.531 1052.53 860.474 1052.87 860.474C1053.31 860.474 1053.7 860.586 1054.05 860.808C1054.39 861.031 1054.66 861.352 1054.86 861.771C1055.06 862.19 1055.16 862.694 1055.16 863.283C1055.16 863.873 1055.06 864.378 1054.86 864.8C1054.67 865.219 1054.4 865.542 1054.05 865.769C1053.71 865.994 1053.32 866.107 1052.88 866.107C1052.55 866.107 1052.27 866.051 1052.06 865.94C1051.86 865.828 1051.69 865.698 1051.57 865.549C1051.46 865.4 1051.36 865.267 1051.3 865.151H1051.24V868.045H1050.17ZM1051.22 863.273C1051.22 863.656 1051.27 863.992 1051.38 864.281C1051.49 864.57 1051.65 864.796 1051.87 864.96C1052.08 865.121 1052.33 865.201 1052.64 865.201C1052.96 865.201 1053.22 865.117 1053.43 864.949C1053.65 864.778 1053.81 864.548 1053.92 864.256C1054.03 863.965 1054.08 863.637 1054.08 863.273C1054.08 862.913 1054.03 862.59 1053.92 862.303C1053.81 862.017 1053.65 861.791 1053.44 861.625C1053.23 861.459 1052.96 861.376 1052.64 861.376C1052.33 861.376 1052.07 861.456 1051.86 861.614C1051.65 861.773 1051.49 861.994 1051.38 862.278C1051.27 862.562 1051.22 862.894 1051.22 863.273ZM1056.35 866V860.545H1057.41V866H1056.35ZM1056.88 859.704C1056.7 859.704 1056.54 859.642 1056.41 859.519C1056.28 859.394 1056.21 859.245 1056.21 859.072C1056.21 858.897 1056.28 858.747 1056.41 858.624C1056.54 858.499 1056.7 858.436 1056.88 858.436C1057.07 858.436 1057.22 858.499 1057.36 858.624C1057.49 858.747 1057.55 858.897 1057.55 859.072C1057.55 859.245 1057.49 859.394 1057.36 859.519C1057.22 859.642 1057.07 859.704 1056.88 859.704ZM1059.9 862.761V866H1058.84V860.545H1059.86V861.433H1059.92C1060.05 861.144 1060.25 860.912 1060.51 860.737C1060.78 860.562 1061.12 860.474 1061.53 860.474C1061.9 860.474 1062.23 860.553 1062.51 860.709C1062.79 860.863 1063 861.092 1063.16 861.398C1063.31 861.703 1063.39 862.081 1063.39 862.531V866H1062.33V862.658C1062.33 862.263 1062.22 861.954 1062.02 861.732C1061.81 861.507 1061.53 861.394 1061.17 861.394C1060.92 861.394 1060.7 861.447 1060.51 861.554C1060.32 861.661 1060.17 861.817 1060.06 862.023C1059.95 862.226 1059.9 862.473 1059.9 862.761ZM1067.1 868.159C1066.67 868.159 1066.29 868.102 1065.98 867.989C1065.67 867.875 1065.42 867.725 1065.22 867.538C1065.03 867.351 1064.88 867.146 1064.78 866.923L1065.69 866.547C1065.76 866.651 1065.84 866.761 1065.95 866.877C1066.06 866.996 1066.21 867.096 1066.39 867.179C1066.58 867.262 1066.82 867.303 1067.11 867.303C1067.51 867.303 1067.85 867.205 1068.11 867.009C1068.37 866.814 1068.5 866.504 1068.5 866.078V865.006H1068.44C1068.37 865.122 1068.28 865.251 1068.16 865.393C1068.04 865.535 1067.88 865.658 1067.67 865.762C1067.46 865.866 1067.19 865.918 1066.86 865.918C1066.42 865.918 1066.04 865.818 1065.69 865.616C1065.35 865.413 1065.07 865.113 1064.87 864.718C1064.67 864.32 1064.58 863.831 1064.58 863.251C1064.58 862.671 1064.67 862.174 1064.87 861.76C1065.07 861.346 1065.34 861.028 1065.69 860.808C1066.03 860.586 1066.42 860.474 1066.86 860.474C1067.2 860.474 1067.47 860.531 1067.68 860.645C1067.89 860.756 1068.05 860.886 1068.17 861.036C1068.29 861.185 1068.38 861.316 1068.44 861.43H1068.52V860.545H1069.56V866.121C1069.56 866.589 1069.45 866.974 1069.23 867.275C1069.02 867.576 1068.72 867.798 1068.35 867.942C1067.98 868.087 1067.56 868.159 1067.1 868.159ZM1067.09 865.038C1067.4 865.038 1067.65 864.967 1067.86 864.825C1068.08 864.68 1068.24 864.474 1068.35 864.207C1068.46 863.937 1068.51 863.614 1068.51 863.237C1068.51 862.87 1068.46 862.547 1068.35 862.268C1068.24 861.988 1068.08 861.771 1067.87 861.614C1067.66 861.456 1067.4 861.376 1067.09 861.376C1066.77 861.376 1066.5 861.459 1066.29 861.625C1066.08 861.788 1065.92 862.011 1065.81 862.293C1065.7 862.574 1065.65 862.889 1065.65 863.237C1065.65 863.595 1065.7 863.908 1065.81 864.178C1065.92 864.448 1066.08 864.659 1066.29 864.81C1066.51 864.962 1066.77 865.038 1067.09 865.038Z" fill="#222222"/>
<rect x="40" y="4" width="68.7344" height="30" rx="3" fill="#FAFAFA"/>
<rect x="40.5" y="4.5" width="67.7344" height="29" rx="2.5" stroke="black" stroke-opacity="0.2"/>
<path d="M49.4375 22H46.9688V14H49.5469C50.3229 14 50.987 14.1602 51.5391 14.4805C52.0911 14.7982 52.5143 15.2552 52.8086 15.8516C53.1029 16.4453 53.25 17.1562 53.25 17.9844C53.25 18.8177 53.1016 19.5352 52.8047 20.1367C52.5078 20.7357 52.0755 21.1966 51.5078 21.5195C50.9401 21.8398 50.25 22 49.4375 22ZM47.9375 21.1406H49.375C50.0365 21.1406 50.5846 21.013 51.0195 20.7578C51.4544 20.5026 51.7786 20.1393 51.9922 19.668C52.2057 19.1966 52.3125 18.6354 52.3125 17.9844C52.3125 17.3385 52.207 16.7826 51.9961 16.3164C51.7852 15.8477 51.4701 15.4883 51.0508 15.2383C50.6315 14.9857 50.1094 14.8594 49.4844 14.8594H47.9375V21.1406ZM54.75 22V16H55.6406V16.9062H55.7031C55.8125 16.6094 56.0104 16.3685 56.2969 16.1836C56.5833 15.9987 56.9063 15.9062 57.2656 15.9062C57.3333 15.9062 57.418 15.9076 57.5195 15.9102C57.6211 15.9128 57.6979 15.9167 57.75 15.9219V16.8594C57.7188 16.8516 57.6471 16.8398 57.5352 16.8242C57.4258 16.806 57.3099 16.7969 57.1875 16.7969C56.8958 16.7969 56.6354 16.8581 56.4063 16.9805C56.1797 17.1003 56 17.2669 55.8672 17.4805C55.737 17.6914 55.6719 17.9323 55.6719 18.2031V22H54.75ZM61.0977 22.125C60.556 22.125 60.0807 21.9961 59.6719 21.7383C59.2656 21.4805 58.9479 21.1198 58.7188 20.6562C58.4922 20.1927 58.3789 19.651 58.3789 19.0312C58.3789 18.4062 58.4922 17.8607 58.7188 17.3945C58.9479 16.9284 59.2656 16.5664 59.6719 16.3086C60.0807 16.0508 60.556 15.9219 61.0977 15.9219C61.6393 15.9219 62.1133 16.0508 62.5195 16.3086C62.9284 16.5664 63.2461 16.9284 63.4727 17.3945C63.7018 17.8607 63.8164 18.4062 63.8164 19.0312C63.8164 19.651 63.7018 20.1927 63.4727 20.6562C63.2461 21.1198 62.9284 21.4805 62.5195 21.7383C62.1133 21.9961 61.6393 22.125 61.0977 22.125ZM61.0977 21.2969C61.5091 21.2969 61.8477 21.1914 62.1133 20.9805C62.3789 20.7695 62.5755 20.4922 62.7031 20.1484C62.8307 19.8047 62.8945 19.4323 62.8945 19.0312C62.8945 18.6302 62.8307 18.2565 62.7031 17.9102C62.5755 17.5638 62.3789 17.2839 62.1133 17.0703C61.8477 16.8568 61.5091 16.75 61.0977 16.75C60.6862 16.75 60.3477 16.8568 60.082 17.0703C59.8164 17.2839 59.6198 17.5638 59.4922 17.9102C59.3646 18.2565 59.3008 18.6302 59.3008 19.0312C59.3008 19.4323 59.3646 19.8047 59.4922 20.1484C59.6198 20.4922 59.8164 20.7695 60.082 20.9805C60.3477 21.1914 60.6862 21.2969 61.0977 21.2969ZM65.2236 24.25V16H66.1143V16.9531H66.2236C66.2913 16.849 66.3851 16.7161 66.5049 16.5547C66.6273 16.3906 66.8018 16.2448 67.0283 16.1172C67.2575 15.987 67.5674 15.9219 67.958 15.9219C68.4632 15.9219 68.9085 16.0482 69.2939 16.3008C69.6794 16.5534 69.9801 16.9115 70.1963 17.375C70.4124 17.8385 70.5205 18.3854 70.5205 19.0156C70.5205 19.651 70.4124 20.2018 70.1963 20.668C69.9801 21.1315 69.6807 21.4909 69.2979 21.7461C68.915 21.9987 68.4736 22.125 67.9736 22.125C67.5882 22.125 67.2796 22.0612 67.0479 21.9336C66.8161 21.8034 66.6377 21.6562 66.5127 21.4922C66.3877 21.3255 66.2913 21.1875 66.2236 21.0781H66.1455V24.25H65.2236ZM66.1299 19C66.1299 19.4531 66.1963 19.8529 66.3291 20.1992C66.4619 20.543 66.6559 20.8125 66.9111 21.0078C67.1663 21.2005 67.4788 21.2969 67.8486 21.2969C68.234 21.2969 68.5557 21.1953 68.8135 20.9922C69.0739 20.7865 69.2692 20.5104 69.3994 20.1641C69.5322 19.8151 69.5986 19.4271 69.5986 19C69.5986 18.5781 69.5335 18.1979 69.4033 17.8594C69.2757 17.5182 69.0817 17.2487 68.8213 17.0508C68.5635 16.8503 68.2393 16.75 67.8486 16.75C67.4736 16.75 67.1585 16.8451 66.9033 17.0352C66.6481 17.2227 66.4554 17.4857 66.3252 17.8242C66.195 18.1602 66.1299 18.5521 66.1299 19ZM77.2861 22.125C76.7861 22.125 76.3447 21.9987 75.9619 21.7461C75.5791 21.4909 75.2796 21.1315 75.0635 20.668C74.8473 20.2018 74.7393 19.651 74.7393 19.0156C74.7393 18.3854 74.8473 17.8385 75.0635 17.375C75.2796 16.9115 75.5804 16.5534 75.9658 16.3008C76.3512 16.0482 76.7965 15.9219 77.3018 15.9219C77.6924 15.9219 78.001 15.987 78.2275 16.1172C78.4567 16.2448 78.6312 16.3906 78.751 16.5547C78.8734 16.7161 78.9684 16.849 79.0361 16.9531H79.1143V14H80.0361V22H79.1455V21.0781H79.0361C78.9684 21.1875 78.8721 21.3255 78.7471 21.4922C78.6221 21.6562 78.4437 21.8034 78.2119 21.9336C77.9801 22.0612 77.6715 22.125 77.2861 22.125ZM77.4111 21.2969C77.7809 21.2969 78.0934 21.2005 78.3486 21.0078C78.6038 20.8125 78.7979 20.543 78.9307 20.1992C79.0635 19.8529 79.1299 19.4531 79.1299 19C79.1299 18.5521 79.0648 18.1602 78.9346 17.8242C78.8044 17.4857 78.6117 17.2227 78.3564 17.0352C78.1012 16.8451 77.7861 16.75 77.4111 16.75C77.0205 16.75 76.695 16.8503 76.4346 17.0508C76.1768 17.2487 75.9827 17.5182 75.8525 17.8594C75.7249 18.1979 75.6611 18.5781 75.6611 19C75.6611 19.4271 75.7262 19.8151 75.8564 20.1641C75.9893 20.5104 76.1846 20.7865 76.4424 20.9922C76.7028 21.1953 77.0257 21.2969 77.4111 21.2969ZM84.29 22.125C83.7484 22.125 83.2731 21.9961 82.8643 21.7383C82.458 21.4805 82.1403 21.1198 81.9111 20.6562C81.6846 20.1927 81.5713 19.651 81.5713 19.0312C81.5713 18.4062 81.6846 17.8607 81.9111 17.3945C82.1403 16.9284 82.458 16.5664 82.8643 16.3086C83.2731 16.0508 83.7484 15.9219 84.29 15.9219C84.8317 15.9219 85.3057 16.0508 85.7119 16.3086C86.1208 16.5664 86.4385 16.9284 86.665 17.3945C86.8942 17.8607 87.0088 18.4062 87.0088 19.0312C87.0088 19.651 86.8942 20.1927 86.665 20.6562C86.4385 21.1198 86.1208 21.4805 85.7119 21.7383C85.3057 21.9961 84.8317 22.125 84.29 22.125ZM84.29 21.2969C84.7015 21.2969 85.04 21.1914 85.3057 20.9805C85.5713 20.7695 85.7679 20.4922 85.8955 20.1484C86.0231 19.8047 86.0869 19.4323 86.0869 19.0312C86.0869 18.6302 86.0231 18.2565 85.8955 17.9102C85.7679 17.5638 85.5713 17.2839 85.3057 17.0703C85.04 16.8568 84.7015 16.75 84.29 16.75C83.8786 16.75 83.54 16.8568 83.2744 17.0703C83.0088 17.2839 82.8122 17.5638 82.6846 17.9102C82.557 18.2565 82.4932 18.6302 82.4932 19.0312C82.4932 19.4323 82.557 19.8047 82.6846 20.1484C82.8122 20.4922 83.0088 20.7695 83.2744 20.9805C83.54 21.1914 83.8786 21.2969 84.29 21.2969ZM89.5713 22L87.7432 16H88.7119L90.0088 20.5938H90.0713L91.3525 16H92.3369L93.6025 20.5781H93.665L94.9619 16H95.9307L94.1025 22H93.1963L91.8838 17.3906H91.79L90.4775 22H89.5713ZM98.0713 18.3906V22H97.1494V16H98.04V16.9375H98.1182C98.2588 16.6328 98.4723 16.388 98.7588 16.2031C99.0452 16.0156 99.415 15.9219 99.8682 15.9219C100.274 15.9219 100.63 16.0052 100.935 16.1719C101.239 16.3359 101.476 16.5859 101.646 16.9219C101.815 17.2552 101.899 17.6771 101.899 18.1875V22H100.978V18.25C100.978 17.7786 100.855 17.4115 100.61 17.1484C100.366 16.8828 100.03 16.75 99.6025 16.75C99.3083 16.75 99.0452 16.8138 98.8135 16.9414C98.5843 17.069 98.4033 17.2552 98.2705 17.5C98.1377 17.7448 98.0713 18.0417 98.0713 18.3906Z" fill="black"/>
</svg>
