<svg width="1065" height="7955" viewBox="0 0 1065 7955" fill="none" xmlns="http://www.w3.org/2000/svg">
<path d="M40 40H1025V7915H40V40Z" fill="#FAFAFA"/>
<path d="M40 40V38H38V40H40ZM1025 40H1027V38H1025V40ZM1025 7915V7917H1027V7915H1025ZM40 7915H38V7917H40V7915ZM40 40V42H1025V40V38H40V40ZM1025 40H1023V7915H1025H1027V40H1025ZM1025 7915V7913H40V7915V7917H1025V7915ZM40 7915H42V40H40H38V7915H40Z" fill="#DFDFDF"/>
<path d="M176.562 165V101H219.688V112.156H190.094V127.406H217.469V138.562H190.094V153.844H219.812V165H176.562ZM243.508 101V165H230.195V101H243.508ZM276.047 165.938C271.109 165.938 266.859 164.938 263.297 162.938C259.755 160.917 257.026 158.062 255.109 154.375C253.193 150.667 252.234 146.281 252.234 141.219C252.234 136.281 253.193 131.948 255.109 128.219C257.026 124.49 259.724 121.583 263.203 119.5C266.703 117.417 270.807 116.375 275.516 116.375C278.682 116.375 281.63 116.885 284.359 117.906C287.109 118.906 289.505 120.417 291.547 122.437C293.609 124.458 295.214 127 296.359 130.062C297.505 133.104 298.078 136.667 298.078 140.75V144.406H257.547V136.156H285.547C285.547 134.24 285.13 132.542 284.297 131.063C283.464 129.583 282.307 128.427 280.828 127.594C279.37 126.74 277.672 126.312 275.734 126.312C273.714 126.312 271.922 126.781 270.359 127.719C268.818 128.635 267.609 129.875 266.734 131.437C265.859 132.979 265.411 134.698 265.391 136.594V144.437C265.391 146.812 265.828 148.865 266.703 150.594C267.599 152.323 268.859 153.656 270.484 154.594C272.109 155.531 274.036 156 276.266 156C277.745 156 279.099 155.792 280.328 155.375C281.557 154.958 282.609 154.333 283.484 153.5C284.359 152.667 285.026 151.646 285.484 150.438L297.797 151.25C297.172 154.208 295.891 156.792 293.953 159C292.036 161.187 289.557 162.896 286.516 164.125C283.495 165.333 280.005 165.938 276.047 165.938ZM306.766 165V117H319.453V125.469H320.016C321.016 122.656 322.682 120.437 325.016 118.812C327.349 117.187 330.141 116.375 333.391 116.375C336.682 116.375 339.484 117.198 341.797 118.844C344.109 120.469 345.651 122.677 346.422 125.469H346.922C347.901 122.719 349.672 120.521 352.234 118.875C354.818 117.208 357.87 116.375 361.391 116.375C365.87 116.375 369.505 117.802 372.297 120.656C375.109 123.49 376.516 127.51 376.516 132.719V165H363.234V135.344C363.234 132.677 362.526 130.677 361.109 129.344C359.693 128.01 357.922 127.344 355.797 127.344C353.38 127.344 351.495 128.115 350.141 129.656C348.786 131.177 348.109 133.187 348.109 135.687V165H335.203V135.062C335.203 132.708 334.526 130.833 333.172 129.437C331.839 128.042 330.078 127.344 327.891 127.344C326.411 127.344 325.078 127.719 323.891 128.469C322.724 129.198 321.797 130.229 321.109 131.562C320.422 132.875 320.078 134.417 320.078 136.187V165H306.766ZM408.906 165.938C403.969 165.938 399.719 164.938 396.156 162.938C392.615 160.917 389.885 158.062 387.969 154.375C386.052 150.667 385.094 146.281 385.094 141.219C385.094 136.281 386.052 131.948 387.969 128.219C389.885 124.49 392.583 121.583 396.063 119.5C399.563 117.417 403.667 116.375 408.375 116.375C411.542 116.375 414.49 116.885 417.219 117.906C419.969 118.906 422.365 120.417 424.406 122.437C426.469 124.458 428.073 127 429.219 130.062C430.365 133.104 430.938 136.667 430.938 140.75V144.406H390.406V136.156H418.406C418.406 134.24 417.99 132.542 417.156 131.063C416.323 129.583 415.167 128.427 413.688 127.594C412.229 126.74 410.531 126.312 408.594 126.312C406.573 126.312 404.781 126.781 403.219 127.719C401.677 128.635 400.469 129.875 399.594 131.437C398.719 132.979 398.271 134.698 398.25 136.594V144.437C398.25 146.812 398.688 148.865 399.563 150.594C400.458 152.323 401.719 153.656 403.344 154.594C404.969 155.531 406.896 156 409.125 156C410.604 156 411.958 155.792 413.188 155.375C414.417 154.958 415.469 154.333 416.344 153.5C417.219 152.667 417.885 151.646 418.344 150.438L430.656 151.25C430.031 154.208 428.75 156.792 426.813 159C424.896 161.187 422.417 162.896 419.375 164.125C416.354 165.333 412.865 165.938 408.906 165.938ZM452.938 137.25V165H439.625V117H452.313V125.469H452.875C453.938 122.677 455.719 120.469 458.219 118.844C460.719 117.198 463.75 116.375 467.312 116.375C470.646 116.375 473.552 117.104 476.031 118.562C478.51 120.021 480.438 122.104 481.813 124.812C483.188 127.5 483.875 130.708 483.875 134.437V165H470.563V136.812C470.583 133.875 469.833 131.583 468.313 129.938C466.792 128.271 464.698 127.437 462.031 127.437C460.24 127.437 458.656 127.823 457.281 128.594C455.927 129.365 454.865 130.49 454.094 131.969C453.344 133.427 452.958 135.188 452.938 137.25ZM519.898 117V127H490.992V117H519.898ZM497.555 105.5H510.867V150.25C510.867 151.479 511.055 152.437 511.43 153.125C511.805 153.792 512.326 154.26 512.992 154.531C513.68 154.802 514.471 154.937 515.367 154.937C515.992 154.937 516.617 154.885 517.242 154.781C517.867 154.656 518.346 154.562 518.68 154.5L520.773 164.406C520.107 164.615 519.169 164.854 517.961 165.125C516.753 165.417 515.284 165.594 513.555 165.656C510.346 165.781 507.534 165.354 505.117 164.375C502.721 163.396 500.857 161.875 499.523 159.812C498.19 157.75 497.534 155.146 497.555 152V105.5Z" fill="black"/>
<path d="M179.64 501.32H182.92V496.5H184.98V509.7H182.92V503.02H179.64V501.32ZM180.76 505.54L179.74 507.14C177.74 506.46 176.28 505.04 175.52 503.26C174.72 505.22 173.2 506.8 171.06 507.54L170 505.92C172.8 504.94 174.44 502.56 174.44 500.12V499.5H170.62V497.84H180.28V499.5H176.52V500.12C176.52 502.34 178.06 504.6 180.76 505.54ZM175.34 512.52H185.44V514.2H173.28V508.56H175.34V512.52ZM197.258 498.56V500.22H186.518V498.56H190.878V496.54H192.938V498.56H197.258ZM189.518 504.5C189.518 505.6 190.498 506.28 191.918 506.28C193.338 506.28 194.298 505.6 194.298 504.5C194.298 503.38 193.338 502.7 191.918 502.7C190.498 502.7 189.518 503.38 189.518 504.5ZM192.938 507.78V509.46C194.478 509.38 196.018 509.28 197.458 509.06L197.618 510.58C193.758 511.26 189.578 511.3 186.478 511.3L186.198 509.6C187.578 509.6 189.198 509.6 190.878 509.54V507.78C188.878 507.44 187.578 506.22 187.578 504.5C187.578 502.46 189.338 501.12 191.918 501.12C194.478 501.12 196.238 502.46 196.238 504.5C196.238 506.22 194.938 507.46 192.938 507.78ZM203.098 504.02V505.72H200.538V514.54H198.478V496.46H200.538V504.02H203.098ZM209.937 505.22V502.28H205.677V505.22H209.937ZM211.957 503.12V506.9H203.637V497.68H205.677V500.66H209.937V497.68H211.957V501.44H215.717V496.48H217.777V509.86H215.717V503.12H211.957ZM208.097 512.52H218.197V514.2H206.017V508.54H208.097V512.52ZM234.735 498.94V500.6H219.955V498.94H226.335V496.72H228.395V498.94H234.735ZM223.435 505.1C223.435 506.3 224.875 506.98 227.335 506.98C229.815 506.98 231.255 506.3 231.255 505.1C231.255 503.92 229.815 503.24 227.335 503.24C224.875 503.24 223.435 503.92 223.435 505.1ZM228.395 510.88H235.575V512.58H219.195V510.88H226.335V508.56C223.235 508.34 221.335 507.1 221.335 505.1C221.335 502.92 223.655 501.64 227.335 501.64C231.035 501.64 233.355 502.92 233.355 505.1C233.355 507.1 231.495 508.32 228.395 508.56V510.88ZM251.629 496.48H253.689V506.18H251.629V496.48ZM241.889 507.02H243.929V509.02H251.649V507.02H253.689V514.32H241.889V507.02ZM243.929 510.62V512.66H251.649V510.62H243.929ZM243.949 497.3C246.709 497.3 248.729 499.02 248.729 501.5C248.729 503.98 246.709 505.7 243.949 505.7C241.189 505.7 239.149 503.98 239.149 501.5C239.149 499.02 241.189 497.3 243.949 497.3ZM243.949 499C242.309 499 241.169 500 241.169 501.5C241.169 503.02 242.309 504 243.949 504C245.569 504 246.729 503.02 246.729 501.5C246.729 500 245.569 499 243.949 499ZM264.588 504.84L264.808 506.5C262.628 506.88 260.788 506.94 257.248 506.94H255.928V501.34H261.688V499.18H255.888V497.52H263.728V502.92H257.948V505.26C260.968 505.26 262.628 505.18 264.588 504.84ZM257.948 510.18V508.5H270.168V514.58H268.108V510.18H257.948ZM268.108 496.48H270.168V507.6H268.108V504.52H264.868V502.86H268.108V500.74H264.868V499.08H268.108V496.48Z" fill="#1A1A1A"/>
<path d="M179.164 525.548H179.906V532.212H179.164V525.548ZM172.052 532.87H172.794V534.606H179.178V532.87H179.906V537.784H172.052V532.87ZM172.794 535.222V537.168H179.178V535.222H172.794ZM173.284 526.192C175.146 526.192 176.448 527.326 176.448 529.006C176.448 530.686 175.146 531.82 173.284 531.82C171.45 531.82 170.148 530.686 170.148 529.006C170.148 527.326 171.45 526.192 173.284 526.192ZM173.284 526.822C171.884 526.822 170.862 527.732 170.862 529.006C170.862 530.266 171.884 531.19 173.284 531.19C174.712 531.19 175.734 530.266 175.734 529.006C175.734 527.732 174.712 526.822 173.284 526.822ZM188.355 531.54L188.439 532.17C186.871 532.436 185.625 532.478 183.091 532.478H182.223V528.978H186.759V526.934H182.181V526.304H187.487V529.58H182.951V531.848H183.091C185.611 531.848 186.843 531.806 188.355 531.54ZM183.595 534.536V533.906H191.799V538.008H191.057V534.536H183.595ZM191.057 525.548H191.799V533.178H191.057V530.616H188.369V529.986H191.057V528.096H188.369V527.466H191.057V525.548ZM197.252 534.424C198.554 534.424 199.506 533.486 199.506 532.268C199.506 531.036 198.554 530.112 197.252 530.112C195.936 530.112 194.998 531.036 194.998 532.268C194.998 533.486 195.936 534.424 197.252 534.424ZM197.252 529.468C198.974 529.468 200.206 530.63 200.206 532.268C200.206 533.92 198.974 535.054 197.252 535.054C195.53 535.054 194.298 533.92 194.298 532.268C194.298 530.63 195.53 529.468 197.252 529.468ZM197.602 525.66V527.606H200.864V528.236H193.472V527.606H196.86V525.66H197.602ZM205.176 530.812V531.442H203.006V537.966H202.264V525.534H203.006V530.812H205.176ZM215.543 525.562V534.704H214.801V525.562H215.543ZM212.827 532.002L212.435 532.59C211.007 532.002 209.761 530.756 209.243 529.174C208.739 530.854 207.507 532.198 206.079 532.842L205.659 532.24C207.409 531.498 208.865 529.636 208.865 527.536V526.248H209.593V527.536C209.593 529.552 211.105 531.316 212.827 532.002ZM208.473 537.042H215.963V537.672H207.731V533.878H208.473V537.042ZM225.545 531.918V529.37H221.569V531.918H225.545ZM226.273 529.804V532.548H220.827V526.374H221.569V528.754H225.545V526.374H226.273V529.174H229.535V525.562H230.277V534.774H229.535V529.804H226.273ZM223.179 537.042H230.585V537.672H222.437V533.878H223.179V537.042ZM242.618 527.536V528.166H232.636V527.536H237.284V525.786H238.026V527.536H242.618ZM234.414 531.498C234.414 532.562 235.688 533.234 237.648 533.234C239.608 533.234 240.882 532.562 240.882 531.498C240.882 530.448 239.608 529.79 237.648 529.79C235.688 529.79 234.414 530.448 234.414 531.498ZM238.026 535.768H243.304V536.398H232.034V535.768H237.284V533.836C235.044 533.738 233.672 532.898 233.672 531.498C233.672 530.028 235.198 529.174 237.648 529.174C240.098 529.174 241.624 530.028 241.624 531.498C241.624 532.898 240.252 533.738 238.026 533.822V535.768ZM249.891 535.712H255.197V536.356H243.899V535.712H249.149V533.094H245.383V529.454H252.985V527.158H245.341V526.542H253.713V530.07H246.111V532.464H254.007V533.094H249.891V535.712ZM268.742 525.562V534.732H268V525.562H268.742ZM259.698 529.454C259.698 530.798 260.748 531.82 262.134 531.82C263.52 531.82 264.57 530.798 264.57 529.454C264.57 528.124 263.52 527.116 262.134 527.116C260.748 527.116 259.698 528.124 259.698 529.454ZM265.284 529.454C265.284 531.232 263.954 532.478 262.134 532.478C260.314 532.478 258.984 531.232 258.984 529.454C258.984 527.69 260.314 526.458 262.134 526.458C263.954 526.458 265.284 527.69 265.284 529.454ZM261.672 537.042H269.162V537.672H260.93V533.766H261.672V537.042ZM271.507 530.644L271.227 530.042C273.159 529.79 275.707 528.67 275.707 526.99V526.836H271.549V526.22H280.733V526.836H276.575V526.99C276.575 528.67 279.109 529.79 281.041 530.042L280.761 530.644C278.941 530.364 276.799 529.454 276.141 527.984C275.469 529.454 273.327 530.364 271.507 530.644ZM276.141 537.336C278.255 537.336 279.613 536.734 279.613 535.726C279.613 534.718 278.255 534.116 276.141 534.116C273.999 534.116 272.641 534.718 272.641 535.726C272.641 536.734 273.999 537.336 276.141 537.336ZM276.141 533.5C278.773 533.5 280.355 534.298 280.355 535.726C280.355 537.154 278.773 537.938 276.141 537.938C273.495 537.938 271.899 537.154 271.899 535.726C271.899 534.298 273.495 533.5 276.141 533.5ZM270.499 531.568H281.741V532.198H270.499V531.568ZM287.782 531.918V529.37H283.806V531.918H287.782ZM288.51 529.804V532.548H283.064V526.374H283.806V528.754H287.782V526.374H288.51V529.174H291.772V525.562H292.514V534.774H291.772V529.804H288.51ZM285.416 537.042H292.822V537.672H284.674V533.878H285.416V537.042ZM304.855 527.536V528.166H294.873V527.536H299.521V525.786H300.263V527.536H304.855ZM296.651 531.498C296.651 532.562 297.925 533.234 299.885 533.234C301.845 533.234 303.119 532.562 303.119 531.498C303.119 530.448 301.845 529.79 299.885 529.79C297.925 529.79 296.651 530.448 296.651 531.498ZM300.263 535.768H305.541V536.398H294.271V535.768H299.521V533.836C297.281 533.738 295.909 532.898 295.909 531.498C295.909 530.028 297.435 529.174 299.885 529.174C302.335 529.174 303.861 530.028 303.861 531.498C303.861 532.898 302.489 533.738 300.263 533.822V535.768ZM306.85 526.92H312.45C312.45 530.308 310.7 533.514 306.752 535.488L306.332 534.9C309.692 533.234 311.526 530.574 311.722 527.55H306.85V526.92ZM317.742 530.756V531.4H315.6V537.98H314.858V525.548H315.6V530.756H317.742ZM327.436 529.104H330.25V525.548H330.992V534.704H330.25V529.734H327.436V529.104ZM328.094 532.058L327.716 532.66C326.316 532.114 325.126 530.994 324.608 529.608C324.104 531.162 322.83 532.394 321.374 532.982L320.982 532.38C322.704 531.736 324.23 530.07 324.23 528.194V527.284H321.262V526.654H327.87V527.284H324.958V528.18C324.958 529.874 326.4 531.442 328.094 532.058ZM323.964 537.042H331.37V537.672H323.222V533.864H323.964V537.042ZM343.249 529.846L342.955 530.448C341.247 530.126 339.119 529.076 338.363 527.55C337.635 529.104 335.507 530.126 333.771 530.448L333.477 529.846C335.353 529.566 337.985 528.208 337.985 526.374V525.716H338.741V526.374C338.741 528.18 341.387 529.566 343.249 529.846ZM338.363 537.336C340.505 537.336 341.849 536.776 341.849 535.824C341.849 534.886 340.505 534.326 338.363 534.326C336.221 534.326 334.877 534.886 334.877 535.824C334.877 536.776 336.221 537.336 338.363 537.336ZM338.363 533.724C341.009 533.724 342.591 534.48 342.591 535.824C342.591 537.182 341.009 537.938 338.363 537.938C335.717 537.938 334.135 537.182 334.135 535.824C334.135 534.48 335.717 533.724 338.363 533.724ZM338.727 531.848H343.977V532.478H332.735V531.848H337.985V529.86H338.727V531.848ZM352.804 531.204L352.846 531.778C350.102 532.24 347.05 532.282 344.81 532.282L344.684 531.638C345.776 531.638 347.05 531.638 348.38 531.582V530.014H345.832V526.206H351.628V526.822H346.574V529.384H351.754V530.014H349.122V531.554C350.368 531.484 351.642 531.386 352.804 531.204ZM353.98 537.154V535.418H347.456V537.154H353.98ZM353.98 534.802V533.248H354.694V537.784H346.728V533.248H347.456V534.802H353.98ZM353.966 525.562H354.694V532.688H353.966V525.562ZM358.103 534.032H358.341C360.287 534.032 362.219 533.878 364.333 533.43L364.445 534.074C362.261 534.522 360.357 534.69 358.341 534.69H357.375V526.766H358.103V534.032ZM365.817 525.548H366.559V537.98H365.817V525.548ZM369.688 534.172H369.884C372.292 534.172 373.888 534.074 375.75 533.724L375.848 534.368C373.916 534.732 372.32 534.816 369.884 534.816H368.946V526.78H374.7V527.41H369.688V534.172ZM380.006 530.644V531.274H377.836V537.994H377.094V525.548H377.836V530.644H380.006ZM380.755 537.07C380.549 537.07 380.377 537 380.237 536.86C380.106 536.72 380.041 536.547 380.041 536.342C380.041 536.137 380.106 535.969 380.237 535.838C380.377 535.698 380.549 535.628 380.755 535.628C380.951 535.628 381.114 535.698 381.245 535.838C381.385 535.969 381.455 536.137 381.455 536.342C381.455 536.547 381.385 536.72 381.245 536.86C381.114 537 380.951 537.07 380.755 537.07Z" fill="#1A1A1A"/>
<rect x="40" y="4" width="54" height="30" rx="3" fill="#FAFAFA"/>
<rect x="40.5" y="4.5" width="53" height="29" rx="2.5" stroke="black" stroke-opacity="0.2"/>
<path d="M46.9688 22V14H51.7969V14.8594H47.9375V17.5625H51.5469V18.4219H47.9375V21.1406H51.8594V22H46.9688ZM54.3398 14V22H53.418V14H54.3398ZM58.5439 22.125C57.9658 22.125 57.4671 21.9974 57.0479 21.7422C56.6312 21.4844 56.3096 21.125 56.083 20.6641C55.859 20.2005 55.7471 19.6615 55.7471 19.0469C55.7471 18.4323 55.859 17.8906 56.083 17.4219C56.3096 16.9505 56.6247 16.5833 57.0283 16.3203C57.4346 16.0547 57.9085 15.9219 58.4502 15.9219C58.7627 15.9219 59.0713 15.974 59.376 16.0781C59.6807 16.1823 59.958 16.3516 60.208 16.5859C60.458 16.8177 60.6572 17.125 60.8057 17.5078C60.9541 17.8906 61.0283 18.362 61.0283 18.9219V19.3125H56.4033V18.5156H60.0908C60.0908 18.1771 60.0231 17.875 59.8877 17.6094C59.7549 17.3437 59.5648 17.1341 59.3174 16.9805C59.0726 16.8268 58.7835 16.75 58.4502 16.75C58.083 16.75 57.7653 16.8411 57.4971 17.0234C57.2314 17.2031 57.027 17.4375 56.8838 17.7266C56.7406 18.0156 56.6689 18.3255 56.6689 18.6562V19.1875C56.6689 19.6406 56.7471 20.0247 56.9033 20.3398C57.0622 20.6523 57.2822 20.8906 57.5635 21.0547C57.8447 21.2161 58.1715 21.2969 58.5439 21.2969C58.7861 21.2969 59.0049 21.263 59.2002 21.1953C59.3981 21.125 59.5687 21.0208 59.7119 20.8828C59.8551 20.7422 59.9658 20.5677 60.0439 20.3594L60.9346 20.6094C60.8408 20.9115 60.6833 21.1771 60.4619 21.4062C60.2406 21.6328 59.9671 21.8099 59.6416 21.9375C59.3161 22.0625 58.9502 22.125 58.5439 22.125ZM62.4307 22V16H63.3213V16.9375H63.3994C63.5244 16.6172 63.7262 16.3685 64.0049 16.1914C64.2835 16.0117 64.6182 15.9219 65.0088 15.9219C65.4046 15.9219 65.734 16.0117 65.9971 16.1914C66.2627 16.3685 66.4697 16.6172 66.6182 16.9375H66.6807C66.8343 16.6276 67.0648 16.3815 67.3721 16.1992C67.6794 16.0143 68.0479 15.9219 68.4775 15.9219C69.014 15.9219 69.4528 16.0898 69.7939 16.4258C70.1351 16.7591 70.3057 17.2786 70.3057 17.9844V22H69.3838V17.9844C69.3838 17.5417 69.2627 17.2253 69.0205 17.0352C68.7783 16.8451 68.4932 16.75 68.165 16.75C67.7432 16.75 67.4163 16.8776 67.1846 17.1328C66.9528 17.3854 66.8369 17.7057 66.8369 18.0937V22H65.8994V17.8906C65.8994 17.5495 65.7887 17.2747 65.5674 17.0664C65.346 16.8555 65.0609 16.75 64.7119 16.75C64.4723 16.75 64.2484 16.8138 64.04 16.9414C63.8343 17.069 63.6676 17.2461 63.54 17.4727C63.415 17.6966 63.3525 17.9557 63.3525 18.25V22H62.4307ZM74.5068 22.125C73.9287 22.125 73.43 21.9974 73.0107 21.7422C72.5941 21.4844 72.2725 21.125 72.0459 20.6641C71.8219 20.2005 71.71 19.6615 71.71 19.0469C71.71 18.4323 71.8219 17.8906 72.0459 17.4219C72.2725 16.9505 72.5876 16.5833 72.9912 16.3203C73.3975 16.0547 73.8714 15.9219 74.4131 15.9219C74.7256 15.9219 75.0342 15.974 75.3389 16.0781C75.6436 16.1823 75.9209 16.3516 76.1709 16.5859C76.4209 16.8177 76.6201 17.125 76.7686 17.5078C76.917 17.8906 76.9912 18.362 76.9912 18.9219V19.3125H72.3662V18.5156H76.0537C76.0537 18.1771 75.986 17.875 75.8506 17.6094C75.7178 17.3437 75.5277 17.1341 75.2803 16.9805C75.0355 16.8268 74.7464 16.75 74.4131 16.75C74.0459 16.75 73.7282 16.8411 73.46 17.0234C73.1943 17.2031 72.9899 17.4375 72.8467 17.7266C72.7035 18.0156 72.6318 18.3255 72.6318 18.6562V19.1875C72.6318 19.6406 72.71 20.0247 72.8662 20.3398C73.0251 20.6523 73.2451 20.8906 73.5264 21.0547C73.8076 21.2161 74.1344 21.2969 74.5068 21.2969C74.749 21.2969 74.9678 21.263 75.1631 21.1953C75.361 21.125 75.5316 21.0208 75.6748 20.8828C75.818 20.7422 75.9287 20.5677 76.0068 20.3594L76.8975 20.6094C76.8037 20.9115 76.6462 21.1771 76.4248 21.4062C76.2035 21.6328 75.93 21.8099 75.6045 21.9375C75.279 22.0625 74.9131 22.125 74.5068 22.125ZM79.3154 18.3906V22H78.3936V16H79.2842V16.9375H79.3623C79.5029 16.6328 79.7165 16.388 80.0029 16.2031C80.2894 16.0156 80.6592 15.9219 81.1123 15.9219C81.5186 15.9219 81.874 16.0052 82.1787 16.1719C82.4834 16.3359 82.7204 16.5859 82.8896 16.9219C83.0589 17.2552 83.1436 17.6771 83.1436 18.1875V22H82.2217V18.25C82.2217 17.7786 82.0993 17.4115 81.8545 17.1484C81.6097 16.8828 81.2738 16.75 80.8467 16.75C80.5524 16.75 80.2894 16.8138 80.0576 16.9414C79.8285 17.069 79.6475 17.2552 79.5146 17.5C79.3818 17.7448 79.3154 18.0417 79.3154 18.3906ZM87.4375 16V16.7812H84.3281V16H87.4375ZM85.2344 14.5625H86.1563V20.2812C86.1563 20.5417 86.194 20.737 86.2695 20.8672C86.3477 20.9948 86.4466 21.0807 86.5664 21.125C86.6888 21.1667 86.8177 21.1875 86.9531 21.1875C87.0547 21.1875 87.138 21.1823 87.2031 21.1719C87.2682 21.1589 87.3203 21.1484 87.3594 21.1406L87.5469 21.9687C87.4844 21.9922 87.3971 22.0156 87.2852 22.0391C87.1732 22.0651 87.0313 22.0781 86.8594 22.0781C86.599 22.0781 86.3438 22.0221 86.0938 21.9102C85.8464 21.7982 85.6406 21.6276 85.4766 21.3984C85.3151 21.1693 85.2344 20.8802 85.2344 20.5312V14.5625Z" fill="black"/>
</svg>
