<svg width="166" height="140" viewBox="0 0 166 140" fill="none" xmlns="http://www.w3.org/2000/svg">
<path d="M126.1 101.235C125.234 101.235 124.627 101.103 124.278 100.837C123.929 100.558 123.734 100.195 123.692 99.7487C123.692 99.0927 123.929 98.4507 124.404 97.8226C124.892 97.1805 125.611 96.8595 126.56 96.8595C127.37 96.8595 127.935 97.02 128.256 97.341C128.577 97.6481 128.738 98.0389 128.738 98.5135C128.738 99.0438 128.528 99.6301 128.11 100.272C127.705 100.914 127.035 101.235 126.1 101.235ZM120.97 118.382C119.84 118.382 118.947 118.096 118.291 117.523C117.649 116.937 117.328 116.03 117.328 114.802C117.328 113.95 117.481 113.106 117.788 112.268C118.109 111.417 118.458 110.621 118.835 109.882C119.226 109.128 119.533 108.472 119.756 107.914C119.826 107.732 119.945 107.453 120.112 107.076C120.294 106.699 120.482 106.316 120.677 105.925L121.389 104.459C121.626 104.069 121.899 103.789 122.206 103.622C122.513 103.454 122.827 103.371 123.148 103.371C123.678 103.371 124.132 103.545 124.509 103.894C124.899 104.229 125.095 104.662 125.095 105.192C125.081 105.318 125.06 105.443 125.032 105.569C125.018 105.695 124.976 105.82 124.906 105.946C124.599 106.504 124.334 107.027 124.111 107.516C123.888 107.991 123.657 108.472 123.42 108.961C123.225 109.365 122.98 109.861 122.687 110.447C122.394 111.033 122.136 111.626 121.913 112.227C121.689 112.813 121.578 113.336 121.578 113.797C121.578 114.174 121.668 114.425 121.85 114.55C122.045 114.662 122.317 114.718 122.666 114.718C123.225 114.718 123.839 114.544 124.509 114.195C125.193 113.846 125.842 113.413 126.456 112.897C127.098 112.38 127.691 111.857 128.235 111.326C128.78 110.782 129.184 110.342 129.45 110.007C129.715 109.742 129.994 109.61 130.287 109.61C130.538 109.61 130.741 109.721 130.894 109.945C131.062 110.168 131.145 110.454 131.145 110.803C131.145 111.124 131.062 111.466 130.894 111.829C130.741 112.192 130.482 112.534 130.12 112.855C129.198 113.79 128.235 114.683 127.23 115.534C126.225 116.372 125.193 117.056 124.132 117.586C123.085 118.117 122.031 118.382 120.97 118.382ZM123.169 128.494C122.666 128.494 122.255 128.389 121.933 128.18C121.599 127.984 121.431 127.601 121.431 127.028C121.431 126.484 121.578 125.905 121.871 125.291C122.164 124.677 122.415 124.139 122.624 123.679C123.601 121.878 124.606 120.036 125.639 118.152C126.672 116.281 127.635 114.439 128.528 112.624C129.436 110.81 130.161 109.086 130.706 107.453C130.803 107.23 130.943 106.902 131.124 106.469C131.306 106.023 131.529 105.562 131.794 105.087C132.06 104.613 132.353 104.208 132.674 103.873C132.995 103.538 133.337 103.371 133.7 103.371C134.76 103.371 135.291 103.796 135.291 104.648C135.291 104.801 135.242 105.122 135.144 105.611C135.06 106.085 134.97 106.413 134.872 106.595C135.556 105.967 136.31 105.353 137.133 104.752C137.957 104.138 138.815 103.636 139.708 103.245C140.615 102.84 141.509 102.638 142.388 102.638C143.309 102.638 144.168 102.861 144.963 103.308C145.773 103.741 146.177 104.39 146.177 105.255C146.177 106.078 145.822 107 145.11 108.018C144.412 109.023 143.609 110 142.702 110.949C142.172 111.508 141.634 112.052 141.09 112.583C140.546 113.099 140.085 113.546 139.708 113.922C139.345 114.299 139.157 114.55 139.143 114.676C139.143 115.053 139.415 115.241 139.959 115.241C140.518 115.241 141.669 114.641 143.414 113.441C145.159 112.227 147.629 110.419 150.825 108.018C151.258 107.767 151.6 107.642 151.851 107.642C152.158 107.642 152.389 107.76 152.542 107.998C152.696 108.221 152.772 108.5 152.772 108.835C152.772 109.198 152.675 109.568 152.479 109.945C152.298 110.321 152.019 110.635 151.642 110.887C150.19 111.961 148.857 112.98 147.643 113.943C146.457 114.878 145.354 115.667 144.335 116.309C143.288 116.979 142.269 117.496 141.278 117.858C140.287 118.221 139.227 118.403 138.096 118.403C137.035 118.403 136.212 118.207 135.626 117.817C135.053 117.426 134.767 116.888 134.767 116.204V116.037L134.788 115.869C134.872 115.255 135.284 114.509 136.023 113.629C136.777 112.736 137.601 111.843 138.494 110.949C139.359 110.084 140.148 109.261 140.86 108.479C141.572 107.697 141.927 107.097 141.927 106.679C141.927 106.316 141.627 106.134 141.027 106.134C140.204 106.134 139.338 106.392 138.431 106.909C137.538 107.425 136.679 108.088 135.856 108.898C135.005 109.707 134.251 110.552 133.595 111.431C132.939 112.31 132.395 113.127 131.962 113.881L130.538 116.539C130.217 117.14 129.938 117.663 129.701 118.11C129.477 118.556 129.324 118.856 129.24 119.01C129.142 119.191 128.954 119.589 128.675 120.203C128.41 120.817 128.082 121.557 127.691 122.422C127.3 123.274 126.965 124.007 126.686 124.621C126.421 125.249 126.26 125.647 126.204 125.814C125.939 126.526 125.562 127.147 125.074 127.677C124.585 128.222 123.95 128.494 123.169 128.494Z" fill="#00A2BD"/>
<path d="M24.3153 118.277C22.6125 118.277 21.161 118.138 19.9606 117.858C18.7743 117.593 17.7972 117.223 17.0296 116.749C16.2619 116.288 15.7036 115.758 15.3547 115.158C15.0058 114.544 14.8313 113.901 14.8313 113.232C14.8313 111.794 15.5152 110.405 16.883 109.065C17.539 108.423 18.3137 107.851 19.2069 107.348C20.1142 106.846 21.1121 106.462 22.2008 106.197C22.6056 106.197 22.8987 106.364 23.0801 106.699C23.2755 107.02 23.3732 107.39 23.3732 107.809C23.3732 108.214 23.2755 108.535 23.0801 108.772C22.8847 108.995 22.4381 109.254 21.7402 109.547C20.9586 109.882 20.3445 110.287 19.8978 110.761C19.4512 111.222 19.2279 111.682 19.2279 112.143C19.2279 112.729 19.6326 113.245 20.4422 113.692C21.2657 114.125 22.6056 114.341 24.4619 114.341C25.746 114.341 26.9254 114.139 28.0001 113.734C29.0888 113.329 29.9611 112.778 30.6171 112.08C31.2731 111.368 31.6011 110.566 31.6011 109.672C31.6011 109.17 31.3917 108.647 30.973 108.102C30.5543 107.558 29.8913 106.993 28.9841 106.406C28.1746 105.876 27.4627 105.401 26.8486 104.983C26.2484 104.564 25.746 104.194 25.3412 103.873L23.7919 102.659C22.7451 101.738 21.9635 100.851 21.4471 99.9999C20.9307 99.1485 20.6725 98.2622 20.6725 97.341C20.6725 96.0849 21.1121 94.8776 21.9914 93.7191C22.8708 92.5467 24.0013 91.4999 25.3831 90.5787C26.7649 89.6715 28.2374 88.9596 29.8006 88.4432C31.3638 87.9128 32.8084 87.6476 34.1344 87.6476C35.5022 87.6476 36.6397 87.9687 37.5469 88.6107C38.4681 89.2527 38.9287 90.2926 38.9287 91.7302C38.9287 93.8657 37.7144 95.7499 35.2858 97.3829C34.7415 97.7598 34.239 97.9482 33.7785 97.9482C33.3039 97.9482 32.9271 97.7807 32.6479 97.4457C32.3688 97.0968 32.2292 96.692 32.2292 96.2314C32.2292 95.8406 32.3408 95.4498 32.5642 95.059C32.8014 94.6682 33.1783 94.3332 33.6947 94.0541C34.0995 93.8447 34.4554 93.5656 34.7624 93.2166C35.0835 92.8537 35.244 92.5048 35.244 92.1698C35.244 91.8488 35.1323 91.6395 34.909 91.5417C34.6996 91.444 34.4414 91.3952 34.1344 91.3952C33.269 91.3952 32.299 91.5487 31.2243 91.8558C30.1495 92.1629 29.1237 92.5816 28.1466 93.112C27.1138 93.6703 26.2903 94.2774 25.6762 94.9334C25.076 95.5894 24.7759 96.2384 24.7759 96.8804C24.7759 97.4806 25.0202 98.0319 25.5087 98.5344C26.0112 99.0369 26.716 99.6231 27.6232 100.293L32.5223 103.915C33.7226 104.808 34.6857 105.688 35.4115 106.553C36.1373 107.404 36.5001 108.332 36.5001 109.337C36.5001 110.817 35.9907 112.241 34.9718 113.608C33.9669 114.976 32.5502 116.1 30.7218 116.979C28.9073 117.844 26.7718 118.277 24.3153 118.277ZM41.5039 118.382C41.0293 118.382 40.464 118.249 39.808 117.984C39.152 117.719 38.5728 117.279 38.0703 116.665C37.5818 116.051 37.3376 115.227 37.3376 114.195C37.3376 113.329 37.533 112.248 37.9238 110.949C38.3146 109.651 38.9287 108.374 39.7662 107.118C40.6036 105.834 41.6714 104.766 42.9694 103.915C44.2814 103.064 45.7958 102.638 47.5125 102.638C48.1266 102.638 48.664 102.715 49.1246 102.868C49.5852 103.022 49.976 103.189 50.297 103.371C50.4785 103.482 50.646 103.601 50.7995 103.727C50.967 103.838 51.1205 103.964 51.2601 104.103L51.9928 103.747C52.2022 103.65 52.4185 103.566 52.6419 103.496C52.8791 103.413 53.0815 103.371 53.249 103.371C53.7794 103.371 54.2121 103.517 54.547 103.81C54.882 104.103 55.0495 104.424 55.0495 104.773C55.0495 104.885 55.0425 104.962 55.0286 105.004C54.9309 105.394 54.7494 105.932 54.4842 106.616C54.233 107.3 53.9608 108.06 53.6677 108.898C53.3746 109.707 53.1234 110.489 52.914 111.243C52.7186 111.996 52.6209 112.617 52.6209 113.106C52.6209 113.525 52.6907 113.874 52.8303 114.153C52.9699 114.418 53.2071 114.55 53.5421 114.55C53.9469 114.55 54.4912 114.32 55.1751 113.86C55.859 113.385 56.5639 112.827 57.2897 112.185C57.6805 111.836 58.0852 111.466 58.504 111.075C58.9227 110.67 59.3484 110.245 59.7811 109.798C60.0044 109.617 60.2207 109.526 60.4301 109.526C60.7092 109.526 60.9395 109.665 61.121 109.945C61.3164 110.21 61.4141 110.51 61.4141 110.845C61.4141 111.236 61.2815 111.564 61.0163 111.829C60.458 112.345 59.8857 112.897 59.2995 113.483C58.7133 114.069 57.9038 114.788 56.8709 115.639C55.9498 116.393 55.0007 117.042 54.0236 117.586C53.0466 118.117 52.1673 118.382 51.3857 118.382C50.4087 118.382 49.6969 118.005 49.2502 117.251C48.8036 116.484 48.5803 115.667 48.5803 114.802C48.5803 114.174 48.671 113.615 48.8524 113.127C48.2802 113.895 47.6032 114.69 46.8216 115.514C46.04 116.323 45.1956 117.007 44.2884 117.565C43.3811 118.11 42.453 118.382 41.5039 118.382ZM43.1788 114.697C43.6254 114.697 44.1837 114.411 44.8536 113.839C45.5375 113.266 46.1935 112.596 46.8216 111.829C47.5195 110.991 48.0708 110.231 48.4756 109.547C48.8803 108.863 49.0827 108.402 49.0827 108.165C49.0827 107.635 48.7757 107.216 48.1615 106.909C47.5474 106.588 46.9961 106.427 46.5076 106.427C45.6422 106.427 44.8187 106.706 44.0371 107.265C43.2695 107.823 42.6414 108.542 42.1529 109.421C41.6644 110.287 41.4201 111.187 41.4201 112.122C41.4201 112.666 41.5178 113.232 41.7132 113.818C41.9226 114.404 42.4111 114.697 43.1788 114.697ZM55.1542 124.202C54.8192 124.202 54.5191 124.118 54.2539 123.951C53.9887 123.783 53.8561 123.518 53.8561 123.155C53.8561 122.834 54.0167 122.339 54.3377 121.669L61.7281 106.009H60.6185C59.8508 106.009 59.3274 105.89 59.0483 105.653C58.7691 105.415 58.6296 105.136 58.6296 104.815C58.6296 104.48 58.804 104.159 59.153 103.852C59.5019 103.531 60.0114 103.371 60.6813 103.371H63.1518C64.4777 100.691 65.7967 98.6321 67.1087 97.1945C68.4346 95.7429 69.7257 94.738 70.9819 94.1797C72.238 93.6214 73.4174 93.3423 74.5201 93.3423C75.3017 93.3423 75.9926 93.6563 76.5927 94.2844C77.1929 94.8985 77.493 95.8267 77.493 97.0689C77.493 97.6551 77.4092 98.3181 77.2417 99.0578C77.158 99.4347 76.9347 99.7068 76.5718 99.8743C76.2229 100.028 75.9367 100.105 75.7134 100.105C75.4343 100.105 75.1761 100.042 74.9388 99.9162C74.7015 99.7766 74.5829 99.5672 74.5829 99.2881C74.5829 99.1485 74.5968 98.981 74.6247 98.7856C74.6387 98.6879 74.6457 98.5344 74.6457 98.325C74.6457 97.2364 74.2479 96.692 73.4523 96.692C72.894 96.692 72.2101 97.013 71.4006 97.6551C70.5911 98.2832 69.7955 99.1067 69.0139 100.126C68.2323 101.144 67.6042 102.226 67.1296 103.371H72.0077C72.915 103.371 73.6617 103.419 74.2479 103.517C74.8341 103.615 75.1272 103.964 75.1272 104.564C75.1272 104.913 74.9946 105.22 74.7294 105.485C74.4642 105.75 73.9827 105.911 73.2848 105.967C71.9728 106.023 70.6957 106.057 69.4535 106.071C68.2113 106.071 66.9552 106.071 65.685 106.071C65.378 106.686 64.9872 107.481 64.5126 108.458C64.0381 109.421 63.5426 110.447 63.0262 111.536C62.5097 112.624 62.0212 113.657 61.5606 114.634C60.7511 116.337 60.0393 117.824 59.4251 119.094C58.825 120.378 58.3644 121.348 58.0434 122.004C57.7363 122.646 57.3036 123.169 56.7453 123.574C56.201 123.993 55.6706 124.202 55.1542 124.202ZM73.1173 118.382C72.0008 118.382 71.0447 118.11 70.2491 117.565C69.4675 117.007 68.8673 116.281 68.4486 115.388C68.0438 114.481 67.8415 113.511 67.8415 112.478C67.8415 111.571 68.0997 110.559 68.6161 109.442C69.1465 108.312 69.9002 107.23 70.8772 106.197C71.8542 105.164 73.0196 104.313 74.3735 103.643C75.7413 102.959 77.2278 102.617 78.8329 102.617C79.9914 102.617 80.8567 102.896 81.429 103.454C82.0012 104.013 82.2873 104.787 82.2873 105.778C82.2873 106.364 82.1338 106.979 81.8268 107.621C81.5197 108.263 80.9893 108.912 80.2356 109.568C79.4819 110.238 78.47 110.922 77.1999 111.619C75.9437 112.303 74.3665 112.994 72.4683 113.692C72.6219 114.557 73.3197 114.99 74.5619 114.99C75.525 114.99 76.5648 114.795 77.6814 114.404C78.798 113.999 79.8727 113.539 80.9056 113.022C81.9384 112.52 82.8247 112.045 83.5644 111.599C84.3042 111.152 84.7438 110.901 84.8834 110.845C85.009 110.761 85.1207 110.712 85.2184 110.698C85.3301 110.684 85.4278 110.677 85.5115 110.677C85.8465 110.677 86.0768 110.81 86.2024 111.075C86.342 111.326 86.4118 111.536 86.4118 111.703C86.4118 111.829 86.3978 111.982 86.3699 112.164C86.342 112.331 86.2373 112.527 86.0558 112.75C85.8744 112.931 85.344 113.329 84.4647 113.943C83.5854 114.557 82.6433 115.151 81.6383 115.723C80.4101 116.407 79.0423 117.021 77.5349 117.565C76.0275 118.11 74.555 118.382 73.1173 118.382ZM72.1543 111.284C73.0615 110.81 73.9827 110.259 74.9178 109.631C75.8669 108.988 76.5858 108.521 77.0743 108.228C77.7303 107.809 78.1629 107.439 78.3723 107.118C78.6096 106.769 78.7282 106.476 78.7282 106.239C78.7282 106.03 78.6584 105.862 78.5189 105.736C78.3932 105.611 78.2467 105.534 78.0792 105.506L77.8908 105.485H77.7023C76.9347 105.485 76.2229 105.708 75.5669 106.155C74.9248 106.588 74.3805 107.132 73.9339 107.788C73.4593 108.472 73.0755 109.114 72.7824 109.714C72.5032 110.314 72.2939 110.838 72.1543 111.284ZM113.608 96.378C113.259 96.378 112.861 96.3082 112.414 96.1686C111.968 96.0151 111.744 95.701 111.744 95.2265C111.744 95.0451 111.842 94.7868 112.038 94.4519C112.247 94.1169 112.449 93.7749 112.645 93.426C112.84 93.0631 112.938 92.77 112.938 92.5467C112.938 92.0721 112.603 91.7232 111.933 91.4999C111.263 91.2905 110.139 91.1858 108.562 91.1858C106.315 91.2696 104.312 91.4371 102.553 91.6883C100.795 91.9395 99.1967 92.2675 97.7591 92.6723C96.824 92.9375 95.9028 93.2236 94.9955 93.5307C94.0883 93.8238 93.1741 94.1378 92.2529 94.4728C91.7784 94.6542 91.2968 94.8287 90.8083 94.9962C90.3198 95.1637 89.8104 95.3382 89.28 95.5196L89.0078 95.6033C88.8683 95.6313 88.7845 95.6452 88.7566 95.6452C88.3239 95.6452 87.961 95.4638 87.6679 95.1009C87.3888 94.724 87.2492 94.3193 87.2492 93.8866C87.2492 93.3562 87.8633 92.7351 89.0916 92.0233C90.3338 91.3115 92.0156 90.6136 94.1372 89.9297C96.2308 89.2737 98.5547 88.7293 101.109 88.2967C103.663 87.864 106.231 87.6476 108.813 87.6476C111.8 87.6476 113.992 88.0943 115.387 88.9875C116.783 89.8808 117.495 91.0114 117.523 92.3792C117.523 92.7281 117.355 93.2236 117.02 93.8657C116.685 94.5077 116.225 95.0869 115.639 95.6033C115.052 96.1198 114.375 96.378 113.608 96.378ZM89.3428 119.408C88.8962 119.408 88.5193 119.289 88.2123 119.052C87.9052 118.828 87.7517 118.493 87.7517 118.047C87.7517 117.893 87.7656 117.726 87.7935 117.544C87.8354 117.349 87.9122 117.14 88.0238 116.916C89.0846 114.725 90.1454 112.617 91.2061 110.594C92.2669 108.57 93.2858 106.679 94.2628 104.92C94.7513 104.041 95.2258 103.203 95.6864 102.408C96.161 101.598 96.6146 100.83 97.0473 100.105C98.3314 97.997 99.4549 96.3222 100.418 95.0799C101.381 93.8238 102.044 93.1957 102.407 93.1957C102.895 93.1957 103.258 93.3353 103.496 93.6144C103.733 93.8936 103.852 94.2216 103.852 94.5984C103.852 94.8776 103.775 95.1846 103.621 95.5196L97.9475 107.16C97.3334 108.444 96.6914 109.763 96.0214 111.117C95.3515 112.457 94.7443 113.657 94.2 114.718C93.6696 115.765 93.2858 116.484 93.0485 116.874C92.6298 117.726 92.0645 118.361 91.3527 118.78C90.6548 119.198 89.9848 119.408 89.3428 119.408Z" fill="#00A2BD"/>
<ellipse cx="126.455" cy="98.1239" rx="3.6665" ry="3.46281" fill="#FF807B"/>
<path d="M117.067 107.398C117.535 107.445 117.911 107.655 118.195 108.028C118.502 108.381 118.631 108.802 118.582 109.291C118.553 109.567 118.459 109.858 118.299 110.164C117.879 110.915 117.334 111.526 116.664 111.994C115.994 112.463 115.287 112.659 114.543 112.583C113.948 112.523 113.459 112.258 113.078 111.79C112.717 111.324 112.574 110.73 112.647 110.007C112.688 109.603 112.754 109.17 112.844 108.707C112.921 108.371 112.966 108.14 112.979 108.012C112.996 107.842 112.967 107.71 112.891 107.617C112.835 107.525 112.755 107.474 112.649 107.463C112.351 107.433 111.911 107.753 111.327 108.424C110.746 109.073 110.14 109.956 109.511 111.073C108.883 112.19 108.343 113.38 107.892 114.644C107.554 115.64 107.22 116.293 106.888 116.603C106.555 116.913 106.049 117.033 105.369 116.964C104.562 116.881 104.031 116.398 103.778 115.513C103.546 114.631 103.525 113.255 103.715 111.385C103.996 108.622 104.656 106.038 105.696 103.632C105.95 103.035 106.303 102.62 106.756 102.387C107.233 102.135 107.864 102.049 108.651 102.129C109.076 102.172 109.368 102.255 109.527 102.379C109.686 102.503 109.75 102.713 109.72 103.011C109.686 103.351 109.448 104.099 109.008 105.257C108.709 106.085 108.464 106.812 108.271 107.436C108.079 108.061 107.893 108.836 107.713 109.763C108.6 108.006 109.537 106.599 110.525 105.54C111.514 104.481 112.447 103.75 113.325 103.345C114.204 102.941 114.983 102.773 115.663 102.843C116.279 102.905 116.728 103.133 117.01 103.527C117.316 103.902 117.434 104.429 117.365 105.109C117.324 105.513 117.129 106.266 116.78 107.368L117.067 107.398Z" fill="#00A2BD"/>
<path d="M112.713 35.7813C112.713 49.8157 92.3945 72.6721 84.2499 81.2703C82.4264 83.1954 79.437 83.1954 77.6135 81.2703C69.4689 72.6721 49.1504 49.8157 49.1504 35.7813C49.1504 18.229 63.3794 4 80.9317 4C98.484 4 112.713 18.229 112.713 35.7813Z" fill="#00A2BD"/>
<path d="M70.2874 12.6963L72.014 16.6165" stroke="white" stroke-width="3.63582" stroke-linecap="round"/>
<path d="M81.395 12.6963L78.8633 16.1517" stroke="white" stroke-width="3.63582" stroke-linecap="round"/>
<path d="M63.2021 21.5342L67.4605 21.999" stroke="white" stroke-width="3.63582" stroke-linecap="round"/>
<path d="M49.5955 47.1383C47.973 46.776 47.6477 44.606 49.0926 43.7839L103.672 12.7328C105.169 11.8813 106.9 13.3945 106.257 14.9919L82.9194 72.9533C82.3007 74.49 80.1167 74.4658 79.5321 72.9158L72.0156 52.9851C71.7994 52.4117 71.3088 51.9859 70.7108 51.8523L49.5955 47.1383Z" fill="white" stroke="white" stroke-width="1.81791"/>
<ellipse cx="79.9733" cy="39.3645" rx="13.8027" ry="8.01962" fill="#00A2BD"/>
<path d="M79.9709 20.8693C85.4302 20.8693 89.8565 25.2949 89.8567 30.7541V39.7892H89.7893C89.8315 39.9214 89.8547 40.0554 89.8547 40.1916C89.8542 42.1366 85.4291 43.7131 79.97 43.7131C74.5109 43.7131 70.0857 42.1365 70.0852 40.1916C70.0852 40.0554 70.1084 39.9214 70.1506 39.7892H70.0862V30.7541C70.0864 25.295 74.5119 20.8695 79.9709 20.8693Z" fill="#FF807B"/>
<path d="M80.0986 40.2147C80.0464 40.2147 79.9943 40.2139 79.9424 40.2137H80.2549C80.2029 40.2139 80.1509 40.2147 80.0986 40.2147ZM78.9941 36.4681C78.9941 38.5133 77.2957 40.2203 75.277 39.8927C74.3384 39.7405 73.6864 39.5439 73.4585 39.3247C73.4482 39.3148 73.4353 39.3094 73.421 39.3094C73.3924 39.3094 73.3691 39.2862 73.3691 39.2576V31.6688C73.3692 29.8503 74.0908 28.2008 75.2632 26.9904C76.8248 25.3781 78.9941 27.0731 78.9941 29.3177V36.4681Z" fill="white"/>
</svg>
