<svg width="1606" height="7875" viewBox="0 0 1606 7875" fill="none" xmlns="http://www.w3.org/2000/svg">
<path d="M1605 1V7874H1V1H1605Z" fill="#DAEFF3"/>
<path d="M1605 1V7874H1V1H1605Z" stroke="#DFDFDF" stroke-width="2"/>
<path d="M628.703 1039.02C628.078 1032.71 625.396 1027.82 620.656 1024.33C615.917 1020.84 609.484 1019.09 601.359 1019.09C595.839 1019.09 591.177 1019.87 587.375 1021.44C583.573 1022.95 580.656 1025.06 578.625 1027.77C576.646 1030.47 575.656 1033.55 575.656 1036.98C575.552 1039.85 576.151 1042.35 577.453 1044.48C578.807 1046.62 580.656 1048.47 583 1050.03C585.344 1051.54 588.052 1052.87 591.125 1054.02C594.198 1055.11 597.479 1056.05 600.969 1056.83L615.344 1060.27C622.323 1061.83 628.729 1063.91 634.562 1066.52C640.396 1069.12 645.448 1072.32 649.719 1076.12C653.99 1079.93 657.297 1084.41 659.641 1089.56C662.036 1094.72 663.26 1100.63 663.312 1107.3C663.26 1117.09 660.76 1125.58 655.813 1132.77C650.917 1139.9 643.833 1145.45 634.562 1149.41C625.344 1153.31 614.224 1155.27 601.203 1155.27C588.286 1155.27 577.036 1153.29 567.453 1149.33C557.922 1145.37 550.474 1139.51 545.109 1131.75C539.797 1123.94 537.01 1114.28 536.75 1102.77H569.484C569.849 1108.13 571.385 1112.61 574.094 1116.2C576.854 1119.74 580.526 1122.43 585.109 1124.25C589.745 1126.02 594.979 1126.91 600.812 1126.91C606.542 1126.91 611.516 1126.07 615.734 1124.41C620.005 1122.74 623.313 1120.42 625.656 1117.45C628 1114.48 629.172 1111.07 629.172 1107.22C629.172 1103.62 628.104 1100.6 625.969 1098.16C623.885 1095.71 620.813 1093.62 616.75 1091.91C612.74 1090.19 607.818 1088.62 601.984 1087.22L584.563 1082.84C571.073 1079.56 560.422 1074.43 552.609 1067.45C544.797 1060.47 540.917 1051.07 540.969 1039.25C540.917 1029.56 543.495 1021.1 548.703 1013.86C553.964 1006.62 561.177 1000.97 570.344 996.906C579.51 992.844 589.927 990.812 601.594 990.812C613.469 990.812 623.833 992.844 632.688 996.906C641.594 1000.97 648.521 1006.62 653.469 1013.86C658.417 1021.1 660.969 1029.48 661.125 1039.02H628.703ZM749.27 1033V1058H677.004V1033H749.27ZM693.41 1004.25H726.691V1116.12C726.691 1119.2 727.16 1121.59 728.098 1123.31C729.035 1124.98 730.337 1126.15 732.004 1126.83C733.723 1127.51 735.702 1127.84 737.941 1127.84C739.504 1127.84 741.066 1127.71 742.629 1127.45C744.191 1127.14 745.389 1126.91 746.223 1126.75L751.457 1151.52C749.79 1152.04 747.447 1152.64 744.426 1153.31C741.405 1154.04 737.733 1154.48 733.41 1154.64C725.389 1154.95 718.358 1153.89 712.316 1151.44C706.327 1148.99 701.665 1145.19 698.332 1140.03C694.999 1134.87 693.358 1128.36 693.41 1120.5V1004.25ZM791.496 1198C787.277 1198 783.319 1197.66 779.621 1196.98C775.975 1196.36 772.954 1195.55 770.559 1194.56L778.059 1169.72C781.965 1170.92 785.48 1171.57 788.605 1171.67C791.783 1171.78 794.517 1171.05 796.809 1169.48C799.152 1167.92 801.053 1165.27 802.512 1161.52L804.465 1156.44L761.418 1033H796.418L821.262 1121.12H822.512L847.59 1033H882.824L836.184 1165.97C833.944 1172.43 830.897 1178.05 827.043 1182.84C823.241 1187.69 818.423 1191.41 812.59 1194.02C806.757 1196.67 799.725 1198 791.496 1198ZM933.137 993V1153H899.855V993H933.137ZM1014.48 1155.34C1002.14 1155.34 991.516 1152.84 982.609 1147.84C973.755 1142.79 966.932 1135.66 962.141 1126.44C957.349 1117.17 954.953 1106.2 954.953 1093.55C954.953 1081.2 957.349 1070.37 962.141 1061.05C966.932 1051.72 973.677 1044.46 982.375 1039.25C991.125 1034.04 1001.39 1031.44 1013.16 1031.44C1021.07 1031.44 1028.44 1032.71 1035.27 1035.27C1042.14 1037.77 1048.13 1041.54 1053.23 1046.59C1058.39 1051.65 1062.4 1058 1065.27 1065.66C1068.13 1073.26 1069.56 1082.17 1069.56 1092.37V1101.52H968.234V1080.89H1038.23C1038.23 1076.1 1037.19 1071.85 1035.11 1068.16C1033.03 1064.46 1030.14 1061.57 1026.44 1059.48C1022.79 1057.35 1018.55 1056.28 1013.7 1056.28C1008.65 1056.28 1004.17 1057.45 1000.27 1059.8C996.411 1062.09 993.391 1065.19 991.203 1069.09C989.016 1072.95 987.896 1077.24 987.844 1081.98V1101.59C987.844 1107.53 988.938 1112.66 991.125 1116.98C993.365 1121.31 996.516 1124.64 1000.58 1126.98C1004.64 1129.33 1009.46 1130.5 1015.03 1130.5C1018.73 1130.5 1022.11 1129.98 1025.19 1128.94C1028.26 1127.9 1030.89 1126.33 1033.08 1124.25C1035.27 1122.17 1036.93 1119.61 1038.08 1116.59L1068.86 1118.62C1067.3 1126.02 1064.09 1132.48 1059.25 1138C1054.46 1143.47 1048.26 1147.74 1040.66 1150.81C1033.1 1153.83 1024.38 1155.34 1014.48 1155.34Z" fill="#008298"/>
<path d="M690.999 1467H906.581" stroke="#00A2BD" stroke-width="20" stroke-linecap="round"/>
<path d="M814.859 1371C814.859 1371 835.751 1407.81 854.659 1426.72C873.568 1445.63 910.379 1466.52 910.379 1466.52C910.379 1466.52 873.568 1487.41 854.659 1506.32C835.751 1525.23 814.859 1562.04 814.859 1562.04" stroke="#00A2BD" stroke-width="20" stroke-linecap="round"/>
</svg>
