<svg width="1748" height="7955" viewBox="0 0 1748 7955" fill="none" xmlns="http://www.w3.org/2000/svg">
<path d="M40 40H1708V7915H40V40Z" fill="#FAFAFA"/>
<path d="M40 40V38H38V40H40ZM1708 40H1710V38H1708V40ZM1708 7915V7917H1710V7915H1708ZM40 7915H38V7917H40V7915ZM40 40V42H1708V40V38H40V40ZM1708 40H1706V7915H1708H1710V40H1708ZM1708 7915V7913H40V7915V7917H1708V7915ZM40 7915H42V40H40H38V7915H40Z" fill="#DFDFDF"/>
<rect x="121.5" y="346.5" width="203" height="148" rx="4.5" stroke="#9747FF" stroke-dasharray="10 5"/>
<path d="M200.67 390.766H206.662C206.662 394.532 205.15 397.724 200.81 399.824L200.04 398.676C203.358 397.08 204.926 394.854 205.178 391.942H200.67V390.766ZM208.944 389.436H210.386V402.078H208.944V389.436ZM214.719 398.298V400.664H221.985V401.84H213.263V398.298H214.719ZM214.733 392.474V393.874H220.361V392.474H214.733ZM218.261 396.24H223.273V397.402H211.807V396.24H216.805V395.022H213.305V389.926H214.733V391.354H220.361V389.926H221.789V395.022H218.261V396.24ZM230.504 392.614H232.744V389.436H234.186V396.968H232.744V393.79H230.504V392.614ZM231.232 395.428L230.518 396.562C229.118 396.072 228.11 395.078 227.578 393.86C227.018 395.246 225.954 396.366 224.456 396.898L223.714 395.75C225.674 395.05 226.808 393.37 226.808 391.634V391.452H224.134V390.29H230.896V391.452H228.264V391.62C228.264 393.202 229.342 394.77 231.232 395.428ZM229.986 400.972C231.764 400.972 232.8 400.524 232.8 399.698C232.8 398.872 231.764 398.424 229.986 398.424C228.18 398.424 227.158 398.872 227.158 399.698C227.158 400.524 228.18 400.972 229.986 400.972ZM229.986 397.304C232.618 397.304 234.242 398.2 234.242 399.698C234.242 401.21 232.618 402.092 229.986 402.092C227.34 402.092 225.716 401.21 225.716 399.698C225.716 398.2 227.34 397.304 229.986 397.304ZM238.309 393.566V395.638H244.301V393.566H238.309ZM242.019 399.348H247.045V400.538H235.593V399.348H240.577V396.8H236.881V390.276H238.309V392.404H244.301V390.276H245.729V396.8H242.019V399.348Z" fill="#8E8E93"/>
<path d="M200.67 445.766H206.662C206.662 449.532 205.15 452.724 200.81 454.824L200.04 453.676C203.358 452.08 204.926 449.854 205.178 446.942H200.67V445.766ZM208.944 444.436H210.386V457.078H208.944V444.436ZM214.719 453.298V455.664H221.985V456.84H213.263V453.298H214.719ZM214.733 447.474V448.874H220.361V447.474H214.733ZM218.261 451.24H223.273V452.402H211.807V451.24H216.805V450.022H213.305V444.926H214.733V446.354H220.361V444.926H221.789V450.022H218.261V451.24ZM230.504 447.614H232.744V444.436H234.186V451.968H232.744V448.79H230.504V447.614ZM231.232 450.428L230.518 451.562C229.118 451.072 228.11 450.078 227.578 448.86C227.018 450.246 225.954 451.366 224.456 451.898L223.714 450.75C225.674 450.05 226.808 448.37 226.808 446.634V446.452H224.134V445.29H230.896V446.452H228.264V446.62C228.264 448.202 229.342 449.77 231.232 450.428ZM229.986 455.972C231.764 455.972 232.8 455.524 232.8 454.698C232.8 453.872 231.764 453.424 229.986 453.424C228.18 453.424 227.158 453.872 227.158 454.698C227.158 455.524 228.18 455.972 229.986 455.972ZM229.986 452.304C232.618 452.304 234.242 453.2 234.242 454.698C234.242 456.21 232.618 457.092 229.986 457.092C227.34 457.092 225.716 456.21 225.716 454.698C225.716 453.2 227.34 452.304 229.986 452.304ZM238.309 448.566V450.638H244.301V448.566H238.309ZM242.019 454.348H247.045V455.538H235.593V454.348H240.577V451.8H236.881V445.276H238.309V447.404H244.301V445.276H245.729V451.8H242.019V454.348Z" fill="#008298"/>
<path d="M199 468C199 466.343 200.343 465 202 465H245C246.657 465 248 466.343 248 468H199Z" fill="#00A2BD"/>
<path d="M514.67 418.766H520.662C520.662 422.532 519.15 425.724 514.81 427.824L514.04 426.676C517.358 425.08 518.926 422.854 519.178 419.942H514.67V418.766ZM522.944 417.436H524.386V430.078H522.944V417.436ZM528.719 426.298V428.664H535.985V429.84H527.263V426.298H528.719ZM528.733 420.474V421.874H534.361V420.474H528.733ZM532.261 424.24H537.273V425.402H525.807V424.24H530.805V423.022H527.305V417.926H528.733V419.354H534.361V417.926H535.789V423.022H532.261V424.24ZM544.504 420.614H546.744V417.436H548.186V424.968H546.744V421.79H544.504V420.614ZM545.232 423.428L544.518 424.562C543.118 424.072 542.11 423.078 541.578 421.86C541.018 423.246 539.954 424.366 538.456 424.898L537.714 423.75C539.674 423.05 540.808 421.37 540.808 419.634V419.452H538.134V418.29H544.896V419.452H542.264V419.62C542.264 421.202 543.342 422.77 545.232 423.428ZM543.986 428.972C545.764 428.972 546.8 428.524 546.8 427.698C546.8 426.872 545.764 426.424 543.986 426.424C542.18 426.424 541.158 426.872 541.158 427.698C541.158 428.524 542.18 428.972 543.986 428.972ZM543.986 425.304C546.618 425.304 548.242 426.2 548.242 427.698C548.242 429.21 546.618 430.092 543.986 430.092C541.34 430.092 539.716 429.21 539.716 427.698C539.716 426.2 541.34 425.304 543.986 425.304ZM552.309 421.566V423.638H558.301V421.566H552.309ZM556.019 427.348H561.045V428.538H549.593V427.348H554.577V424.8H550.881V418.276H552.309V420.404H558.301V418.276H559.729V424.8H556.019V427.348Z" fill="#008298"/>
<path d="M513 441C513 439.343 514.343 438 516 438H559C560.657 438 562 439.343 562 441H513Z" fill="#00A2BD"/>
<path d="M589.419 417.436V426.62H587.977V417.436H589.419ZM579.899 418.388H585.751C585.751 421.748 583.525 424.156 579.773 425.29L579.199 424.142C582.139 423.274 583.945 421.622 584.197 419.564H579.899V418.388ZM582.573 428.678H589.713V429.84H581.131V425.864H582.573V428.678ZM599.464 428.762V427.292H593.752V428.762H599.464ZM599.464 426.172V424.66H600.906V429.924H592.324V424.66H593.752V426.172H599.464ZM600.612 422.49H602.348V423.666H590.896V422.49H599.184C599.478 421.104 599.506 420.068 599.506 419.144H592.338V417.982H600.92V418.948C600.92 419.928 600.92 420.992 600.612 422.49ZM604.315 421.426C604.315 422.602 605.141 423.386 606.247 423.386C607.325 423.386 608.151 422.602 608.151 421.426C608.151 420.278 607.325 419.494 606.247 419.494C605.141 419.494 604.315 420.278 604.315 421.426ZM611.805 420.488H609.383C609.481 420.782 609.523 421.09 609.523 421.426C609.523 421.762 609.481 422.07 609.383 422.364H611.805V420.488ZM611.805 423.54H608.767C608.179 424.226 607.283 424.646 606.247 424.632C604.371 424.632 602.943 423.288 602.943 421.426C602.943 419.564 604.371 418.22 606.247 418.22C607.283 418.22 608.179 418.64 608.767 419.312H611.805V417.45H613.247V426.746H611.805V423.54ZM606.499 428.664H613.569V429.84H605.057V425.808H606.499V428.664ZM622.003 422.966L622.157 424.142C620.253 424.478 618.601 424.548 616.179 424.548H615.157V420.74H619.441V419.312H615.129V418.15H620.869V421.832H616.571V423.372C618.741 423.358 620.267 423.288 622.003 422.966ZM616.207 426.914V425.752H624.523V430.092H623.081V426.914H616.207ZM626.315 420.586V421.776H624.523V425.122H623.081V417.436H624.523V420.586H626.315ZM631.054 420.726V421.454C631.054 423.428 632.258 425.486 634.176 426.368L633.42 427.474C631.992 426.816 630.914 425.528 630.354 423.974C629.808 425.626 628.758 427.012 627.302 427.698L626.504 426.578C628.436 425.668 629.626 423.526 629.626 421.454V420.726H626.896V419.564H629.612V417.688H631.068V419.564H633.728V420.726H631.054ZM635.576 417.408H637.018V430.106H635.576V423.582H633.07V422.406H635.576V417.408Z" fill="#8E8E93"/>
<path d="M660.231 419.172C659.139 419.172 658.355 419.746 658.355 420.628C658.355 421.524 659.139 422.098 660.231 422.098C661.337 422.098 662.107 421.524 662.107 420.628C662.107 419.746 661.337 419.172 660.231 419.172ZM660.231 423.288C658.341 423.288 656.969 422.196 656.969 420.628C656.969 419.074 658.341 417.982 660.231 417.982C662.121 417.982 663.493 419.074 663.493 420.628C663.493 422.196 662.121 423.288 660.231 423.288ZM664.305 423.764L664.403 424.828C663.297 425.052 662.135 425.178 661.015 425.262V429.7H659.573V425.346C658.383 425.388 657.263 425.402 656.283 425.402L656.115 424.212C658.397 424.212 661.575 424.17 664.305 423.764ZM665.131 417.436H666.573V430.092H665.131V417.436ZM675.358 418.654V419.802H668.022V418.654H670.962V417.31H672.418V418.654H675.358ZM670.094 422.616C670.094 423.344 670.752 423.806 671.69 423.806C672.628 423.806 673.286 423.344 673.286 422.616C673.286 421.902 672.628 421.44 671.69 421.44C670.752 421.44 670.094 421.902 670.094 422.616ZM674.658 422.616C674.658 423.974 673.426 424.884 671.69 424.884C669.954 424.884 668.722 423.974 668.722 422.616C668.722 421.272 669.954 420.348 671.69 420.348C673.426 420.348 674.658 421.272 674.658 422.616ZM671.578 426.83V428.776H677.052V426.83H671.578ZM670.164 429.924V425.696H678.466V429.924H670.164ZM677.024 417.422H678.466V425.08H677.024V422.392H675.148V421.202H677.024V417.422ZM690.364 429L689.16 427.796C688.693 428.263 688.185 428.613 687.634 428.846C687.083 429.07 686.467 429.182 685.786 429.182C685.095 429.182 684.484 429.061 683.952 428.818C683.42 428.575 683.009 428.23 682.72 427.782C682.431 427.325 682.286 426.797 682.286 426.2C682.286 425.528 682.477 424.931 682.86 424.408C683.243 423.876 683.812 423.456 684.568 423.148C684.297 422.821 684.106 422.518 683.994 422.238C683.882 421.949 683.826 421.631 683.826 421.286C683.826 420.857 683.933 420.474 684.148 420.138C684.372 419.802 684.689 419.536 685.1 419.34C685.511 419.144 685.987 419.046 686.528 419.046C687.079 419.046 687.545 419.153 687.928 419.368C688.32 419.573 688.609 419.858 688.796 420.222C688.992 420.586 689.071 420.992 689.034 421.44H687.438C687.447 421.095 687.363 420.829 687.186 420.642C687.009 420.446 686.766 420.348 686.458 420.348C686.15 420.348 685.898 420.441 685.702 420.628C685.515 420.805 685.422 421.025 685.422 421.286C685.422 421.538 685.492 421.79 685.632 422.042C685.781 422.285 686.038 422.602 686.402 422.994L688.978 425.556L689.972 423.918H691.694L690.434 426.074L690.084 426.648L692.45 429H690.364ZM685.786 427.824C686.663 427.824 687.438 427.465 688.11 426.746L685.534 424.156C684.433 424.595 683.882 425.257 683.882 426.144C683.882 426.62 684.059 427.021 684.414 427.348C684.769 427.665 685.226 427.824 685.786 427.824ZM699.221 418.486V420.558C699.221 422.812 700.397 425.094 702.301 426.032L701.419 427.18C700.061 426.48 699.053 425.108 698.507 423.456C697.961 425.206 696.897 426.676 695.455 427.418L694.573 426.256C696.547 425.29 697.779 422.896 697.779 420.558V418.486H699.221ZM706.557 422.448V423.638H704.583V430.078H703.141V417.436H704.583V422.448H706.557ZM713.214 421.23H715.706V417.436H717.148V426.746H715.706V422.42H713.214V421.23ZM707.488 418.402H713.284C713.284 421.734 711.058 424.212 707.46 425.388L706.83 424.24C709.616 423.33 711.464 421.65 711.73 419.578H707.488V418.402ZM710.484 428.664H717.47V429.84H709.042V425.808H710.484V428.664ZM722.979 418.486V420.558C722.979 422.812 724.155 425.094 726.059 426.032L725.177 427.18C723.819 426.48 722.811 425.108 722.265 423.456C721.719 425.206 720.655 426.676 719.213 427.418L718.331 426.256C720.305 425.29 721.537 422.896 721.537 420.558V418.486H722.979ZM730.315 422.448V423.638H728.341V430.078H726.899V417.436H728.341V422.448H730.315ZM739.17 419.858V419.788H731.624V418.612H740.626V419.858C740.626 421.426 740.626 423.176 740.136 425.794L738.68 425.64C739.17 423.162 739.17 421.37 739.17 419.858ZM736.146 427.236H741.858V428.426H730.434V427.236H734.69V422.784H736.146V427.236Z" fill="#8E8E93"/>
<path d="M768.968 417.436H770.41V424.226H768.968V417.436ZM762.15 424.814H763.578V426.214H768.982V424.814H770.41V429.924H762.15V424.814ZM763.578 427.334V428.762H768.982V427.334H763.578ZM763.592 418.01C765.524 418.01 766.938 419.214 766.938 420.95C766.938 422.686 765.524 423.89 763.592 423.89C761.66 423.89 760.232 422.686 760.232 420.95C760.232 419.214 761.66 418.01 763.592 418.01ZM763.592 419.2C762.444 419.2 761.646 419.9 761.646 420.95C761.646 422.014 762.444 422.7 763.592 422.7C764.726 422.7 765.538 422.014 765.538 420.95C765.538 419.9 764.726 419.2 763.592 419.2ZM783.325 423.624H778.313V425.696H781.953V430.078H780.511V426.858H773.035V425.696H776.857V423.624H771.873V422.462H780.175C780.455 421.104 780.483 420.082 780.483 419.172H773.301V418.01H781.897V418.976C781.897 419.928 781.897 421.02 781.617 422.462H783.325V423.624ZM794.243 429L793.039 427.796C792.572 428.263 792.063 428.613 791.513 428.846C790.962 429.07 790.346 429.182 789.665 429.182C788.974 429.182 788.363 429.061 787.831 428.818C787.299 428.575 786.888 428.23 786.599 427.782C786.309 427.325 786.165 426.797 786.165 426.2C786.165 425.528 786.356 424.931 786.739 424.408C787.121 423.876 787.691 423.456 788.447 423.148C788.176 422.821 787.985 422.518 787.873 422.238C787.761 421.949 787.705 421.631 787.705 421.286C787.705 420.857 787.812 420.474 788.027 420.138C788.251 419.802 788.568 419.536 788.979 419.34C789.389 419.144 789.865 419.046 790.407 419.046C790.957 419.046 791.424 419.153 791.807 419.368C792.199 419.573 792.488 419.858 792.675 420.222C792.871 420.586 792.95 420.992 792.913 421.44H791.317C791.326 421.095 791.242 420.829 791.065 420.642C790.887 420.446 790.645 420.348 790.337 420.348C790.029 420.348 789.777 420.441 789.581 420.628C789.394 420.805 789.301 421.025 789.301 421.286C789.301 421.538 789.371 421.79 789.511 422.042C789.66 422.285 789.917 422.602 790.281 422.994L792.857 425.556L793.851 423.918H795.573L794.313 426.074L793.963 426.648L796.329 429H794.243ZM789.665 427.824C790.542 427.824 791.317 427.465 791.989 426.746L789.413 424.156C788.311 424.595 787.761 425.257 787.761 426.144C787.761 426.62 787.938 427.021 788.293 427.348C788.647 427.665 789.105 427.824 789.665 427.824ZM802.554 418.598V420.81C802.554 422.854 803.324 424.996 805.018 426.06L804.206 427.18C803.058 426.48 802.302 425.248 801.868 423.834C801.42 425.388 800.594 426.718 799.376 427.46L798.494 426.368C800.286 425.304 801.154 423.036 801.154 420.88V418.598H802.554ZM805.522 421.86V417.674H806.88V429.49H805.522V423.036H803.66V421.86H805.522ZM808.098 417.436H809.47V430.078H808.098V417.436ZM817.233 422.854L815.819 422.7C816.071 421.342 816.113 420.348 816.127 419.564H811.185V418.388H817.541V419.116C817.541 419.97 817.541 421.216 817.233 422.854ZM818.283 423.484L818.381 424.534C815.749 424.996 812.767 425.066 810.569 425.066L810.415 423.89C811.171 423.89 812.039 423.89 812.935 423.862V421.272H814.363V423.82C815.679 423.764 817.037 423.68 818.283 423.484ZM813.775 426.088V428.664H820.915V429.84H812.319V426.088H813.775ZM820.509 421.44H822.189V422.63H820.509V426.928H819.053V417.436H820.509V421.44Z" fill="#8E8E93"/>
<path d="M849.024 428.748V427.418H843.676V428.748H849.024ZM849.024 426.284V424.94H850.466V429.91H842.248V424.94H843.676V426.284H849.024ZM844.978 422.756V420.978H841.996V422.756H844.978ZM849.024 417.422L850.466 417.436V424.366H849.024V421.622H846.392V423.932H840.568V418.066H841.996V419.858H844.978V418.08H846.392V420.446H849.024V417.422ZM860.455 419.564V418.724H853.301V417.73H861.883V420.502H854.743V421.384H862.107V422.378H853.329V419.564H860.455ZM858.915 425.164V424.198H856.269V425.164H858.915ZM863.325 424.198H860.357V425.164H861.925V427.992H854.645V428.958H862.303V429.966H853.217V427.054H860.497V426.158H853.189V425.164H854.827V424.198H851.859V423.134H863.325V424.198ZM874.243 429L873.039 427.796C872.572 428.263 872.063 428.613 871.513 428.846C870.962 429.07 870.346 429.182 869.665 429.182C868.974 429.182 868.363 429.061 867.831 428.818C867.299 428.575 866.888 428.23 866.599 427.782C866.309 427.325 866.165 426.797 866.165 426.2C866.165 425.528 866.356 424.931 866.739 424.408C867.121 423.876 867.691 423.456 868.447 423.148C868.176 422.821 867.985 422.518 867.873 422.238C867.761 421.949 867.705 421.631 867.705 421.286C867.705 420.857 867.812 420.474 868.027 420.138C868.251 419.802 868.568 419.536 868.979 419.34C869.389 419.144 869.865 419.046 870.407 419.046C870.957 419.046 871.424 419.153 871.807 419.368C872.199 419.573 872.488 419.858 872.675 420.222C872.871 420.586 872.95 420.992 872.913 421.44H871.317C871.326 421.095 871.242 420.829 871.065 420.642C870.887 420.446 870.645 420.348 870.337 420.348C870.029 420.348 869.777 420.441 869.581 420.628C869.394 420.805 869.301 421.025 869.301 421.286C869.301 421.538 869.371 421.79 869.511 422.042C869.66 422.285 869.917 422.602 870.281 422.994L872.857 425.556L873.851 423.918H875.573L874.313 426.074L873.963 426.648L876.329 429H874.243ZM869.665 427.824C870.542 427.824 871.317 427.465 871.989 426.746L869.413 424.156C868.311 424.595 867.761 425.257 867.761 426.144C867.761 426.62 867.938 427.021 868.293 427.348C868.647 427.665 869.105 427.824 869.665 427.824ZM887.23 421.412V419.144H881.532V421.412H887.23ZM888.644 417.996V422.56H880.118V417.996H888.644ZM881.504 426.186V428.664H888.854V429.84H880.062V426.186H881.504ZM878.662 423.806H890.128V424.968H885.228V427.334H883.786V424.968H878.662V423.806ZM898.143 418.892V420.054H890.625V418.892H893.677V417.478H895.119V418.892H898.143ZM892.725 423.05C892.725 423.82 893.411 424.296 894.405 424.296C895.399 424.296 896.071 423.82 896.071 423.05C896.071 422.266 895.399 421.79 894.405 421.79C893.411 421.79 892.725 422.266 892.725 423.05ZM895.119 425.346V426.522C896.197 426.466 897.275 426.396 898.283 426.242L898.395 427.306C895.693 427.782 892.767 427.81 890.597 427.81L890.401 426.62C891.367 426.62 892.501 426.62 893.677 426.578V425.346C892.277 425.108 891.367 424.254 891.367 423.05C891.367 421.622 892.599 420.684 894.405 420.684C896.197 420.684 897.429 421.622 897.429 423.05C897.429 424.254 896.519 425.122 895.119 425.346ZM902.231 422.714V423.904H900.439V430.078H898.997V417.422H900.439V422.714H902.231Z" fill="#8E8E93"/>
<path d="M928.93 419.942V419.788H921.272V418.612H930.372V419.942C930.372 421.524 930.372 423.218 929.924 425.668L928.482 425.5C928.93 423.19 928.93 421.482 928.93 419.942ZM927.32 427.236H931.562V428.426H920.138V427.236H922.77V423.148H924.198V427.236H925.892V423.148H927.32V427.236ZM937.701 429C939.619 429 940.613 428.692 940.613 428.02C940.613 427.376 939.619 427.054 937.701 427.054C935.797 427.054 934.803 427.376 934.803 428.02C934.803 428.692 935.797 429 937.701 429ZM937.701 425.99C940.459 425.99 942.055 426.69 942.055 428.02C942.055 429.364 940.459 430.078 937.701 430.078C934.957 430.078 933.347 429.364 933.347 428.02C933.347 426.69 934.957 425.99 937.701 425.99ZM938.443 424.044H943.427V425.206H931.989V424.044H936.987V423.008H933.459V417.786H942.069V418.892H934.901V419.844H941.761V420.922H934.901V421.902H942.153V423.008H938.443V424.044ZM948.1 421.44C948.1 422.602 948.94 423.358 950.046 423.358C951.152 423.358 952.006 422.602 952.006 421.44C952.006 420.292 951.152 419.536 950.046 419.536C948.94 419.536 948.1 420.292 948.1 421.44ZM953.42 421.44C953.42 423.288 951.964 424.604 950.046 424.604C948.142 424.604 946.686 423.288 946.686 421.44C946.686 419.592 948.142 418.29 950.046 418.29C951.964 418.29 953.42 419.592 953.42 421.44ZM949.85 425.752V428.664H956.906V429.84H948.394V425.752H949.85ZM956.402 421.188H958.194V422.378H956.402V426.704H954.96V417.436H956.402V421.188ZM965.145 420.824H967.441V417.45H968.883V426.69H967.441V422.014H965.145V420.824ZM965.929 423.778L965.215 424.898C963.815 424.422 962.793 423.428 962.261 422.182C961.701 423.554 960.637 424.66 959.139 425.178L958.397 424.044C960.357 423.358 961.505 421.692 961.505 419.984V419.55H958.831V418.388H965.593V419.55H962.961V419.984C962.961 421.538 964.039 423.12 965.929 423.778ZM962.135 428.664H969.205V429.84H960.693V425.892H962.135V428.664Z" fill="#8E8E93"/>
<path d="M990.71 421.566V423.638H996.702V421.566H990.71ZM994.42 427.348H999.446V428.538H987.994V427.348H992.978V424.8H989.282V418.276H990.71V420.404H996.702V418.276H998.13V424.8H994.42V427.348ZM1006.41 421.23H1008.9V417.436H1010.35V426.746H1008.9V422.42H1006.41V421.23ZM1000.69 418.402H1006.48C1006.48 421.734 1004.26 424.212 1000.66 425.388L1000.03 424.24C1002.81 423.33 1004.66 421.65 1004.93 419.578H1000.69V418.402ZM1003.68 428.664H1010.67V429.84H1002.24V425.808H1003.68V428.664ZM1022.24 429L1021.04 427.796C1020.57 428.263 1020.06 428.613 1019.51 428.846C1018.96 429.07 1018.35 429.182 1017.66 429.182C1016.97 429.182 1016.36 429.061 1015.83 428.818C1015.3 428.575 1014.89 428.23 1014.6 427.782C1014.31 427.325 1014.16 426.797 1014.16 426.2C1014.16 425.528 1014.36 424.931 1014.74 424.408C1015.12 423.876 1015.69 423.456 1016.45 423.148C1016.18 422.821 1015.98 422.518 1015.87 422.238C1015.76 421.949 1015.7 421.631 1015.7 421.286C1015.7 420.857 1015.81 420.474 1016.03 420.138C1016.25 419.802 1016.57 419.536 1016.98 419.34C1017.39 419.144 1017.87 419.046 1018.41 419.046C1018.96 419.046 1019.42 419.153 1019.81 419.368C1020.2 419.573 1020.49 419.858 1020.67 420.222C1020.87 420.586 1020.95 420.992 1020.91 421.44H1019.32C1019.33 421.095 1019.24 420.829 1019.06 420.642C1018.89 420.446 1018.64 420.348 1018.34 420.348C1018.03 420.348 1017.78 420.441 1017.58 420.628C1017.39 420.805 1017.3 421.025 1017.3 421.286C1017.3 421.538 1017.37 421.79 1017.51 422.042C1017.66 422.285 1017.92 422.602 1018.28 422.994L1020.86 425.556L1021.85 423.918H1023.57L1022.31 426.074L1021.96 426.648L1024.33 429H1022.24ZM1017.66 427.824C1018.54 427.824 1019.32 427.465 1019.99 426.746L1017.41 424.156C1016.31 424.595 1015.76 425.257 1015.76 426.144C1015.76 426.62 1015.94 427.021 1016.29 427.348C1016.65 427.665 1017.1 427.824 1017.66 427.824ZM1030.75 418.318C1032.72 418.318 1034.19 419.564 1034.19 421.356C1034.19 423.148 1032.72 424.394 1030.75 424.394C1028.78 424.394 1027.32 423.148 1027.32 421.356C1027.32 419.564 1028.78 418.318 1030.75 418.318ZM1030.75 419.55C1029.59 419.55 1028.73 420.25 1028.73 421.356C1028.73 422.448 1029.59 423.162 1030.75 423.162C1031.93 423.162 1032.78 422.448 1032.78 421.356C1032.78 420.25 1031.93 419.55 1030.75 419.55ZM1035.62 417.422H1037.08V430.092H1035.62V417.422ZM1026.91 427.418L1026.73 426.228C1029 426.228 1032.15 426.214 1034.87 425.808L1034.96 426.858C1032.18 427.39 1029.15 427.418 1026.91 427.418ZM1043.05 425.22V427.404H1045.64V425.22H1043.05ZM1047.07 427.404H1050.01V428.594H1038.55V427.404H1041.62V425.22H1039.94V421.16H1047.22V419.48H1039.91V418.318H1048.65V422.308H1041.35V424.058H1048.93V425.22H1047.07V427.404Z" fill="#8E8E93"/>
<path d="M1074.69 424.114H1077.24V421.342H1074.65C1074.75 421.804 1074.81 422.28 1074.81 422.812C1074.81 423.288 1074.76 423.708 1074.69 424.114ZM1071.6 425.99C1072.69 425.99 1073.43 424.8 1073.43 422.812C1073.43 420.852 1072.69 419.662 1071.6 419.662C1070.52 419.662 1069.77 420.852 1069.77 422.812C1069.77 424.8 1070.52 425.99 1071.6 425.99ZM1077.24 417.422H1078.7V430.106H1077.24V425.304H1074.33C1073.8 426.55 1072.8 427.278 1071.6 427.278C1069.74 427.278 1068.41 425.556 1068.41 422.812C1068.41 420.096 1069.74 418.36 1071.6 418.36C1072.75 418.36 1073.69 419.018 1074.26 420.152H1077.24V417.422ZM1088.09 421.916V424.968H1086.74V417.674H1088.09V420.726H1089.4V417.422H1090.77V425.402H1089.4V421.916H1088.09ZM1086.31 418.85V419.984H1080.01V418.85H1082.46V417.548H1083.87V418.85H1086.31ZM1081.76 422.714C1081.76 423.4 1082.32 423.848 1083.17 423.848C1084.03 423.848 1084.6 423.4 1084.6 422.714C1084.6 422.028 1084.03 421.58 1083.17 421.58C1082.32 421.58 1081.76 422.028 1081.76 422.714ZM1085.89 422.714C1085.89 424.03 1084.77 424.898 1083.17 424.898C1081.59 424.898 1080.47 424.03 1080.47 422.714C1080.47 421.412 1081.59 420.53 1083.17 420.53C1084.77 420.53 1085.89 421.412 1085.89 422.714ZM1086.57 428.986C1088.39 428.986 1089.4 428.58 1089.4 427.824C1089.4 427.068 1088.39 426.676 1086.57 426.676C1084.77 426.676 1083.73 427.068 1083.73 427.824C1083.73 428.58 1084.77 428.986 1086.57 428.986ZM1086.57 425.584C1089.23 425.584 1090.84 426.396 1090.84 427.824C1090.84 429.252 1089.23 430.078 1086.57 430.078C1083.9 430.078 1082.29 429.252 1082.29 427.824C1082.29 426.396 1083.9 425.584 1086.57 425.584ZM1096.38 419.886V421.104C1096.38 423.064 1097.63 425.304 1099.54 426.214L1098.75 427.348C1097.33 426.676 1096.25 425.276 1095.68 423.68C1095.12 425.444 1094 426.956 1092.54 427.67L1091.72 426.522C1093.65 425.598 1094.94 423.204 1094.94 421.104V419.886H1092.18V418.696H1099.05V419.886H1096.38ZM1103.72 422.42V423.61H1101.74V430.078H1100.3V417.436H1101.74V422.42H1103.72ZM1108.04 421.44C1108.04 422.602 1108.88 423.358 1109.99 423.358C1111.09 423.358 1111.95 422.602 1111.95 421.44C1111.95 420.292 1111.09 419.536 1109.99 419.536C1108.88 419.536 1108.04 420.292 1108.04 421.44ZM1113.36 421.44C1113.36 423.288 1111.9 424.604 1109.99 424.604C1108.08 424.604 1106.63 423.288 1106.63 421.44C1106.63 419.592 1108.08 418.29 1109.99 418.29C1111.9 418.29 1113.36 419.592 1113.36 421.44ZM1109.79 425.752V428.664H1116.85V429.84H1108.33V425.752H1109.79ZM1116.34 421.188H1118.13V422.378H1116.34V426.704H1114.9V417.436H1116.34V421.188ZM1125.08 420.824H1127.38V417.45H1128.82V426.69H1127.38V422.014H1125.08V420.824ZM1125.87 423.778L1125.15 424.898C1123.75 424.422 1122.73 423.428 1122.2 422.182C1121.64 423.554 1120.58 424.66 1119.08 425.178L1118.34 424.044C1120.3 423.358 1121.44 421.692 1121.44 419.984V419.55H1118.77V418.388H1125.53V419.55H1122.9V419.984C1122.9 421.538 1123.98 423.12 1125.87 423.778ZM1122.07 428.664H1129.14V429.84H1120.63V425.892H1122.07V428.664Z" fill="#8E8E93"/>
<path d="M1157.14 417.422H1158.6V430.106H1157.14V417.422ZM1148.87 418.472H1150.3V421.692H1153.5V418.472H1154.95V427.096H1148.87V418.472ZM1150.3 422.84V425.934H1153.5V422.84H1150.3ZM1167.43 423.218L1166.67 424.352C1165.31 423.862 1164.31 422.896 1163.77 421.706C1163.21 423.078 1162.18 424.17 1160.72 424.702L1159.95 423.554C1161.94 422.868 1163.02 421.146 1163.02 419.326V418.08H1164.47V419.438C1164.47 421.062 1165.55 422.602 1167.43 423.218ZM1165.87 428.944C1167.64 428.944 1168.66 428.51 1168.66 427.698C1168.66 426.914 1167.64 426.466 1165.87 426.466C1164.11 426.466 1163.09 426.914 1163.09 427.698C1163.09 428.51 1164.11 428.944 1165.87 428.944ZM1165.87 425.332C1168.49 425.332 1170.09 426.214 1170.09 427.698C1170.09 429.196 1168.49 430.078 1165.87 430.078C1163.27 430.078 1161.66 429.196 1161.66 427.698C1161.66 426.214 1163.27 425.332 1165.87 425.332ZM1169.95 420.558H1171.74V421.748H1169.95V425.024H1168.51V417.422H1169.95V420.558ZM1176.36 419.97V425.64H1178.54V419.97H1176.36ZM1175.01 426.788V418.822H1179.88V426.788H1175.01ZM1184.01 417.436H1185.39V430.064H1184.01V423.54H1182.57V429.476H1181.21V417.674H1182.57V422.364H1184.01V417.436ZM1196.59 421.566V422.742H1187.89V418.038H1189.34V421.566H1196.59ZM1197.91 424.366V425.542H1195.1V430.092H1193.65V425.542H1190.71V430.092H1189.27V425.542H1186.47V424.366H1197.91ZM1199.9 420.712C1199.9 421.748 1200.7 422.434 1201.82 422.434C1202.91 422.434 1203.73 421.748 1203.73 420.712C1203.73 419.676 1202.91 418.99 1201.82 418.99C1200.7 418.99 1199.9 419.676 1199.9 420.712ZM1207.37 421.286H1205.04C1204.78 422.658 1203.5 423.61 1201.82 423.61C1199.92 423.61 1198.52 422.406 1198.52 420.712C1198.52 419.018 1199.92 417.814 1201.82 417.814C1203.49 417.814 1204.75 418.738 1205.03 420.11H1207.37V417.422H1208.82V423.82H1207.37V421.286ZM1202.03 428.79H1209.24V429.924H1200.6V426.606H1207.39V425.57H1200.59V424.45H1208.82V427.67H1202.03V428.79Z" fill="#8E8E93"/>
<path d="M368.26 374.545V375.398H365.281V374.545H368.26ZM366.08 373.239H367.141V378.398C367.141 378.604 367.172 378.759 367.234 378.864C367.295 378.965 367.375 379.035 367.472 379.073C367.571 379.109 367.679 379.126 367.795 379.126C367.88 379.126 367.955 379.121 368.018 379.109C368.082 379.097 368.132 379.087 368.168 379.08L368.359 379.957C368.298 379.981 368.21 380.005 368.097 380.028C367.983 380.054 367.841 380.069 367.67 380.071C367.391 380.076 367.131 380.026 366.889 379.922C366.648 379.818 366.452 379.657 366.303 379.439C366.154 379.221 366.08 378.948 366.08 378.619V373.239ZM371.022 380.121C370.676 380.121 370.364 380.057 370.084 379.929C369.805 379.799 369.584 379.611 369.42 379.364C369.259 379.118 369.179 378.816 369.179 378.459C369.179 378.151 369.238 377.898 369.356 377.699C369.475 377.5 369.635 377.343 369.836 377.227C370.037 377.111 370.262 377.023 370.51 376.964C370.759 376.905 371.012 376.86 371.27 376.829C371.597 376.791 371.862 376.76 372.066 376.737C372.269 376.71 372.417 376.669 372.51 376.612C372.602 376.555 372.648 376.463 372.648 376.335V376.31C372.648 376 372.561 375.76 372.385 375.589C372.213 375.419 371.955 375.334 371.611 375.334C371.254 375.334 370.972 375.413 370.766 375.572C370.563 375.728 370.422 375.902 370.344 376.094L369.346 375.866C369.464 375.535 369.637 375.268 369.864 375.064C370.094 374.858 370.358 374.709 370.656 374.616C370.954 374.522 371.268 374.474 371.597 374.474C371.815 374.474 372.046 374.5 372.29 374.553C372.536 374.602 372.765 374.695 372.979 374.83C373.194 374.964 373.37 375.157 373.508 375.408C373.645 375.657 373.714 375.98 373.714 376.378V380H372.677V379.254H372.634C372.565 379.392 372.462 379.527 372.325 379.659C372.188 379.792 372.011 379.902 371.796 379.989C371.581 380.077 371.323 380.121 371.022 380.121ZM371.253 379.268C371.546 379.268 371.797 379.21 372.006 379.094C372.216 378.978 372.376 378.827 372.485 378.64C372.596 378.451 372.652 378.248 372.652 378.033V377.33C372.614 377.367 372.541 377.403 372.432 377.436C372.325 377.467 372.203 377.494 372.066 377.518C371.929 377.539 371.795 377.559 371.665 377.578C371.534 377.595 371.425 377.609 371.338 377.621C371.132 377.647 370.944 377.691 370.773 377.752C370.605 377.814 370.47 377.902 370.368 378.018C370.269 378.132 370.219 378.284 370.219 378.473C370.219 378.736 370.316 378.935 370.51 379.07C370.705 379.202 370.952 379.268 371.253 379.268ZM375.213 380V372.727H376.275V375.43H376.339C376.4 375.316 376.489 375.185 376.605 375.036C376.721 374.886 376.882 374.756 377.088 374.645C377.294 374.531 377.566 374.474 377.905 374.474C378.345 374.474 378.738 374.586 379.084 374.808C379.429 375.031 379.701 375.352 379.897 375.771C380.096 376.19 380.195 376.694 380.195 377.283C380.195 377.873 380.097 378.378 379.901 378.8C379.704 379.219 379.434 379.542 379.091 379.769C378.748 379.994 378.356 380.107 377.915 380.107C377.584 380.107 377.313 380.051 377.102 379.94C376.894 379.828 376.731 379.698 376.612 379.549C376.494 379.4 376.403 379.267 376.339 379.151H376.25V380H375.213ZM376.254 377.273C376.254 377.656 376.309 377.992 376.42 378.281C376.532 378.57 376.693 378.796 376.903 378.96C377.114 379.121 377.372 379.201 377.678 379.201C377.995 379.201 378.26 379.117 378.473 378.949C378.686 378.778 378.847 378.548 378.956 378.256C379.067 377.965 379.123 377.637 379.123 377.273C379.123 376.913 379.068 376.59 378.96 376.303C378.853 376.017 378.692 375.791 378.477 375.625C378.263 375.459 377.997 375.376 377.678 375.376C377.37 375.376 377.109 375.456 376.896 375.614C376.686 375.773 376.526 375.994 376.417 376.278C376.308 376.562 376.254 376.894 376.254 377.273ZM384.601 376.467V377.386H381.377V376.467H384.601ZM386.017 380V374.545H387.036V375.433H387.103C387.217 375.133 387.403 374.898 387.661 374.73C387.919 374.56 388.228 374.474 388.588 374.474C388.952 374.474 389.258 374.56 389.504 374.73C389.752 374.901 389.936 375.135 390.054 375.433H390.111C390.241 375.142 390.448 374.91 390.732 374.737C391.017 374.562 391.355 374.474 391.748 374.474C392.243 374.474 392.646 374.629 392.959 374.94C393.274 375.25 393.431 375.717 393.431 376.342V380H392.369V376.442C392.369 376.072 392.269 375.805 392.068 375.639C391.866 375.473 391.626 375.391 391.347 375.391C391.001 375.391 390.732 375.497 390.541 375.71C390.349 375.921 390.253 376.192 390.253 376.523V380H389.195V376.374C389.195 376.078 389.102 375.84 388.918 375.661C388.733 375.481 388.493 375.391 388.197 375.391C387.996 375.391 387.81 375.444 387.639 375.55C387.471 375.655 387.335 375.8 387.231 375.987C387.129 376.174 387.078 376.391 387.078 376.637V380H386.017ZM397.205 380.11C396.668 380.11 396.205 379.995 395.817 379.766C395.431 379.534 395.133 379.208 394.922 378.789C394.714 378.368 394.609 377.874 394.609 377.308C394.609 376.75 394.714 376.257 394.922 375.831C395.133 375.405 395.426 375.072 395.803 374.833C396.181 374.594 396.624 374.474 397.131 374.474C397.438 374.474 397.737 374.525 398.026 374.627C398.314 374.729 398.574 374.889 398.803 375.107C399.033 375.324 399.214 375.607 399.347 375.955C399.479 376.301 399.545 376.721 399.545 377.216V377.592H395.21V376.797H398.505C398.505 376.518 398.448 376.27 398.335 376.055C398.221 375.837 398.061 375.665 397.855 375.54C397.652 375.414 397.412 375.352 397.138 375.352C396.839 375.352 396.579 375.425 396.357 375.572C396.136 375.716 395.966 375.906 395.845 376.14C395.727 376.372 395.668 376.624 395.668 376.896V377.518C395.668 377.882 395.732 378.192 395.859 378.448C395.99 378.704 396.171 378.899 396.403 379.034C396.635 379.167 396.906 379.233 397.216 379.233C397.417 379.233 397.601 379.205 397.766 379.148C397.932 379.089 398.075 379.001 398.196 378.885C398.317 378.769 398.409 378.626 398.473 378.455L399.478 378.636C399.397 378.932 399.253 379.192 399.045 379.414C398.839 379.634 398.58 379.806 398.267 379.929C397.957 380.05 397.603 380.11 397.205 380.11ZM401.785 376.761V380H400.724V374.545H401.743V375.433H401.81C401.936 375.144 402.132 374.912 402.4 374.737C402.67 374.562 403.009 374.474 403.419 374.474C403.791 374.474 404.116 374.553 404.395 374.709C404.675 374.863 404.891 375.092 405.045 375.398C405.199 375.703 405.276 376.081 405.276 376.531V380H404.214V376.658C404.214 376.263 404.111 375.954 403.905 375.732C403.699 375.507 403.416 375.394 403.057 375.394C402.81 375.394 402.591 375.447 402.4 375.554C402.21 375.661 402.06 375.817 401.949 376.023C401.84 376.226 401.785 376.473 401.785 376.761ZM410.155 377.738V374.545H411.221V380H410.177V379.055H410.12C409.994 379.347 409.793 379.589 409.516 379.783C409.242 379.975 408.899 380.071 408.49 380.071C408.14 380.071 407.829 379.994 407.559 379.84C407.292 379.684 407.081 379.453 406.927 379.148C406.776 378.842 406.7 378.465 406.7 378.015V374.545H407.762V377.887C407.762 378.259 407.865 378.555 408.071 378.775C408.277 378.995 408.544 379.105 408.873 379.105C409.072 379.105 409.27 379.055 409.466 378.956C409.665 378.857 409.83 378.706 409.96 378.505C410.093 378.304 410.158 378.048 410.155 377.738ZM415.861 376.467V377.386H412.637V376.467H415.861ZM419.318 380.107C418.878 380.107 418.485 379.994 418.139 379.769C417.796 379.542 417.526 379.219 417.33 378.8C417.135 378.378 417.038 377.873 417.038 377.283C417.038 376.694 417.137 376.19 417.333 375.771C417.532 375.352 417.804 375.031 418.15 374.808C418.496 374.586 418.887 374.474 419.325 374.474C419.664 374.474 419.936 374.531 420.142 374.645C420.35 374.756 420.511 374.886 420.625 375.036C420.741 375.185 420.831 375.316 420.895 375.43H420.959V372.727H422.021V380H420.984V379.151H420.895C420.831 379.267 420.739 379.4 420.618 379.549C420.5 379.698 420.336 379.828 420.128 379.94C419.92 380.051 419.65 380.107 419.318 380.107ZM419.553 379.201C419.858 379.201 420.116 379.121 420.327 378.96C420.54 378.796 420.701 378.57 420.81 378.281C420.921 377.992 420.977 377.656 420.977 377.273C420.977 376.894 420.922 376.562 420.813 376.278C420.704 375.994 420.545 375.773 420.334 375.614C420.123 375.456 419.863 375.376 419.553 375.376C419.233 375.376 418.967 375.459 418.754 375.625C418.54 375.791 418.379 376.017 418.271 376.303C418.164 376.59 418.111 376.913 418.111 377.273C418.111 377.637 418.165 377.965 418.274 378.256C418.383 378.548 418.544 378.778 418.757 378.949C418.973 379.117 419.238 379.201 419.553 379.201ZM425.887 380.11C425.349 380.11 424.887 379.995 424.498 379.766C424.113 379.534 423.814 379.208 423.604 378.789C423.395 378.368 423.291 377.874 423.291 377.308C423.291 376.75 423.395 376.257 423.604 375.831C423.814 375.405 424.108 375.072 424.484 374.833C424.863 374.594 425.306 374.474 425.812 374.474C426.12 374.474 426.418 374.525 426.707 374.627C426.996 374.729 427.255 374.889 427.485 375.107C427.715 375.324 427.896 375.607 428.028 375.955C428.161 376.301 428.227 376.721 428.227 377.216V377.592H423.891V376.797H427.187C427.187 376.518 427.13 376.27 427.016 376.055C426.903 375.837 426.743 375.665 426.537 375.54C426.333 375.414 426.094 375.352 425.819 375.352C425.521 375.352 425.261 375.425 425.038 375.572C424.818 375.716 424.648 375.906 424.527 376.14C424.408 376.372 424.349 376.624 424.349 376.896V377.518C424.349 377.882 424.413 378.192 424.541 378.448C424.671 378.704 424.852 378.899 425.084 379.034C425.316 379.167 425.587 379.233 425.898 379.233C426.099 379.233 426.282 379.205 426.448 379.148C426.614 379.089 426.757 379.001 426.878 378.885C426.998 378.769 427.091 378.626 427.155 378.455L428.16 378.636C428.079 378.932 427.935 379.192 427.726 379.414C427.52 379.634 427.261 379.806 426.949 379.929C426.639 380.05 426.285 380.11 425.887 380.11ZM432.001 374.545V375.398H428.919V374.545H432.001ZM429.764 380V373.913C429.764 373.572 429.838 373.29 429.988 373.065C430.137 372.837 430.334 372.668 430.581 372.557C430.827 372.443 431.094 372.386 431.383 372.386C431.596 372.386 431.779 372.404 431.93 372.44C432.082 372.473 432.194 372.504 432.267 372.532L432.019 373.391C431.969 373.377 431.905 373.361 431.827 373.342C431.749 373.32 431.654 373.31 431.543 373.31C431.285 373.31 431.1 373.374 430.989 373.501C430.88 373.629 430.826 373.814 430.826 374.055V380H429.764ZM434.518 380.121C434.172 380.121 433.86 380.057 433.58 379.929C433.301 379.799 433.08 379.611 432.916 379.364C432.755 379.118 432.675 378.816 432.675 378.459C432.675 378.151 432.734 377.898 432.852 377.699C432.971 377.5 433.131 377.343 433.332 377.227C433.533 377.111 433.758 377.023 434.007 376.964C434.255 376.905 434.508 376.86 434.767 376.829C435.093 376.791 435.358 376.76 435.562 376.737C435.766 376.71 435.914 376.669 436.006 376.612C436.098 376.555 436.144 376.463 436.144 376.335V376.31C436.144 376 436.057 375.76 435.882 375.589C435.709 375.419 435.451 375.334 435.107 375.334C434.75 375.334 434.468 375.413 434.262 375.572C434.059 375.728 433.918 375.902 433.84 376.094L432.842 375.866C432.96 375.535 433.133 375.268 433.36 375.064C433.59 374.858 433.854 374.709 434.152 374.616C434.45 374.522 434.764 374.474 435.093 374.474C435.311 374.474 435.542 374.5 435.786 374.553C436.032 374.602 436.262 374.695 436.475 374.83C436.69 374.964 436.866 375.157 437.004 375.408C437.141 375.657 437.21 375.98 437.21 376.378V380H436.173V379.254H436.13C436.061 379.392 435.959 379.527 435.821 379.659C435.684 379.792 435.508 379.902 435.292 379.989C435.077 380.077 434.819 380.121 434.518 380.121ZM434.749 379.268C435.042 379.268 435.293 379.21 435.502 379.094C435.712 378.978 435.872 378.827 435.981 378.64C436.092 378.451 436.148 378.248 436.148 378.033V377.33C436.11 377.367 436.037 377.403 435.928 377.436C435.821 377.467 435.699 377.494 435.562 377.518C435.425 377.539 435.291 377.559 435.161 377.578C435.03 377.595 434.922 377.609 434.834 377.621C434.628 377.647 434.44 377.691 434.269 377.752C434.101 377.814 433.966 377.902 433.865 378.018C433.765 378.132 433.715 378.284 433.715 378.473C433.715 378.736 433.812 378.935 434.007 379.07C434.201 379.202 434.448 379.268 434.749 379.268ZM442.079 377.738V374.545H443.145V380H442.1V379.055H442.044C441.918 379.347 441.717 379.589 441.44 379.783C441.165 379.975 440.823 380.071 440.414 380.071C440.063 380.071 439.753 379.994 439.483 379.84C439.216 379.684 439.005 379.453 438.851 379.148C438.7 378.842 438.624 378.465 438.624 378.015V374.545H439.686V377.887C439.686 378.259 439.789 378.555 439.995 378.775C440.201 378.995 440.468 379.105 440.797 379.105C440.996 379.105 441.194 379.055 441.39 378.956C441.589 378.857 441.754 378.706 441.884 378.505C442.016 378.304 442.082 378.048 442.079 377.738ZM445.633 372.727V380H444.571V372.727H445.633ZM449.608 374.545V375.398H446.628V374.545H449.608ZM447.427 373.239H448.489V378.398C448.489 378.604 448.52 378.759 448.581 378.864C448.643 378.965 448.722 379.035 448.819 379.073C448.919 379.109 449.026 379.126 449.142 379.126C449.228 379.126 449.302 379.121 449.366 379.109C449.43 379.097 449.48 379.087 449.515 379.08L449.707 379.957C449.645 379.981 449.558 380.005 449.444 380.028C449.331 380.054 449.189 380.069 449.018 380.071C448.739 380.076 448.478 380.026 448.237 379.922C447.995 379.818 447.8 379.657 447.651 379.439C447.502 379.221 447.427 378.948 447.427 378.619V373.239Z" fill="#767676" fill-opacity="0.8"/>
<path d="M368.26 439.545V440.398H365.281V439.545H368.26ZM366.08 438.239H367.141V443.398C367.141 443.604 367.172 443.759 367.234 443.864C367.295 443.965 367.375 444.035 367.472 444.073C367.571 444.109 367.679 444.126 367.795 444.126C367.88 444.126 367.955 444.121 368.018 444.109C368.082 444.097 368.132 444.087 368.168 444.08L368.359 444.957C368.298 444.981 368.21 445.005 368.097 445.028C367.983 445.054 367.841 445.069 367.67 445.071C367.391 445.076 367.131 445.026 366.889 444.922C366.648 444.818 366.452 444.657 366.303 444.439C366.154 444.221 366.08 443.948 366.08 443.619V438.239ZM371.022 445.121C370.676 445.121 370.364 445.057 370.084 444.929C369.805 444.799 369.584 444.611 369.42 444.364C369.259 444.118 369.179 443.816 369.179 443.459C369.179 443.151 369.238 442.898 369.356 442.699C369.475 442.5 369.635 442.343 369.836 442.227C370.037 442.111 370.262 442.023 370.51 441.964C370.759 441.905 371.012 441.86 371.27 441.829C371.597 441.791 371.862 441.76 372.066 441.737C372.269 441.71 372.417 441.669 372.51 441.612C372.602 441.555 372.648 441.463 372.648 441.335V441.31C372.648 441 372.561 440.76 372.385 440.589C372.213 440.419 371.955 440.334 371.611 440.334C371.254 440.334 370.972 440.413 370.766 440.572C370.563 440.728 370.422 440.902 370.344 441.094L369.346 440.866C369.464 440.535 369.637 440.268 369.864 440.064C370.094 439.858 370.358 439.709 370.656 439.616C370.954 439.522 371.268 439.474 371.597 439.474C371.815 439.474 372.046 439.5 372.29 439.553C372.536 439.602 372.765 439.695 372.979 439.83C373.194 439.964 373.37 440.157 373.508 440.408C373.645 440.657 373.714 440.98 373.714 441.378V445H372.677V444.254H372.634C372.565 444.392 372.462 444.527 372.325 444.659C372.188 444.792 372.011 444.902 371.796 444.989C371.581 445.077 371.323 445.121 371.022 445.121ZM371.253 444.268C371.546 444.268 371.797 444.21 372.006 444.094C372.216 443.978 372.376 443.827 372.485 443.64C372.596 443.451 372.652 443.248 372.652 443.033V442.33C372.614 442.367 372.541 442.403 372.432 442.436C372.325 442.467 372.203 442.494 372.066 442.518C371.929 442.539 371.795 442.559 371.665 442.578C371.534 442.595 371.425 442.609 371.338 442.621C371.132 442.647 370.944 442.691 370.773 442.752C370.605 442.814 370.47 442.902 370.368 443.018C370.269 443.132 370.219 443.284 370.219 443.473C370.219 443.736 370.316 443.935 370.51 444.07C370.705 444.202 370.952 444.268 371.253 444.268ZM375.213 445V437.727H376.275V440.43H376.339C376.4 440.316 376.489 440.185 376.605 440.036C376.721 439.886 376.882 439.756 377.088 439.645C377.294 439.531 377.566 439.474 377.905 439.474C378.345 439.474 378.738 439.586 379.084 439.808C379.429 440.031 379.701 440.352 379.897 440.771C380.096 441.19 380.195 441.694 380.195 442.283C380.195 442.873 380.097 443.378 379.901 443.8C379.704 444.219 379.434 444.542 379.091 444.769C378.748 444.994 378.356 445.107 377.915 445.107C377.584 445.107 377.313 445.051 377.102 444.94C376.894 444.828 376.731 444.698 376.612 444.549C376.494 444.4 376.403 444.267 376.339 444.151H376.25V445H375.213ZM376.254 442.273C376.254 442.656 376.309 442.992 376.42 443.281C376.532 443.57 376.693 443.796 376.903 443.96C377.114 444.121 377.372 444.201 377.678 444.201C377.995 444.201 378.26 444.117 378.473 443.949C378.686 443.778 378.847 443.548 378.956 443.256C379.067 442.965 379.123 442.637 379.123 442.273C379.123 441.913 379.068 441.59 378.96 441.303C378.853 441.017 378.692 440.791 378.477 440.625C378.263 440.459 377.997 440.376 377.678 440.376C377.37 440.376 377.109 440.456 376.896 440.614C376.686 440.773 376.526 440.994 376.417 441.278C376.308 441.562 376.254 441.894 376.254 442.273ZM384.601 441.467V442.386H381.377V441.467H384.601ZM386.017 445V439.545H387.036V440.433H387.103C387.217 440.133 387.403 439.898 387.661 439.73C387.919 439.56 388.228 439.474 388.588 439.474C388.952 439.474 389.258 439.56 389.504 439.73C389.752 439.901 389.936 440.135 390.054 440.433H390.111C390.241 440.142 390.448 439.91 390.732 439.737C391.017 439.562 391.355 439.474 391.748 439.474C392.243 439.474 392.646 439.629 392.959 439.94C393.274 440.25 393.431 440.717 393.431 441.342V445H392.369V441.442C392.369 441.072 392.269 440.805 392.068 440.639C391.866 440.473 391.626 440.391 391.347 440.391C391.001 440.391 390.732 440.497 390.541 440.71C390.349 440.921 390.253 441.192 390.253 441.523V445H389.195V441.374C389.195 441.078 389.102 440.84 388.918 440.661C388.733 440.481 388.493 440.391 388.197 440.391C387.996 440.391 387.81 440.444 387.639 440.55C387.471 440.655 387.335 440.8 387.231 440.987C387.129 441.174 387.078 441.391 387.078 441.637V445H386.017ZM397.205 445.11C396.668 445.11 396.205 444.995 395.817 444.766C395.431 444.534 395.133 444.208 394.922 443.789C394.714 443.368 394.609 442.874 394.609 442.308C394.609 441.75 394.714 441.257 394.922 440.831C395.133 440.405 395.426 440.072 395.803 439.833C396.181 439.594 396.624 439.474 397.131 439.474C397.438 439.474 397.737 439.525 398.026 439.627C398.314 439.729 398.574 439.889 398.803 440.107C399.033 440.324 399.214 440.607 399.347 440.955C399.479 441.301 399.545 441.721 399.545 442.216V442.592H395.21V441.797H398.505C398.505 441.518 398.448 441.27 398.335 441.055C398.221 440.837 398.061 440.665 397.855 440.54C397.652 440.414 397.412 440.352 397.138 440.352C396.839 440.352 396.579 440.425 396.357 440.572C396.136 440.716 395.966 440.906 395.845 441.14C395.727 441.372 395.668 441.624 395.668 441.896V442.518C395.668 442.882 395.732 443.192 395.859 443.448C395.99 443.704 396.171 443.899 396.403 444.034C396.635 444.167 396.906 444.233 397.216 444.233C397.417 444.233 397.601 444.205 397.766 444.148C397.932 444.089 398.075 444.001 398.196 443.885C398.317 443.769 398.409 443.626 398.473 443.455L399.478 443.636C399.397 443.932 399.253 444.192 399.045 444.414C398.839 444.634 398.58 444.806 398.267 444.929C397.957 445.05 397.603 445.11 397.205 445.11ZM401.785 441.761V445H400.724V439.545H401.743V440.433H401.81C401.936 440.144 402.132 439.912 402.4 439.737C402.67 439.562 403.009 439.474 403.419 439.474C403.791 439.474 404.116 439.553 404.395 439.709C404.675 439.863 404.891 440.092 405.045 440.398C405.199 440.703 405.276 441.081 405.276 441.531V445H404.214V441.658C404.214 441.263 404.111 440.954 403.905 440.732C403.699 440.507 403.416 440.394 403.057 440.394C402.81 440.394 402.591 440.447 402.4 440.554C402.21 440.661 402.06 440.817 401.949 441.023C401.84 441.226 401.785 441.473 401.785 441.761ZM410.155 442.738V439.545H411.221V445H410.177V444.055H410.12C409.994 444.347 409.793 444.589 409.516 444.783C409.242 444.975 408.899 445.071 408.49 445.071C408.14 445.071 407.829 444.994 407.559 444.84C407.292 444.684 407.081 444.453 406.927 444.148C406.776 443.842 406.7 443.465 406.7 443.015V439.545H407.762V442.887C407.762 443.259 407.865 443.555 408.071 443.775C408.277 443.995 408.544 444.105 408.873 444.105C409.072 444.105 409.27 444.055 409.466 443.956C409.665 443.857 409.83 443.706 409.96 443.505C410.093 443.304 410.158 443.048 410.155 442.738ZM415.861 441.467V442.386H412.637V441.467H415.861ZM418.864 445.121C418.518 445.121 418.205 445.057 417.926 444.929C417.647 444.799 417.425 444.611 417.262 444.364C417.101 444.118 417.021 443.816 417.021 443.459C417.021 443.151 417.08 442.898 417.198 442.699C417.317 442.5 417.476 442.343 417.678 442.227C417.879 442.111 418.104 442.023 418.352 441.964C418.601 441.905 418.854 441.86 419.112 441.829C419.439 441.791 419.704 441.76 419.908 441.737C420.111 441.71 420.259 441.669 420.352 441.612C420.444 441.555 420.49 441.463 420.49 441.335V441.31C420.49 441 420.402 440.76 420.227 440.589C420.054 440.419 419.796 440.334 419.453 440.334C419.096 440.334 418.814 440.413 418.608 440.572C418.404 440.728 418.263 440.902 418.185 441.094L417.188 440.866C417.306 440.535 417.479 440.268 417.706 440.064C417.936 439.858 418.2 439.709 418.498 439.616C418.796 439.522 419.11 439.474 419.439 439.474C419.657 439.474 419.888 439.5 420.131 439.553C420.378 439.602 420.607 439.695 420.82 439.83C421.036 439.964 421.212 440.157 421.349 440.408C421.487 440.657 421.555 440.98 421.555 441.378V445H420.518V444.254H420.476C420.407 444.392 420.304 444.527 420.167 444.659C420.03 444.792 419.853 444.902 419.638 444.989C419.422 445.077 419.164 445.121 418.864 445.121ZM419.094 444.268C419.388 444.268 419.639 444.21 419.847 444.094C420.058 443.978 420.218 443.827 420.327 443.64C420.438 443.451 420.494 443.248 420.494 443.033V442.33C420.456 442.367 420.382 442.403 420.273 442.436C420.167 442.467 420.045 442.494 419.908 442.518C419.77 442.539 419.637 442.559 419.506 442.578C419.376 442.595 419.267 442.609 419.18 442.621C418.974 442.647 418.786 442.691 418.615 442.752C418.447 442.814 418.312 442.902 418.21 443.018C418.111 443.132 418.061 443.284 418.061 443.473C418.061 443.736 418.158 443.935 418.352 444.07C418.546 444.202 418.794 444.268 419.094 444.268ZM425.267 445.11C424.739 445.11 424.285 444.991 423.904 444.751C423.525 444.51 423.234 444.177 423.03 443.754C422.826 443.33 422.725 442.844 422.725 442.298C422.725 441.744 422.829 441.255 423.037 440.831C423.245 440.405 423.539 440.072 423.918 439.833C424.297 439.594 424.743 439.474 425.257 439.474C425.671 439.474 426.04 439.551 426.365 439.705C426.689 439.857 426.95 440.07 427.149 440.344C427.351 440.619 427.47 440.94 427.508 441.307H426.475C426.418 441.051 426.288 440.831 426.084 440.646C425.883 440.462 425.613 440.369 425.274 440.369C424.978 440.369 424.719 440.447 424.497 440.604C424.276 440.758 424.105 440.978 423.982 441.264C423.859 441.548 423.797 441.884 423.797 442.273C423.797 442.67 423.857 443.014 423.978 443.303C424.099 443.591 424.269 443.815 424.49 443.974C424.712 444.132 424.974 444.212 425.274 444.212C425.476 444.212 425.658 444.175 425.821 444.102C425.987 444.026 426.125 443.918 426.237 443.778C426.35 443.639 426.43 443.471 426.475 443.274H427.508C427.47 443.627 427.355 443.942 427.164 444.219C426.972 444.496 426.715 444.714 426.393 444.872C426.073 445.031 425.698 445.11 425.267 445.11ZM431.19 439.545V440.398H428.21V439.545H431.19ZM429.009 438.239H430.071V443.398C430.071 443.604 430.102 443.759 430.163 443.864C430.225 443.965 430.304 444.035 430.401 444.073C430.501 444.109 430.608 444.126 430.724 444.126C430.81 444.126 430.884 444.121 430.948 444.109C431.012 444.097 431.062 444.087 431.097 444.08L431.289 444.957C431.228 444.981 431.14 445.005 431.026 445.028C430.913 445.054 430.771 445.069 430.6 445.071C430.321 445.076 430.06 445.026 429.819 444.922C429.577 444.818 429.382 444.657 429.233 444.439C429.084 444.221 429.009 443.948 429.009 443.619V438.239ZM432.364 445V439.545H433.426V445H432.364ZM432.9 438.704C432.716 438.704 432.557 438.642 432.425 438.519C432.294 438.394 432.229 438.245 432.229 438.072C432.229 437.897 432.294 437.747 432.425 437.624C432.557 437.499 432.716 437.436 432.9 437.436C433.085 437.436 433.242 437.499 433.373 437.624C433.505 437.747 433.572 437.897 433.572 438.072C433.572 438.245 433.505 438.394 433.373 438.519C433.242 438.642 433.085 438.704 432.9 438.704ZM439.521 439.545L437.543 445H436.406L434.425 439.545H435.565L436.946 443.743H437.003L438.381 439.545H439.521ZM442.684 445.11C442.146 445.11 441.684 444.995 441.295 444.766C440.909 444.534 440.611 444.208 440.4 443.789C440.192 443.368 440.088 442.874 440.088 442.308C440.088 441.75 440.192 441.257 440.4 440.831C440.611 440.405 440.905 440.072 441.281 439.833C441.66 439.594 442.103 439.474 442.609 439.474C442.917 439.474 443.215 439.525 443.504 439.627C443.793 439.729 444.052 439.889 444.282 440.107C444.511 440.324 444.693 440.607 444.825 440.955C444.958 441.301 445.024 441.721 445.024 442.216V442.592H440.688V441.797H443.983C443.983 441.518 443.927 441.27 443.813 441.055C443.699 440.837 443.54 440.665 443.334 440.54C443.13 440.414 442.891 440.352 442.616 440.352C442.318 440.352 442.058 440.425 441.835 440.572C441.615 440.716 441.444 440.906 441.324 441.14C441.205 441.372 441.146 441.624 441.146 441.896V442.518C441.146 442.882 441.21 443.192 441.338 443.448C441.468 443.704 441.649 443.899 441.881 444.034C442.113 444.167 442.384 444.233 442.694 444.233C442.896 444.233 443.079 444.205 443.245 444.148C443.411 444.089 443.554 444.001 443.675 443.885C443.795 443.769 443.888 443.626 443.952 443.455L444.956 443.636C444.876 443.932 444.732 444.192 444.523 444.414C444.317 444.634 444.058 444.806 443.746 444.929C443.435 445.05 443.081 445.11 442.684 445.11Z" fill="#767676" fill-opacity="0.8"/>
<path d="M107.125 112.156V101H159.688V112.156H140.094V165H126.719V112.156H107.125ZM175.25 165.906C172.188 165.906 169.458 165.375 167.063 164.312C164.667 163.229 162.771 161.635 161.375 159.531C160 157.406 159.313 154.76 159.313 151.594C159.313 148.927 159.802 146.687 160.781 144.875C161.76 143.063 163.094 141.604 164.781 140.5C166.469 139.396 168.385 138.562 170.531 138C172.698 137.437 174.969 137.042 177.344 136.812C180.135 136.521 182.385 136.25 184.094 136C185.802 135.729 187.042 135.333 187.813 134.812C188.583 134.292 188.969 133.521 188.969 132.5V132.312C188.969 130.333 188.344 128.802 187.094 127.719C185.865 126.635 184.115 126.094 181.844 126.094C179.448 126.094 177.542 126.625 176.125 127.687C174.708 128.729 173.771 130.042 173.313 131.625L161 130.625C161.625 127.708 162.854 125.187 164.688 123.062C166.521 120.917 168.885 119.271 171.781 118.125C174.698 116.958 178.073 116.375 181.906 116.375C184.573 116.375 187.125 116.687 189.563 117.312C192.021 117.937 194.198 118.906 196.094 120.219C198.01 121.531 199.521 123.219 200.625 125.281C201.729 127.323 202.281 129.771 202.281 132.625V165H189.656V158.344H189.281C188.51 159.844 187.479 161.167 186.188 162.312C184.896 163.437 183.344 164.323 181.531 164.969C179.719 165.594 177.625 165.906 175.25 165.906ZM179.063 156.719C181.021 156.719 182.75 156.333 184.25 155.562C185.75 154.771 186.927 153.708 187.781 152.375C188.635 151.042 189.063 149.531 189.063 147.844V142.75C188.646 143.021 188.073 143.271 187.344 143.5C186.635 143.708 185.833 143.906 184.938 144.094C184.042 144.26 183.146 144.417 182.25 144.562C181.354 144.687 180.542 144.802 179.813 144.906C178.25 145.135 176.885 145.5 175.719 146C174.552 146.5 173.646 147.177 173 148.031C172.354 148.865 172.031 149.906 172.031 151.156C172.031 152.969 172.688 154.354 174 155.312C175.333 156.25 177.021 156.719 179.063 156.719ZM212.859 165V101H226.172V125.062H226.578C227.161 123.771 228.005 122.458 229.109 121.125C230.234 119.771 231.693 118.646 233.484 117.75C235.297 116.833 237.547 116.375 240.234 116.375C243.734 116.375 246.964 117.292 249.922 119.125C252.88 120.937 255.245 123.677 257.016 127.344C258.786 130.99 259.672 135.562 259.672 141.062C259.672 146.417 258.807 150.937 257.078 154.625C255.37 158.292 253.036 161.073 250.078 162.969C247.141 164.844 243.849 165.781 240.203 165.781C237.62 165.781 235.422 165.354 233.609 164.5C231.818 163.646 230.349 162.573 229.203 161.281C228.057 159.969 227.182 158.646 226.578 157.312H225.984V165H212.859ZM225.891 141C225.891 143.854 226.286 146.344 227.078 148.469C227.87 150.594 229.016 152.25 230.516 153.437C232.016 154.604 233.839 155.187 235.984 155.187C238.151 155.187 239.984 154.594 241.484 153.406C242.984 152.198 244.12 150.531 244.891 148.406C245.682 146.26 246.078 143.792 246.078 141C246.078 138.229 245.693 135.792 244.922 133.687C244.151 131.583 243.016 129.937 241.516 128.75C240.016 127.562 238.172 126.969 235.984 126.969C233.818 126.969 231.984 127.542 230.484 128.687C229.005 129.833 227.87 131.458 227.078 133.562C226.286 135.667 225.891 138.146 225.891 141Z" fill="black"/>
<rect x="40" y="4" width="31.2812" height="30" rx="3" fill="#FAFAFA"/>
<rect x="40.5" y="4.5" width="30.2812" height="29" rx="2.5" stroke="black" stroke-opacity="0.2"/>
<path d="M46.5313 14.8594V14H52.5312V14.8594H50.0156V22H49.0469V14.8594H46.5313ZM54.8506 22.1406C54.4704 22.1406 54.1253 22.069 53.8154 21.9258C53.5055 21.7799 53.2594 21.5703 53.0771 21.2969C52.8949 21.0208 52.8037 20.6875 52.8037 20.2969C52.8037 19.9531 52.8714 19.6745 53.0068 19.4609C53.1423 19.2448 53.3232 19.0755 53.5498 18.9531C53.7764 18.8307 54.0264 18.7396 54.2998 18.6797C54.5758 18.6172 54.8532 18.5677 55.1318 18.5313C55.4964 18.4844 55.792 18.4492 56.0186 18.4258C56.2477 18.3997 56.4144 18.3568 56.5186 18.2969C56.6253 18.237 56.6787 18.1328 56.6787 17.9844V17.9531C56.6787 17.5677 56.5732 17.2682 56.3623 17.0547C56.154 16.8411 55.8376 16.7344 55.4131 16.7344C54.973 16.7344 54.6279 16.8307 54.3779 17.0234C54.1279 17.2161 53.9521 17.4219 53.8506 17.6406L52.9756 17.3281C53.1318 16.9635 53.3402 16.6797 53.6006 16.4766C53.8636 16.2708 54.1501 16.1276 54.46 16.0469C54.7725 15.9635 55.0798 15.9219 55.3818 15.9219C55.5745 15.9219 55.7959 15.9453 56.0459 15.9922C56.2985 16.0365 56.542 16.1289 56.7764 16.2695C57.0133 16.4102 57.21 16.6224 57.3662 16.9062C57.5225 17.1901 57.6006 17.5703 57.6006 18.0469V22H56.6787V21.1875H56.6318C56.5693 21.3177 56.4652 21.457 56.3193 21.6055C56.1735 21.7539 55.9795 21.8802 55.7373 21.9844C55.4951 22.0885 55.1995 22.1406 54.8506 22.1406ZM54.9912 21.3125C55.3558 21.3125 55.6631 21.2409 55.9131 21.0977C56.1657 20.9544 56.3558 20.7695 56.4834 20.543C56.6136 20.3164 56.6787 20.0781 56.6787 19.8281V18.9844C56.6396 19.0312 56.5537 19.0742 56.4209 19.1133C56.2907 19.1497 56.1396 19.1823 55.9678 19.2109C55.7985 19.237 55.6331 19.2604 55.4717 19.2812C55.3128 19.2995 55.1839 19.3151 55.085 19.3281C54.8454 19.3594 54.6214 19.4102 54.4131 19.4805C54.2074 19.5482 54.0407 19.651 53.9131 19.7891C53.7881 19.9245 53.7256 20.1094 53.7256 20.3437C53.7256 20.6641 53.8441 20.9062 54.0811 21.0703C54.3206 21.2318 54.624 21.3125 54.9912 21.3125ZM59.4082 22V14H60.3301V16.9531H60.4082C60.4759 16.849 60.5697 16.7161 60.6895 16.5547C60.8118 16.3906 60.9863 16.2448 61.2129 16.1172C61.4421 15.987 61.752 15.9219 62.1426 15.9219C62.6478 15.9219 63.0931 16.0482 63.4785 16.3008C63.8639 16.5534 64.1647 16.9115 64.3809 17.375C64.597 17.8385 64.7051 18.3854 64.7051 19.0156C64.7051 19.651 64.597 20.2018 64.3809 20.668C64.1647 21.1315 63.8652 21.4909 63.4824 21.7461C63.0996 21.9987 62.6582 22.125 62.1582 22.125C61.7728 22.125 61.4642 22.0612 61.2324 21.9336C61.0007 21.8034 60.8223 21.6562 60.6973 21.4922C60.5723 21.3255 60.4759 21.1875 60.4082 21.0781H60.2988V22H59.4082ZM60.3145 19C60.3145 19.4531 60.3809 19.8529 60.5137 20.1992C60.6465 20.543 60.8405 20.8125 61.0957 21.0078C61.3509 21.2005 61.6634 21.2969 62.0332 21.2969C62.4186 21.2969 62.7402 21.1953 62.998 20.9922C63.2585 20.7865 63.4538 20.5104 63.584 20.1641C63.7168 19.8151 63.7832 19.4271 63.7832 19C63.7832 18.5781 63.7181 18.1979 63.5879 17.8594C63.4603 17.5182 63.2663 17.2487 63.0059 17.0508C62.748 16.8503 62.4238 16.75 62.0332 16.75C61.6582 16.75 61.3431 16.8451 61.0879 17.0352C60.8327 17.2227 60.64 17.4857 60.5098 17.8242C60.3796 18.1602 60.3145 18.5521 60.3145 19Z" fill="black"/>
</svg>
